<svg width="98" height="98" viewBox="0 0 98 98" fill="none" xmlns="http://www.w3.org/2000/svg">
<path d="M8.49884 4.24942C8.49884 6.51578 6.51578 8.49884 4.24942 8.49884C1.98306 8.49884 0 6.51578 0 4.24942C0 1.98306 1.98306 0 4.24942 0C6.79907 0.283295 8.49884 1.98306 8.49884 4.24942ZM26.6297 0.283312C24.3633 0.283312 22.3803 2.26638 22.3803 4.53273C22.3803 6.79909 24.3633 8.78215 26.6297 8.78215C28.8961 8.78215 30.8791 6.79909 30.8791 4.53273C30.8791 1.98308 28.8961 0.283312 26.6297 0.283312ZM49.01 0.283312C46.7436 0.283312 44.7606 2.26638 44.7606 4.53273C44.7606 6.79909 46.7436 8.78215 49.01 8.78215C51.2763 8.78215 53.2594 6.79909 53.2594 4.53273C52.9761 1.98308 51.2763 0.283312 49.01 0.283312ZM71.107 0.283312C68.8406 0.283312 66.8576 2.26638 66.8576 4.53273C66.8576 6.79909 68.8406 8.78215 71.107 8.78215C73.3733 8.78215 75.3564 6.79909 75.3564 4.53273C75.3564 1.98308 73.3733 0.283312 71.107 0.283312ZM93.4873 8.49884C95.7536 8.49884 97.7367 6.51578 97.7367 4.24942C97.7367 1.98306 95.7536 0 93.4873 0C91.2209 0 89.2378 1.98306 89.2378 4.24942C89.2378 6.51578 90.9376 8.49884 93.4873 8.49884ZM4.53272 22.3803C2.26636 22.3803 0.283296 24.3633 0.283296 26.6297C0.283296 28.896 2.26636 30.8791 4.53272 30.8791C6.79908 30.8791 8.78214 28.896 8.78214 26.6297C8.49884 24.3633 6.79908 22.3803 4.53272 22.3803ZM26.6297 22.3803C24.3633 22.3803 22.3803 24.3633 22.3803 26.6297C22.3803 28.896 24.3633 30.8791 26.6297 30.8791C28.8961 30.8791 30.8791 28.896 30.8791 26.6297C30.8791 24.3633 28.8961 22.3803 26.6297 22.3803ZM49.01 22.3803C46.7436 22.3803 44.7606 24.3633 44.7606 26.6297C44.7606 28.896 46.7436 30.8791 49.01 30.8791C51.2763 30.8791 53.2594 28.896 53.2594 26.6297C52.9761 24.3633 51.2763 22.3803 49.01 22.3803ZM71.107 22.3803C68.8406 22.3803 66.8576 24.3633 66.8576 26.6297C66.8576 28.896 68.8406 30.8791 71.107 30.8791C73.3733 30.8791 75.3564 28.896 75.3564 26.6297C75.3564 24.3633 73.3733 22.3803 71.107 22.3803ZM93.4873 22.3803C91.2209 22.3803 89.2378 24.3633 89.2378 26.6297C89.2378 28.896 91.2209 30.8791 93.4873 30.8791C95.7536 30.8791 97.7367 28.896 97.7367 26.6297C97.4534 24.3633 95.7536 22.3803 93.4873 22.3803ZM4.53272 44.4773C2.26636 44.4773 0.283296 46.4604 0.283296 48.7267C0.283296 50.9931 2.26636 52.9761 4.53272 52.9761C6.79908 52.9761 8.78214 50.9931 8.78214 48.7267C8.49884 46.4604 6.79908 44.4773 4.53272 44.4773ZM26.6297 44.4773C24.3633 44.4773 22.3803 46.4604 22.3803 48.7267C22.3803 50.9931 24.3633 52.9761 26.6297 52.9761C28.8961 52.9761 30.8791 50.9931 30.8791 48.7267C30.8791 46.4604 28.8961 44.4773 26.6297 44.4773ZM49.01 44.4773C46.7436 44.4773 44.7606 46.4604 44.7606 48.7267C44.7606 50.9931 46.7436 52.9761 49.01 52.9761C51.2763 52.9761 53.2594 50.9931 53.2594 48.7267C52.9761 46.4604 51.2763 44.4773 49.01 44.4773ZM71.107 44.4773C68.8406 44.4773 66.8576 46.4604 66.8576 48.7267C66.8576 50.9931 68.8406 52.9761 71.107 52.9761C73.3733 52.9761 75.3564 50.9931 75.3564 48.7267C75.3564 46.4604 73.3733 44.4773 71.107 44.4773ZM93.4873 44.4773C91.2209 44.4773 89.2378 46.4604 89.2378 48.7267C89.2378 50.9931 91.2209 52.9761 93.4873 52.9761C95.7536 52.9761 97.7367 50.9931 97.7367 48.7267C97.4534 46.4604 95.7536 44.4773 93.4873 44.4773ZM4.53272 66.8576C2.26636 66.8576 0.283296 68.8406 0.283296 71.107C0.283296 73.3734 2.26636 75.3564 4.53272 75.3564C6.79908 75.3564 8.78214 73.3734 8.78214 71.107C8.49884 68.8406 6.79908 66.8576 4.53272 66.8576ZM26.6297 66.8576C24.3633 66.8576 22.3803 68.8406 22.3803 71.107C22.3803 73.3734 24.3633 75.3564 26.6297 75.3564C28.8961 75.3564 30.8791 73.3734 30.8791 71.107C30.8791 68.8406 28.8961 66.8576 26.6297 66.8576ZM49.01 66.8576C46.7436 66.8576 44.7606 68.8406 44.7606 71.107C44.7606 73.3734 46.7436 75.3564 49.01 75.3564C51.2763 75.3564 53.2594 73.3734 53.2594 71.107C52.9761 68.8406 51.2763 66.8576 49.01 66.8576ZM71.107 66.8576C68.8406 66.8576 66.8576 68.8406 66.8576 71.107C66.8576 73.3734 68.8406 75.3564 71.107 75.3564C73.3733 75.3564 75.3564 73.3734 75.3564 71.107C75.3564 68.8406 73.3733 66.8576 71.107 66.8576ZM93.4873 66.8576C91.2209 66.8576 89.2378 68.8406 89.2378 71.107C89.2378 73.3734 91.2209 75.3564 93.4873 75.3564C95.7536 75.3564 97.7367 73.3734 97.7367 71.107C97.4534 68.8406 95.7536 66.8576 93.4873 66.8576ZM4.53272 88.9545C2.26636 88.9545 0.283296 90.9376 0.283296 93.2039C0.283296 95.4703 2.26636 97.4534 4.53272 97.4534C6.79908 97.4534 8.78214 95.4703 8.78214 93.2039C8.49884 90.9376 6.79908 88.9545 4.53272 88.9545ZM26.6297 88.9545C24.3633 88.9545 22.3803 90.9376 22.3803 93.2039C22.3803 95.4703 24.3633 97.4534 26.6297 97.4534C28.8961 97.4534 30.8791 95.4703 30.8791 93.2039C30.8791 90.9376 28.8961 88.9545 26.6297 88.9545ZM49.01 88.9545C46.7436 88.9545 44.7606 90.9376 44.7606 93.2039C44.7606 95.4703 46.7436 97.4534 49.01 97.4534C51.2763 97.4534 53.2594 95.4703 53.2594 93.2039C52.9761 90.9376 51.2763 88.9545 49.01 88.9545ZM71.107 88.9545C68.8406 88.9545 66.8576 90.9376 66.8576 93.2039C66.8576 95.4703 68.8406 97.4534 71.107 97.4534C73.3733 97.4534 75.3564 95.4703 75.3564 93.2039C75.3564 90.9376 73.3733 88.9545 71.107 88.9545ZM93.4873 88.9545C91.2209 88.9545 89.2378 90.9376 89.2378 93.2039C89.2378 95.4703 91.2209 97.4534 93.4873 97.4534C95.7536 97.4534 97.7367 95.4703 97.7367 93.2039C97.4534 90.9376 95.7536 88.9545 93.4873 88.9545Z" fill="#FFB120"/>
</svg>
