<svg width="149" height="51" viewBox="0 0 149 51" fill="none" xmlns="http://www.w3.org/2000/svg">
<path d="M65.47 35.8848V13.4848H71C72.9507 13.4848 74.36 13.8908 75.228 14.7028C76.096 15.5148 76.544 16.8541 76.572 18.7208C76.6 20.1394 76.6187 21.4881 76.628 22.7668C76.6373 24.0361 76.6373 25.3101 76.628 26.5888C76.6187 27.8581 76.6 29.2021 76.572 30.6208C76.544 32.4968 76.096 33.8454 75.228 34.6668C74.3693 35.4788 72.974 35.8848 71.042 35.8848H65.47ZM69.18 32.6088H71.042C71.6487 32.6088 72.1013 32.4781 72.4 32.2168C72.708 31.9554 72.8667 31.5681 72.876 31.0548C72.904 29.9441 72.9227 28.8614 72.932 27.8068C72.9507 26.7521 72.96 25.7068 72.96 24.6708C72.96 23.6348 72.9507 22.5894 72.932 21.5348C72.9227 20.4801 72.904 19.4021 72.876 18.3008C72.8667 17.7874 72.708 17.4048 72.4 17.1528C72.092 16.8914 71.6253 16.7608 71 16.7608H69.18V32.6088ZM79.3059 35.8848V13.4848H84.6259C86.5393 13.4848 87.9253 13.8721 88.7839 14.6468C89.6426 15.4214 90.0999 16.7001 90.1559 18.4828C90.1746 19.0988 90.1886 19.6448 90.1979 20.1208C90.2073 20.5968 90.2073 21.0634 90.1979 21.5208C90.1886 21.9781 90.1746 22.4961 90.1559 23.0748C90.1186 24.2041 89.9226 25.1234 89.5679 25.8328C89.2226 26.5421 88.6813 27.0834 87.9439 27.4568L90.4919 35.8848H86.5719L84.4579 28.0728H83.0159V35.8848H79.3059ZM83.0159 24.7968H84.6259C85.2326 24.7968 85.6806 24.6661 85.9699 24.4048C86.2686 24.1434 86.4273 23.7608 86.4459 23.2568C86.4739 22.7061 86.4926 22.1554 86.5019 21.6048C86.5206 21.0541 86.5253 20.5034 86.5159 19.9528C86.5066 19.4021 86.4833 18.8514 86.4459 18.3008C86.4179 17.7874 86.2593 17.4048 85.9699 17.1528C85.6806 16.8914 85.2326 16.7608 84.6259 16.7608H83.0159V24.7968ZM92.7864 35.8848V13.4848H96.4964V35.8848H92.7864ZM101.531 35.8848L98.4649 13.4848H102.301L103.869 25.0208L104.191 32.6088H105.493L105.815 25.0208L107.383 13.4848H111.219L108.153 35.8848H101.531ZM118.318 36.1368C116.321 36.1368 114.879 35.7354 113.992 34.9328C113.105 34.1301 112.639 32.7954 112.592 30.9288C112.573 29.7808 112.559 28.6981 112.55 27.6808C112.541 26.6541 112.536 25.6508 112.536 24.6708C112.536 23.6814 112.541 22.6781 112.55 21.6608C112.559 20.6341 112.573 19.5561 112.592 18.4268C112.639 16.5601 113.105 15.2301 113.992 14.4368C114.879 13.6341 116.321 13.2328 118.318 13.2328C120.297 13.2328 121.725 13.6341 122.602 14.4368C123.489 15.2301 123.96 16.5601 124.016 18.4268C124.063 19.5561 124.095 20.6341 124.114 21.6608C124.133 22.6781 124.142 23.6814 124.142 24.6708C124.142 25.6601 124.133 26.6681 124.114 27.6948C124.095 28.7121 124.063 29.7901 124.016 30.9288C123.96 32.7954 123.489 34.1301 122.602 34.9328C121.725 35.7354 120.297 36.1368 118.318 36.1368ZM118.318 33.0988C119.037 33.0988 119.545 32.9494 119.844 32.6508C120.152 32.3521 120.311 31.8388 120.32 31.1108C120.357 29.9814 120.39 28.8894 120.418 27.8348C120.446 26.7708 120.46 25.7208 120.46 24.6848C120.46 23.6394 120.446 22.5848 120.418 21.5208C120.39 20.4568 120.357 19.3601 120.32 18.2308C120.311 17.5214 120.152 17.0174 119.844 16.7188C119.545 16.4108 119.037 16.2568 118.318 16.2568C117.618 16.2568 117.109 16.4108 116.792 16.7188C116.484 17.0174 116.321 17.5214 116.302 18.2308C116.255 19.3508 116.223 20.4428 116.204 21.5068C116.185 22.5614 116.176 23.6114 116.176 24.6568C116.176 25.6928 116.185 26.7428 116.204 27.8068C116.223 28.8708 116.255 29.9721 116.302 31.1108C116.321 31.8388 116.484 32.3521 116.792 32.6508C117.109 32.9494 117.618 33.0988 118.318 33.0988ZM126.829 35.8848V13.4848H133.157L134.725 20.6108L136.349 32.6088H137.609L136.951 22.6688L136.671 13.4848H140.409V35.8848H133.801L132.191 28.3808L130.931 16.7328H129.629L130.231 27.3448L130.539 35.8848H126.829Z" fill="white"/>
<path d="M142.743 35.8848V32.2868H147.727V35.8848H142.743Z" fill="#FFB120"/>
<circle cx="25" cy="25.3848" r="25" fill="#FFB120"/>
<path d="M40 25.3848C40 17.1005 33.2843 10.3848 25 10.3848C16.7157 10.3848 10 17.1005 10 25.3848C10 32.8266 15.4197 39.0016 22.5272 40.1807C22.5273 40.1811 22.5273 40.1815 22.5274 40.1819C22.5654 40.1882 22.6039 40.1937 22.642 40.1997C22.6829 40.2062 22.7238 40.2127 22.7647 40.2188C22.8474 40.2312 22.9305 40.2426 23.0136 40.2536C23.0458 40.2579 23.0779 40.2626 23.1101 40.2666C23.2245 40.281 23.3393 40.2942 23.4546 40.306C23.4788 40.3084 23.5032 40.3104 23.5274 40.3127C23.6194 40.3217 23.7116 40.33 23.8041 40.3373C23.8441 40.3405 23.8843 40.3431 23.9243 40.346C24.0028 40.3516 24.0814 40.3566 24.1602 40.3609C24.2025 40.3633 24.2449 40.3655 24.2873 40.3675C24.3687 40.3713 24.4502 40.3743 24.5319 40.3768C24.5693 40.3779 24.6067 40.3794 24.6442 40.3803C24.7625 40.3831 24.881 40.3848 24.9999 40.3848C25.1188 40.3848 25.2374 40.3831 25.3557 40.3803C25.3932 40.3794 25.4305 40.378 25.4679 40.3768C25.5496 40.3743 25.6312 40.3713 25.7126 40.3675C25.755 40.3655 25.7973 40.3632 25.8396 40.3609C25.9184 40.3566 25.9971 40.3516 26.0756 40.346C26.1156 40.3431 26.1558 40.3405 26.1957 40.3373C26.2883 40.33 26.3806 40.3217 26.4727 40.3127C26.4968 40.3104 26.5212 40.3084 26.5453 40.306C26.6605 40.2942 26.7754 40.2809 26.8898 40.2666C26.922 40.2626 26.9539 40.2579 26.9859 40.2537C27.0693 40.2426 27.1524 40.2312 27.2353 40.2188C27.2761 40.2127 27.3169 40.2062 27.3576 40.1998C27.3959 40.1937 27.4343 40.1883 27.4725 40.1819C27.4726 40.1815 27.4726 40.1811 27.4727 40.1807C34.5803 39.0015 40 32.8266 40 25.3848ZM25 13.3144C29.409 13.3144 33.2653 15.6785 35.3715 19.2081C36.1119 20.4487 35.0146 21.9789 33.6002 21.6842C31.089 21.1609 28.0447 20.7911 25.0001 20.7911C21.9554 20.7911 18.9111 21.1609 16.3998 21.6842C14.9854 21.9789 13.8882 20.4487 14.6285 19.2081C16.7347 15.6785 20.591 13.3144 25 13.3144ZM25 28.1425C23.8306 28.1425 22.8825 27.1945 22.8825 26.025C22.8825 24.8556 23.8305 23.9076 25 23.9076C26.1694 23.9076 27.1175 24.8556 27.1175 26.025C27.1175 27.1945 26.1694 28.1425 25 28.1425ZM13.4913 29.0332C13.1055 27.8151 14.2006 26.6399 15.4473 26.9204C17.6192 27.4092 19.836 27.8224 20.5769 28.5633C21.1266 29.113 21.4944 31.4968 21.8465 34.4148C22.0066 35.7411 20.6163 36.7129 19.4315 36.0958C16.623 34.6329 14.462 32.0979 13.4913 29.0332ZM30.5685 36.0958C29.3837 36.7129 27.9934 35.7411 28.1535 34.4148C28.5056 31.4969 28.8734 29.113 29.4231 28.5633C30.164 27.8224 32.3808 27.4092 34.5528 26.9204C35.7995 26.6399 36.8946 27.8151 36.5087 29.0332C35.538 32.0979 33.377 34.6329 30.5685 36.0958Z" fill="white"/>
</svg>
