<svg width="184" height="51" viewBox="0 0 184 51" fill="none" xmlns="http://www.w3.org/2000/svg">
<path d="M48.3997 15.683H53.8732L66.0356 35.8708H60.2897L51.1073 20.6222L46.2729 28.6506H54.1307L56.4282 32.4643H43.9769L41.9249 35.8708H36.2388L48.3997 15.683ZM123.63 35.8783L118.696 35.8708V15.683H137.183C143.629 15.683 145.269 24.2263 140.77 27.1779C142.741 27.9113 143.047 30.3749 143.141 31.1906L143.295 35.8723H138.431L138.277 31.7384C138.125 29.9722 137.024 28.7644 135.237 28.7584H125.843L124.869 24.5616H135.753C137.455 24.5616 138.434 23.7698 138.434 22.2806C138.434 20.8572 137.455 20.0011 135.753 20.0011H123.637L123.63 35.8783ZM70.7189 23.2654C70.7788 21.5322 71.1066 19.8244 73.5148 19.8289H88.717V15.6935H73.4549C68.7043 15.6875 65.7857 17.8158 65.7303 23.1113V28.4531C65.7857 33.7485 68.7043 35.8768 73.4549 35.8708H88.717V31.7369H73.5148C71.1066 31.7414 70.7788 30.0321 70.7189 28.3019V23.2654ZM108.058 35.8858C113.34 35.8768 115.468 32.9582 115.478 28.1941V15.683H110.491V29.0458C110.481 31.5917 108.718 31.927 107.116 31.9644H99.9814C98.3814 31.927 96.6153 31.5917 96.6063 29.0458V15.683H91.6207V28.1941C91.6297 32.9582 93.758 35.8768 99.04 35.8858H108.058ZM156.704 15.683H162.175L174.337 35.8708H168.591L159.407 20.6222L154.574 28.6506H162.435L164.73 32.4643H152.279L150.226 35.8708H144.542L156.704 15.683ZM8.93555 25.738C8.93555 14.776 17.0673 13.7852 21.5365 13.7852C26.0057 13.7852 34.1374 14.776 34.1374 25.738C34.1374 36.4471 25.8396 37.7852 21.5365 37.7852C17.2334 37.7852 8.93555 36.4471 8.93555 25.738ZM26.2437 25.3803L27.6551 35.4862C28.3765 35.0881 32.4326 33.1483 32.3922 25.738C32.3922 17.0795 27.0669 14.7954 22.5393 14.7954L26.2437 25.3803ZM20.9617 23.3477H22.1097V14.785H20.9617V23.3477ZM21.5365 36.8018C24.0181 36.8018 26.3051 36.1118 27.245 35.6628L22.2968 24.8549H20.7746L15.8474 35.6628C16.7889 36.1118 19.0534 36.8018 21.5365 36.8018ZM20.5352 14.7954C16.0076 14.7954 10.6822 17.0795 10.6822 25.738C10.6418 33.1483 14.7189 35.0896 15.4388 35.4862L16.8323 25.3803L20.5352 14.7954Z" fill="#646464"/>
</svg>
