<svg width="195" height="51" viewBox="0 0 195 51" fill="none" xmlns="http://www.w3.org/2000/svg">
<path fill-rule="evenodd" clip-rule="evenodd" d="M20.5531 25.6771L21.448 25.1747L32.6479 32.7028L20.5531 25.6771ZM19.9098 25.2756L19.0772 24.8059L20.0054 10.4375L19.9098 25.2756ZM18.9068 25.2267L15.1953 28.2377L19.6426 25.6659L18.9068 25.2267Z" fill="#646464"/>
<path fill-rule="evenodd" clip-rule="evenodd" d="M20.1367 6.17578C9.09166 6.17578 0.136719 14.9541 0.136719 25.7836C0.136719 36.6131 9.09166 45.3915 20.1367 45.3915C31.1828 45.3915 40.1378 36.6131 40.1378 25.7836C40.1378 14.9541 31.1828 6.17578 20.1367 6.17578ZM20.1388 44.346C15.5688 44.346 11.2919 42.8522 8.10533 40.1102C5.00498 37.4405 2.59683 33.1986 2.00233 28.6897C3.41168 37.2642 10.9957 43.8141 20.1388 43.8141C30.2848 43.8141 38.5102 35.7501 38.5102 25.803C38.5102 21.6762 36.9376 17.635 34.5555 14.5985C36.9688 16.4235 39.0527 21.6212 39.0527 25.803C39.0527 36.0435 30.5842 44.346 20.1388 44.346ZM18.4021 24.3866L20.0193 8.12913L20.1367 8.12811H20.1783L20.3373 25.2364L23.1207 23.6051L20.3207 8.13015C30.1819 8.22695 38.1474 16.0923 38.1474 25.7836C38.1474 28.8976 37.3243 31.822 35.8817 34.3612L23.3815 24.1074L22.1977 24.7657L35.7964 34.508L35.6925 34.6832L20.3997 26.0577V29.1003L35.5875 34.8554C32.4394 39.9971 26.6981 43.4391 20.1357 43.4391C13.5806 43.4391 7.84342 40.0042 4.69422 34.8707L19.8727 29.0687V26.0271L4.56222 34.6526L4.46141 34.4815L18.0123 24.7657L16.8285 24.1074L4.36267 34.3072C2.89241 31.6978 2.12343 28.7647 2.12809 25.7836C2.12809 16.1687 9.96783 8.34922 19.722 8.13218L17.2827 23.7284L18.4021 24.3866ZM20.1367 7.22938C9.69032 7.22938 1.22283 15.5319 1.22283 25.7724C1.22283 29.9318 2.76209 33.866 5.10996 37.2642C5.90609 38.7244 6.7677 39.6282 7.91721 40.8214C3.41272 37.2938 0.498409 31.8638 0.498409 25.7714C0.498409 15.1385 9.29018 6.51815 20.1367 6.51815C30.9833 6.51815 39.9424 15.5135 39.6202 25.7714C39.3479 15.7632 30.4106 7.22938 20.1367 7.22938ZM107.991 27.0818C107.991 23.6428 106.44 20.8549 103.035 20.8549C99.8748 20.8549 98.0778 23.6428 98.0778 27.0818C98.0778 30.5208 99.5796 33.3086 103.035 33.3086C106.391 33.3086 107.378 31.6783 107.893 29.0708L106.737 29.0667C106.639 30.0337 105.995 32.2122 103.529 32.2601C100.716 32.3162 100.519 28.7763 100.567 27.0828L100.616 26.1148C100.616 25.051 100.518 21.9055 103.133 21.9055C105.206 21.9055 105.502 24.5191 105.502 26.1148H100.616L100.567 27.0828L107.991 27.0818ZM49.6072 16.5702L49.5573 17.3446H50.2973C50.8398 17.3446 51.532 17.3925 51.532 18.0701L51.2857 31.1841C51.2857 31.6681 51.0383 32.2 50.051 32.2H49.311L49.2611 32.9744H54.2457V32.2H53.407C52.7647 32.2 52.3209 32.0064 52.3209 31.1841L52.5672 18.603L57.898 32.1511H58.4405L63.8201 18.4573L64.0675 31.1841C64.0675 31.6192 63.6227 32.2 62.9315 32.2H61.8953V32.9744H68.1635V32.2H67.4235C66.881 32.2 66.2387 31.9096 66.2387 31.232L65.9913 18.2637C65.9913 17.8276 66.485 17.3446 66.9787 17.3446H67.9162V16.5702H63.4241L58.7845 28.4737L54.1449 16.5702H49.6072ZM84.3273 32.9846V32.3559H83.8336C83.3898 32.3559 82.6 32.2102 82.6 31.339V25C82.6 23.0161 83.6362 22.2906 84.6724 22.2906C85.0673 22.2906 85.3147 22.4842 85.2149 23.2097C85.1162 23.9352 85.7575 24.4192 86.301 24.3713C86.8446 24.3234 87.5358 24.2256 87.436 22.8714C87.3362 21.5172 86.5484 20.8875 85.1661 20.8875C84.08 20.8875 83.1913 21.5651 82.945 21.9044C82.6582 22.2988 82.3027 22.1459 82.2539 21.7108C82.205 21.2757 82.0075 20.8406 81.5138 20.9853C80.5696 21.2813 79.5912 21.46 78.6016 21.5172V22.0012C80.6741 21.9044 80.4776 22.9203 80.4776 23.4043V31.34C80.4776 32.2112 79.6877 32.3569 79.2429 32.3569H78.5517V32.9856L84.3273 32.9846ZM95.3225 21.6242C94.595 21.1035 93.6803 20.805 92.5672 20.805C89.4087 20.805 87.6106 23.5929 87.6106 27.0329C87.6106 30.4719 89.1114 33.2434 92.5672 33.2597C95.627 33.275 96.3681 31.5815 96.8825 28.973L95.7258 28.9679C95.627 29.9349 95.282 32.1613 93.0609 32.2102C90.2484 32.2724 90.051 28.7254 90.0998 27.0329C90.0998 25.968 90.2484 21.7088 92.6171 21.7088C94.6397 21.7088 95.8744 23.1129 95.8744 24.7096H96.5157V20.645H95.9731L95.3225 21.6242ZM166.726 32.2591C163.913 32.3152 163.716 28.7753 163.764 27.0818H171.188C171.188 23.6428 169.639 20.8549 166.232 20.8549C163.074 20.8549 161.277 23.6428 161.277 27.0818C161.277 30.5208 162.777 33.3086 166.232 33.3086C169.588 33.3086 170.577 31.6783 171.09 29.0708L169.936 29.0657C169.836 30.0337 169.195 32.2122 166.726 32.2591ZM166.332 21.9044C168.405 21.9044 168.701 24.5181 168.701 26.1138H163.815C163.815 25.05 163.716 21.9044 166.332 21.9044ZM126.149 32.2591C123.336 32.3152 123.139 28.7753 123.187 27.0818H130.611C130.611 23.6428 129.06 20.8549 125.656 20.8549C122.497 20.8549 120.698 23.6428 120.698 27.0818C120.698 30.5208 122.2 33.3086 125.656 33.3086C129.012 33.3086 129.998 31.6783 130.513 29.0708L129.357 29.0657C129.259 30.0337 128.618 32.2122 126.149 32.2591ZM125.753 21.9044C127.828 21.9044 128.122 24.5181 128.122 26.1138H123.236C123.236 25.05 123.139 21.9044 125.753 21.9044ZM73.7656 32.2591C70.9531 32.3152 70.7556 28.7753 70.8045 27.0818H78.2285C78.2285 23.6428 76.6778 20.8549 73.2729 20.8549C70.1133 20.8549 68.3163 23.6428 68.3163 27.0818C68.3163 30.5208 69.8171 33.3086 73.2729 33.3086C76.629 33.3086 77.6163 31.6783 78.1308 29.0708L76.974 29.0667C76.8753 30.0337 76.234 32.2122 73.7656 32.2591ZM73.3706 21.9044C75.4441 21.9044 75.7393 24.5181 75.7393 26.1138H70.8533C70.8533 25.05 70.7556 21.9044 73.3706 21.9044ZM118.74 30.4576V16.9564C118.74 16.4 118.446 15.9395 117.95 16.0852C117.006 16.3814 116.028 16.5601 115.039 16.6171V17.1011C116.47 17.0043 116.619 17.4404 116.619 17.9244V22.0858C115.977 21.505 115.236 20.9242 113.905 20.9242C112.226 20.9242 109.117 22.2305 109.117 26.827C109.117 32.8766 112.72 33.2628 113.806 33.2628C114.892 33.2628 116.323 32.3926 116.62 31.932C116.643 31.8352 116.792 31.714 116.841 31.932C116.892 32.3681 117.212 33.0203 117.706 32.8756C118.65 32.5798 119.628 32.4011 120.617 32.3437V31.8597C118.543 31.9575 118.74 30.9406 118.74 30.4576ZM116.619 29.0056C116.57 31.6661 115.139 32.4894 113.954 32.4894C111.289 32.4415 111.485 28.4737 111.485 26.7791C111.485 25.0846 111.585 21.7465 114.003 22.0369C116.422 22.3273 116.62 24.8431 116.62 26.343L116.619 29.0056ZM147.713 26.0577V24.945H141.2V26.0577H147.713ZM132.225 28.8711V32.9836H132.767L133.26 31.9188C133.754 32.3549 134.791 33.0804 136.123 33.0804C137.456 33.0804 139.332 32.3549 140.073 31.0007C140.812 29.6455 140.467 27.4191 138.789 26.7414C137.319 26.1484 136.03 25.4382 135.038 24.9511C134.729 24.8069 134.476 24.5689 134.316 24.2725C134.156 23.976 134.098 23.6369 134.15 23.3055C134.299 22.5311 134.989 21.7088 136.568 21.6599C138.147 21.612 138.936 22.9183 139.136 24.4182H139.677V20.5482H139.184L138.64 21.4673C137.605 20.7897 137.16 20.6929 136.223 20.6929C135.285 20.6929 133.705 21.1769 132.817 22.5321C131.929 23.8873 132.175 26.0149 134.299 26.8872C136.42 27.7573 137.408 28.2903 138 28.5807C138.592 28.8711 138.937 30.0327 138.543 30.7103C138.147 31.3869 137.408 32.1623 136.224 32.1623C135.039 32.1623 133.165 31.339 132.72 28.8721L132.225 28.8711ZM156.991 24.1186C158.177 23.8282 159.361 21.7475 159.361 20.3444C159.361 18.9413 158.818 16.5702 155.362 16.5702H147.959V17.1989C148.7 17.1989 149.982 17.3446 149.982 18.5541V30.5065C149.982 31.1841 149.934 32.2968 147.959 32.2968V32.9744H154.031C155.856 32.9744 160.051 32.8287 160.151 28.0875C160.151 26.4898 159.361 24.6027 156.991 24.1186ZM152.105 17.3446H154.573C156.4 17.3446 157.139 18.6499 157.139 20.3444C157.139 22.4251 156.498 24.0218 154.573 24.0218H152.105V17.3446ZM154.622 32.2H152.105V24.7962H154.918C156.548 24.7962 157.979 25.909 157.979 28.328C157.979 30.748 156.497 32.2 154.622 32.2ZM180.309 24.1777V31.339C180.309 32.2102 179.519 32.3559 179.075 32.3559H178.778V32.9846H184.158V32.3559H183.664C183.219 32.3559 182.429 32.2102 182.429 31.339V24.2266C182.381 20.9843 179.42 20.8875 178.383 20.8875C177.297 20.8875 176.111 21.5651 175.866 21.9044C175.578 22.2988 175.223 22.1459 175.174 21.7108C175.125 21.2757 174.929 20.8406 174.433 20.9853C173.489 21.2813 172.511 21.46 171.522 21.5172V22.0012C173.594 21.9044 173.398 22.9203 173.398 23.4043V31.34C173.398 32.2112 172.608 32.3569 172.163 32.3569H171.473V32.9856H177.246V32.3569H176.753C176.308 32.3569 175.518 32.2112 175.518 31.34V25.0011C175.518 23.9373 175.914 22.2427 177.937 22.097C179.963 21.9523 180.309 23.2586 180.309 24.1777ZM185.302 24.4203L186.191 21.13H194.582L187.376 32.308H191.224C192.113 32.308 192.804 31.9687 193.742 29.7423H194.138L193.348 32.9846H184.759L191.917 21.8076H188.707C187.917 21.8076 187.031 21.8076 185.796 24.4203H185.302Z" fill="#646464"/>
</svg>
