<svg width="181" height="51" viewBox="0 0 181 51" fill="none" xmlns="http://www.w3.org/2000/svg">
<path fill-rule="evenodd" clip-rule="evenodd" d="M152.361 34.8281H157.662L159.429 32.043H170.96L168.773 28.2541H161.63L165.748 21.3656L174.074 34.8281H179.375L168.354 16.8281H163.053L152.361 34.8281ZM54.5586 34.8281H59.8598L61.6268 32.043H73.1576L70.9712 28.2541H63.8132L67.9463 21.3656L76.2724 34.8281H81.5736L70.5519 16.8281H65.2508L54.5586 34.8281ZM128.91 34.7383H133.537V20.8714H144.364C145.951 20.8714 146.805 21.6201 146.805 22.878C146.805 24.1809 145.667 24.7499 144.364 24.7499H134.63L135.394 28.6734H142.882C146.416 28.6734 146.506 29.5122 146.925 34.8281H151.387L151.133 30.4404C151.043 28.5987 150.039 27.835 149.276 27.3254L149.021 27.1609C150.369 26.3972 151.462 25.319 151.462 22.4587C151.462 18.8495 148.766 16.8281 144.813 16.8281H128.909L128.91 34.7383ZM101.895 16.8281H87.9979C84.299 16.8281 81.2741 18.8498 81.2741 22.7133V29.5122C81.2741 32.8814 84.3889 34.8281 87.5037 34.8281H101.895V31.1143L88.1776 31.0993C86.6501 31.0993 85.9014 29.8562 85.9014 28.4186V23.5519C85.9014 21.3656 87.1593 20.6168 89.1809 20.6168H101.895V16.8281ZM104.56 16.8281V28.5985C104.56 31.7882 106.267 34.8279 110.46 34.8279H120.404C124.687 34.8279 126.139 31.7133 126.139 28.6732V16.8281H121.422V29.0925C121.422 30.6052 120.314 31.2788 118.607 31.2788H111.928C109.607 31.2788 109.263 29.7666 109.263 27.9246V16.8281H104.56Z" fill="#646464"/>
<path fill-rule="evenodd" clip-rule="evenodd" d="M22.2236 45.8281C7.59771 45.8281 0.921875 37.2964 0.921875 25.8279C0.921875 12.504 8.53953 5.82812 22.2236 5.82812C36.6279 5.82812 43.5254 12.9472 43.5254 25.8279C43.5254 38.7918 35.6584 45.8281 22.2236 45.8281ZM11.9467 41.3125L14.3013 24.8861L20.2292 7.85027C11.5589 8.43198 4.24594 12.7533 4.24594 25.7725C4.24594 33.3906 7.0714 38.5421 11.9467 41.3125ZM21.6142 7.79487V21.5897H22.9715V7.79487H21.6142ZM24.412 7.85027L30.3399 24.8861L32.6944 41.3406C37.5697 38.5979 40.3398 33.4456 40.3398 25.7729C40.3398 12.3378 32.8052 8.37658 24.412 7.85027ZM31.531 41.922L23.4424 24.5537H21.0879L13.0547 41.8943C15.6586 43.0854 18.761 43.6948 22.279 43.6948C25.8524 43.6948 28.9549 43.1131 31.531 41.922Z" fill="#646464"/>
</svg>
