<svg width="181" height="51" viewBox="0 0 181 51" fill="none" xmlns="http://www.w3.org/2000/svg">
<g clip-path="url(#clip0_533_35)">
<path d="M63.9011 20.3331H51.7006C51.2762 20.3331 51.1491 20.7167 51.1491 21.0548V23.1291C51.1491 23.381 51.3601 23.5535 51.7006 23.5535H53.9019C54.3286 23.5535 54.5805 23.5535 54.5805 23.8916V26.3926C54.4148 26.6036 54.4352 26.7965 54.0517 26.7965L44.924 26.817C44.6698 26.817 44.4587 26.7307 44.4133 26.3063V23.8939C44.4133 23.5558 44.6675 23.5558 45.0919 23.5558H47.2978C47.636 23.5558 47.8493 23.3856 47.8493 23.1314V21.0571C47.8493 20.7189 47.7222 20.3354 47.2978 20.3354H35.095C34.6728 20.3354 34.5435 20.7189 34.5435 21.0571V23.1314C34.5435 23.3833 34.7568 23.5558 35.095 23.5558H37.2986C37.7207 23.5558 37.9749 23.5558 37.9749 23.8939V33.0444C37.9749 33.2985 37.9749 33.5527 37.5528 33.5527H35.4331C35.0927 33.5527 34.9225 33.7229 34.9225 34.0633V36.2239C34.9225 36.4758 34.7954 36.7345 35.306 36.7345H47.0799C47.5928 36.7345 47.4635 36.478 47.4635 36.2239V34.0633C47.4635 33.7252 47.2955 33.5527 46.9529 33.5527H44.8355C44.4088 33.5527 44.4088 33.3008 44.4088 33.0444V30.843C44.495 30.4572 44.5382 30.1213 44.9194 30.1213H54.0699C54.4511 30.1213 54.5782 30.3755 54.5782 30.7567V33.0444C54.5782 33.2985 54.5782 33.5527 54.1538 33.5527H52.0342C51.6983 33.5527 51.5258 33.7229 51.5258 34.0633V36.2239C51.5258 36.4758 51.3987 36.7345 51.9071 36.7345H63.6855C64.1939 36.7345 64.0668 36.478 64.0668 36.2239V34.0633C64.0668 33.7252 63.8966 33.5527 63.5585 33.5527H61.4388C61.0144 33.5527 61.0144 33.3008 61.0144 33.0444V23.8939C61.0144 23.5558 61.2686 23.5558 61.693 23.5558H63.8966C64.237 23.5558 64.4458 23.3856 64.4458 23.1314V21.0571C64.4504 20.7167 64.3255 20.3331 63.9011 20.3331ZM78.1374 19.7408C73.8164 19.7408 65.3422 21.3521 65.3422 28.6371C65.3422 34.9938 71.6967 36.7708 78.9 36.7708C86.1009 36.7708 91.525 34.7374 91.525 28.5554C91.525 22.3666 85.1705 19.7408 78.1374 19.7408ZM78.5618 34.3152C73.9004 34.3152 72.6317 30.5003 72.6317 28.2989C72.6317 24.8267 75.5139 22.7047 78.2237 22.791C82.6264 22.9294 84.1538 26.1793 84.1538 27.9585C84.1538 29.7378 83.2233 34.3152 78.5618 34.3152ZM105.296 20.3331H92.9683C92.5417 20.3331 92.4168 20.7167 92.4168 21.0548V23.1291C92.4168 23.381 92.6302 23.5535 92.9683 23.5535H95.172C95.5941 23.5535 95.8505 23.5535 95.8505 23.8916V33.0421C95.8505 33.2963 95.8505 33.5504 95.4261 33.5504H93.3087C92.9706 33.5504 92.7981 33.7207 92.7981 34.0611V36.2216C92.7981 36.4735 92.671 36.7322 93.1794 36.7322H102.5C103.008 36.7322 102.881 36.4758 102.881 36.2216V34.0611C102.881 33.7229 102.711 33.5504 102.371 33.5504H100.253C99.8289 33.5504 99.8289 33.2985 99.8289 33.0421V25.3713C99.8289 25.0763 100.04 25.0354 100.169 25.1625C100.169 25.1625 108.641 36.3056 108.895 36.5166C108.982 36.5597 109.32 36.73 109.488 36.73H118.554C118.767 36.73 118.811 36.6437 118.811 36.4735V23.8916C118.811 23.5535 119.063 23.5535 119.487 23.5535H121.688C122.029 23.5535 122.24 23.3833 122.24 23.1291V21.0548C122.24 20.7167 122.113 20.3331 121.688 20.3331H112.368C111.943 20.3331 111.816 20.7167 111.816 21.0548V23.1291C111.816 23.381 112.029 23.5535 112.368 23.5535H114.317C114.739 23.5535 114.996 23.5535 114.996 23.8916V32.1525C114.996 32.3658 114.866 32.4089 114.698 32.2841C114.698 32.2841 105.927 20.7167 105.757 20.5873C105.72 20.4602 105.55 20.3331 105.296 20.3331ZM142.368 20.3331H124.403C123.978 20.3331 123.853 20.7167 123.853 21.0548V23.1291C123.853 23.381 124.064 23.5535 124.403 23.5535H126.606C127.031 23.5535 127.287 23.5535 127.287 23.8916V33.0421C127.287 33.2963 127.287 33.5504 126.863 33.5504H124.743C124.405 33.5504 124.235 33.7207 124.235 34.0611V36.2216C124.235 36.4735 124.108 36.7322 124.616 36.7322H140.97C143.175 36.6051 150.422 35.3297 150.249 28.3852C150.079 21.604 143.722 20.3331 142.368 20.3331ZM139.02 33.5096L134.15 33.5527C133.725 33.5527 133.725 33.3008 133.725 33.0444V23.8939C133.725 23.5558 133.98 23.5558 134.404 23.5558H139.233C139.912 23.5558 143.641 24.2343 143.641 28.1333C143.638 32.0254 141.224 33.5096 139.02 33.5096ZM179.991 36.2216V34.0611C179.991 33.7229 179.823 33.5504 179.482 33.5504H177.235C176.811 33.5504 176.432 33.2985 176.432 33.0421L169.483 20.6736C169.42 20.5723 169.332 20.4882 169.228 20.4288C169.125 20.3694 169.008 20.3366 168.888 20.3331H156.009C155.583 20.3331 155.458 20.7167 155.458 21.0548V23.1291C155.458 23.381 155.564 23.5535 155.9 23.5535H158.592C159.016 23.5535 159.398 23.5535 159.27 23.8916L154.06 33.1692C153.933 33.4234 153.89 33.5504 153.467 33.5504H151.094C150.753 33.5504 150.585 33.7207 150.585 34.0611V36.2216C150.585 36.4735 150.456 36.7322 150.967 36.7322H160.712C161.22 36.7322 161.093 36.4758 161.093 36.2216V34.0611C161.093 33.7229 160.923 33.5504 160.582 33.5504H158.315C158.029 33.5504 157.925 33.4324 158.063 33.1919L159.227 31.3491C159.27 31.1789 159.441 31.1357 159.611 31.1357H167.745C167.978 31.1357 167.999 31.222 168.126 31.4739C168.21 31.6441 168.932 33.2327 168.932 33.2327C169.015 33.4846 168.972 33.5482 168.634 33.5482H166.601C166.26 33.5482 166.09 33.7184 166.09 34.0588V36.2193C166.09 36.4712 165.963 36.73 166.474 36.73H179.607C180.118 36.73 179.991 36.4735 179.991 36.2216ZM165.607 27.7679H161.644C161.476 27.7474 161.463 27.6272 161.517 27.5545C161.581 27.4728 163.51 24.0392 163.51 24.0392C163.637 23.8485 163.721 23.8689 163.828 24.0392L165.754 27.5772C165.777 27.6612 165.777 27.7679 165.607 27.7679ZM29.4985 19.2324C28.6951 19.5002 2.51012 29.0615 2.51012 29.0615C1.34589 29.4836 1.66361 30.5457 2.12885 30.927C2.46927 31.2628 7.89099 36.7708 7.89099 36.7708H5.85756L0.941923 31.433C0.519804 31.0109 0.265625 30.7567 0.265625 29.6538C0.265625 28.5554 1.19837 27.9585 2.12885 27.5341C3.05932 27.1097 32.6144 14.8229 32.6144 14.8229C32.8028 14.7367 32.8663 14.8002 32.8028 14.9931C32.8028 14.9931 31.8428 17.4192 31.7225 17.7028C31.4479 18.3632 30.6854 18.8512 29.4985 19.2324Z" fill="#646464"/>
<path d="M9.4873 29.3937C6.00823 30.4013 3.36658 31.1139 3.36658 31.1139C3.36658 31.1139 2.59496 30.4172 2.42703 30.2061C2.25682 29.9951 2.4066 29.7795 2.7039 29.6524C3.66161 29.2893 30.4639 20.275 30.4639 20.275C30.659 20.2024 30.7181 20.2682 30.6432 20.4543C30.6432 20.4543 29.6196 22.2744 29.4063 22.6216C29.0228 23.2434 28.1445 23.7268 27.1096 23.9606C26.3176 24.2307 16.5203 26.6908 9.69836 28.7151C9.40106 28.8422 9.46688 29.1803 9.4873 29.3937ZM11.607 31.5746C8.1279 32.3031 5.12541 32.8727 5.12541 32.8727C5.12541 32.8727 4.17451 31.9763 3.99522 31.7584C3.9294 31.6813 3.89309 31.6064 3.99749 31.5655C4.9552 31.2796 27.7541 25.1952 27.7541 25.1952C27.9493 25.1384 28.0083 25.2111 27.9334 25.3904C27.9334 25.3904 26.9939 26.9585 26.7828 27.2899C26.3993 27.8799 25.3508 28.2544 24.4861 28.4428C23.6895 28.6493 18.5333 29.5775 11.9247 30.8915C11.6274 30.9936 11.5661 31.1366 11.607 31.5746ZM15.8009 33.6512C12.3218 34.1255 7.01132 34.7814 7.01132 34.7814C7.01132 34.7814 5.95149 33.7442 5.75178 33.5286C5.68823 33.4628 5.73362 33.3766 5.79717 33.3357C6.48027 33.2041 24.2365 29.6342 24.2365 29.6342C24.4317 29.5888 24.4884 29.6683 24.4158 29.843C24.4158 29.843 23.8666 30.8325 23.474 31.2751C22.902 31.9264 22.0442 32.1329 21.1818 32.26C20.383 32.4052 17.9592 32.6708 16.0528 32.9408C15.7578 33.0225 15.7782 33.2222 15.8009 33.6512ZM16.7473 34.1459C16.7473 34.1459 7.87145 35.2897 7.74436 35.2897C7.61727 35.2897 7.59684 35.3555 7.66039 35.4168L9.00618 36.7876H20.7937C20.8777 36.7876 20.8777 36.7127 20.8141 36.6922L16.9992 34.1709C16.9379 34.1255 16.8335 34.1255 16.7473 34.1459Z" fill="#646464"/>
</g>
<defs>
<clipPath id="clip0_533_35">
<rect width="180" height="50" fill="white" transform="translate(0.136719 0.785156)"/>
</clipPath>
</defs>
</svg>
