<svg width="192" height="51" viewBox="0 0 192 51" fill="none" xmlns="http://www.w3.org/2000/svg">
<path fill-rule="evenodd" clip-rule="evenodd" d="M168.326 25.0142H156.697C156.841 23.5571 157.869 22.1001 159.727 22.1001H173.44V19.3003H159.098C153.385 19.3003 151.04 23.6436 151.04 27.814H167.041C167.583 27.814 168.868 27.9284 168.868 29.2422C168.868 30.5569 167.755 30.6714 165.841 30.7282H149.154V19.3003H144.24V30.7282H134.87C132.04 30.7282 131.727 28.643 131.727 27.5292V19.3003H122.784L115.498 24.1573L108.927 19.3003H89.7576C84.0437 19.3003 80.615 23.2715 80.1293 26.7282H84.081C82.501 27.7936 81.3821 29.2372 80.7743 30.7231L69.6161 30.7282C66.7875 30.7282 66.473 28.643 66.473 27.5292V19.3003H61.5593V27.1003C61.5593 32.4717 65.3304 33.5287 67.1588 33.5287H106.443L113.786 28.6142L120.443 33.5287H128.186L117.872 25.9288L126.357 20.2429V27.7572C126.357 32.6133 131.1 33.5287 132.414 33.5287H168.27C170.042 33.5287 174.927 33.2999 174.927 29.4143C174.927 25.5288 171.326 25.0142 168.326 25.0142ZM105.644 30.7282H87.1579C87.3003 29.2711 88.9006 27.814 90.7578 27.814H101.672V25.0142H86.7578C86.9002 23.5571 88.5006 22.1001 90.3577 22.1001H102.815V20.4717L111.444 26.8714L105.644 30.7282ZM35.8326 39.7852C42.2848 39.7852 48.0072 37.533 51.5546 34.0619L48.3582 34.0772C45.3363 36.6184 40.9184 38.2179 35.9115 38.2179C26.5713 38.2179 19.28 32.6523 19.28 25.7856C19.28 17.8661 26.5713 13.3533 35.9115 13.3533C36.5056 13.355 36.9803 13.6288 36.6243 14.1441C34.6841 16.4802 29.1583 23.9988 28.1505 25.6279C26.1619 28.8396 26.2094 32.7947 31.0808 33.0719H51.5648C52.6116 33.0719 52.8769 32.5811 53.255 32.0691C54.6051 30.2532 55.33 28.0484 55.3207 25.7856C55.3173 19.8843 51.1647 15.4614 45.0541 13.2855L44.1081 14.6985C49.1855 16.5718 52.5429 20.3573 52.5429 25.7856C52.5429 26.7282 52.4048 27.6461 52.1437 28.5285C51.9165 29.2948 51.4732 29.9432 50.6332 29.9432H34.2823C32.1878 29.9432 32.9973 27.7826 33.7729 26.7358C34.8977 24.7193 41.0592 16.3217 42.5425 14.757C42.9206 14.1831 43.9801 12.9947 42.5196 12.5396C40.4344 12.0445 38.1814 11.7852 35.8318 11.7852C25.0693 11.7852 16.3497 17.3118 16.3438 25.7856C16.3387 34.3382 25.0693 39.7852 35.8326 39.7852Z" fill="#646464"/>
</svg>
