<svg width="50" height="51" viewBox="0 0 50 51" fill="none" xmlns="http://www.w3.org/2000/svg">
<g clip-path="url(#clip0_186_1804)">
<path d="M25.0003 6.59253C14.6759 6.59253 6.27637 14.992 6.27637 25.3165C6.27637 35.6409 14.6759 44.0404 25.0003 44.0404C35.3247 44.0404 43.7242 35.6409 43.7242 25.3165C43.7242 14.992 35.3247 6.59253 25.0003 6.59253ZM25.0003 9.52222C33.2153 9.52222 39.9845 15.8269 40.7261 23.8516H30.9951C30.3356 21.1535 27.8988 19.1446 25.0003 19.1446C22.1018 19.1446 19.6649 21.1535 19.0055 23.8516H9.27451C10.0161 15.8269 16.7853 9.52222 25.0003 9.52222ZM23.5354 41.0421C15.9933 40.3453 9.97148 34.3235 9.27451 26.7813H19.0055C19.5501 29.0096 21.3071 30.7666 23.5354 31.3113V41.0421ZM21.7581 25.3165C21.7581 23.5287 23.2126 22.0743 25.0003 22.0743C26.788 22.0743 28.2425 23.5288 28.2425 25.3165C28.2425 27.1042 26.788 28.5586 25.0003 28.5586C23.2126 28.5586 21.7581 27.1042 21.7581 25.3165ZM26.4651 41.0421V31.3112C28.6935 30.7666 30.4505 29.0096 30.9951 26.7812H40.7261C40.0291 34.3235 34.0073 40.3453 26.4651 41.0421Z" fill="#FFB120"/>
<path d="M25 0.316406C11.2149 0.316406 0 11.5313 0 25.3164C0 39.1015 11.2149 50.3164 25 50.3164C38.7851 50.3164 50 39.1015 50 25.3164C50 11.5313 38.7851 0.316406 25 0.316406ZM25 47.3867C12.8304 47.3867 2.92969 37.486 2.92969 25.3164C2.92969 13.1468 12.8304 3.24609 25 3.24609C37.1696 3.24609 47.0703 13.1468 47.0703 25.3164C47.0703 37.486 37.1696 47.3867 25 47.3867Z" fill="#FFB120"/>
</g>
<defs>
<clipPath id="clip0_186_1804">
<rect width="50" height="50" fill="white" transform="translate(0 0.316406)"/>
</clipPath>
</defs>
</svg>
