<svg width="20" height="21" viewBox="0 0 20 21" fill="none" xmlns="http://www.w3.org/2000/svg">
<path d="M20 10.7274C20 5.2045 15.5229 0.727356 10 0.727356C4.47714 0.727356 0 5.2045 0 10.7274C0 15.6886 3.61314 19.8052 8.35147 20.5913C8.3515 20.5916 8.35154 20.5919 8.35157 20.5921C8.37696 20.5963 8.40257 20.6 8.428 20.604C8.45525 20.6083 8.4825 20.6126 8.50982 20.6167C8.56497 20.625 8.62032 20.6326 8.67575 20.6399C8.69722 20.6427 8.71857 20.6459 8.74007 20.6486C8.81636 20.6582 8.89289 20.667 8.96975 20.6748C8.98586 20.6765 9.00211 20.6778 9.01825 20.6793C9.07961 20.6853 9.14107 20.6909 9.20275 20.6957C9.22943 20.6978 9.25618 20.6996 9.28289 20.7015C9.33522 20.7052 9.38761 20.7086 9.44014 20.7115C9.46836 20.713 9.49657 20.7145 9.52486 20.7158C9.57911 20.7184 9.63347 20.7204 9.68793 20.722C9.71289 20.7228 9.73779 20.7238 9.76278 20.7244C9.84164 20.7262 9.92064 20.7274 9.99993 20.7274C10.0792 20.7274 10.1582 20.7262 10.2371 20.7244C10.2621 20.7238 10.287 20.7228 10.312 20.722C10.3664 20.7204 10.4208 20.7184 10.475 20.7158C10.5033 20.7145 10.5315 20.713 10.5597 20.7115C10.6123 20.7086 10.6647 20.7052 10.717 20.7015C10.7438 20.6996 10.7705 20.6978 10.7971 20.6957C10.8589 20.6909 10.9204 20.6853 10.9818 20.6793C10.9979 20.6778 11.0141 20.6765 11.0302 20.6748C11.107 20.667 11.1836 20.6581 11.2599 20.6486C11.2813 20.6459 11.3026 20.6428 11.324 20.64C11.3795 20.6326 11.4349 20.625 11.4902 20.6167C11.5174 20.6126 11.5446 20.6083 11.5718 20.604C11.5973 20.6 11.6229 20.5964 11.6484 20.5921C11.6484 20.5919 11.6484 20.5916 11.6485 20.5913C16.3869 19.8052 20 15.6886 20 10.7274ZM10 2.68043C12.9393 2.68043 15.5102 4.2565 16.9144 6.60957C17.4079 7.43668 16.6764 8.45675 15.7335 8.26028C14.0593 7.91146 12.0298 7.66493 10 7.66493C7.97029 7.66493 5.94075 7.91146 4.26654 8.26028C3.32361 8.45675 2.59211 7.43664 3.08568 6.60957C4.48979 4.2565 7.06068 2.68043 10 2.68043ZM10 12.5659C9.22039 12.5659 8.58836 11.9339 8.58836 11.1542C8.58836 10.3746 9.22036 9.74257 10 9.74257C10.7796 9.74257 11.4116 10.3746 11.4116 11.1542C11.4116 11.9339 10.7796 12.5659 10 12.5659ZM2.32754 13.1597C2.07032 12.3476 2.80039 11.5641 3.6315 11.7511C5.07946 12.077 6.55736 12.3524 7.05129 12.8464C7.41775 13.2128 7.66296 14.8021 7.89768 16.7474C8.00439 17.6316 7.07754 18.2795 6.28768 17.868C4.41532 16.8927 2.97468 15.2027 2.32754 13.1597ZM13.7123 17.868C12.9225 18.2795 11.9956 17.6316 12.1023 16.7474C12.3371 14.8021 12.5822 13.2129 12.9487 12.8464C13.4426 12.3524 14.9205 12.077 16.3685 11.7511C17.1996 11.5641 17.9297 12.3476 17.6725 13.1597C17.0253 15.2027 15.5847 16.8927 13.7123 17.868Z" fill="#FFB120"/>
</svg>
