<svg width="40" height="40" viewBox="0 0 40 40" fill="none" xmlns="http://www.w3.org/2000/svg">
<path d="M23.7656 33.2631H16.2344C15.5872 33.2631 15.0625 33.7877 15.0625 34.4349C15.0625 35.0821 15.5872 35.6068 16.2344 35.6068H23.7656C24.4128 35.6068 24.9375 35.0821 24.9375 34.4349C24.9375 33.7877 24.4128 33.2631 23.7656 33.2631Z" fill="#FFB120"/>
<path d="M23.2957 26.0317C23.5418 25.5379 23.681 24.9815 23.681 24.3924C23.681 22.3593 22.0329 20.7112 19.9998 20.7112C19.4105 20.7112 18.854 20.8504 18.3602 21.0966L12.8404 15.5765C12.3828 15.1189 11.6407 15.1189 11.1831 15.5765C10.7254 16.0341 10.7254 16.776 11.1831 17.2338L16.7033 22.7543C16.4576 23.2477 16.3187 23.8037 16.3187 24.3924C16.3187 26.4254 17.9668 28.0736 19.9999 28.0736C20.5887 28.0736 21.1448 27.9346 21.6383 27.6888L22.9368 28.9875C23.3945 29.4451 24.1364 29.4453 24.5941 28.9876C25.0518 28.53 25.0518 27.7881 24.5942 27.3303L23.2957 26.0317ZM19.9998 25.7298C19.2624 25.7298 18.6624 25.1299 18.6624 24.3925C18.6624 23.655 19.2623 23.055 19.9998 23.055C20.7373 23.055 21.3372 23.655 21.3372 24.3925C21.3372 25.1299 20.7372 25.7298 19.9998 25.7298Z" fill="#FFB120"/>
<path d="M20 4.39319C8.97195 4.39319 0 13.3651 0 24.3932C0 27.908 0.926719 31.3664 2.68008 34.3945C3.00398 34.9539 3.71977 35.1452 4.27961 34.8223C4.27984 34.8222 7.54141 32.9394 7.54141 32.9394C8.10188 32.6158 8.29391 31.8991 7.97031 31.3386C7.64672 30.7781 6.93016 30.5858 6.36953 30.9097L4.15609 32.1876C3.13938 30.1234 2.53742 27.87 2.38422 25.5651H4.9375C5.58469 25.5651 6.10938 25.0405 6.10938 24.3933C6.10938 23.7461 5.58469 23.2214 4.9375 23.2214H2.38359C2.53922 20.8584 3.16148 18.6212 4.15945 16.6008L6.36961 17.8769C6.93023 18.2007 7.64695 18.0084 7.97039 17.448C8.29398 16.8874 8.10195 16.1707 7.54148 15.8472L5.33406 14.5726C6.61883 12.6603 8.26719 11.0119 10.1795 9.72717L11.4539 11.9344C11.7775 12.4949 12.4942 12.6871 13.0547 12.3633C13.6152 12.0396 13.8072 11.323 13.4836 10.7625L12.2077 8.55256C14.228 7.55467 16.4653 6.9328 18.8281 6.77694V9.33077C18.8281 9.97795 19.3528 10.5026 20 10.5026C20.6472 10.5026 21.1719 9.97795 21.1719 9.33077V6.77694C23.5347 6.9328 25.772 7.55475 27.7923 8.55256L26.5164 10.7625C26.1928 11.323 26.3848 12.0397 26.9453 12.3633C27.5058 12.6871 28.2225 12.4949 28.5461 11.9344L29.8205 9.72717C31.7328 11.0119 33.3812 12.6602 34.6659 14.5726L32.4586 15.847C31.8981 16.1706 31.7061 16.8873 32.0297 17.4478C32.3532 18.0083 33.0698 18.2005 33.6305 17.8767L35.8406 16.6007C36.8385 18.621 37.4609 20.8583 37.6165 23.2212H35.0625C34.4153 23.2212 33.8906 23.7459 33.8906 24.3931C33.8906 25.0403 34.4153 25.565 35.0625 25.565H37.6158C37.4626 27.8698 36.8606 30.1233 35.8439 32.1874L33.6305 30.9095C33.0698 30.5857 32.3533 30.778 32.0297 31.3384C31.7061 31.899 31.8981 32.6157 32.4586 32.9392C32.4586 32.9392 35.7202 34.822 35.7204 34.8222C36.2803 35.1451 36.996 34.9538 37.3199 34.3944C39.0733 31.3664 40 27.9081 40 24.3932C40 13.3651 31.028 4.39319 20 4.39319Z" fill="#FFB120"/>
</svg>
