<svg width="30" height="30" viewBox="0 0 30 30" fill="none" xmlns="http://www.w3.org/2000/svg">
<g clip-path="url(#clip0_316_113)">
<path d="M7.05732 1.87957C7.36302 2.10885 7.63729 2.37054 7.91059 2.63671C7.96354 2.688 8.01649 2.73928 8.07104 2.79212C9.30719 4.00952 10.3958 5.49093 11.1918 7.03124C11.213 7.0715 11.2341 7.11176 11.2559 7.15324C11.7332 8.06531 12.0287 8.80515 11.7778 9.84374C11.4866 10.5973 10.9054 11.095 10.2663 11.5537C9.87587 11.8382 9.41466 12.2179 9.31684 12.7148C9.1847 14.1172 9.97927 15.4255 10.7817 16.5234C10.8169 16.5722 10.8169 16.5722 10.8528 16.6219C11.6535 17.7231 12.6324 18.7032 13.77 19.4531C13.8107 19.4804 13.8515 19.5077 13.8935 19.5359C14.432 19.8953 14.9826 20.2195 15.5607 20.5115C15.613 20.538 15.6652 20.5646 15.719 20.5919C16.2917 20.8738 16.8917 21.116 17.5273 20.9106C17.9837 20.714 18.234 20.366 18.5145 19.9692C19.02 19.2689 19.7052 18.6992 20.5668 18.5156C22.1307 18.2949 23.3891 19.1227 24.599 20.0047C24.7279 20.0983 24.8574 20.1908 24.9872 20.283C25.5783 20.7043 26.1549 21.1419 26.7247 21.5916C26.8203 21.667 26.9162 21.742 27.0122 21.817C27.1503 21.9258 27.2868 22.0362 27.4223 22.1484C27.4714 22.1889 27.5205 22.2294 27.5711 22.2711C28.2221 22.8297 28.7062 23.4946 28.7791 24.3674C28.8328 25.5855 28.1784 26.7213 27.4003 27.605C27.3106 27.7008 27.2202 27.796 27.1293 27.8906C27.0806 27.943 27.0319 27.9955 26.9817 28.0495C26.0024 29.0733 24.5565 29.9787 23.1027 30.0171C21.9941 30.0275 21.0186 29.5854 20.0285 29.1211C19.9936 29.1047 19.9586 29.0884 19.9226 29.0715C18.7173 28.5074 17.5386 27.9135 16.3968 27.2284C16.234 27.1307 16.0707 27.0339 15.9073 26.9373C15.3801 26.6248 14.8598 26.3063 14.3559 25.957C14.3136 25.9279 14.2714 25.8988 14.2278 25.8687C12.0132 24.3403 9.76198 22.6119 8.0065 20.5577C7.9127 20.4516 7.81468 20.3535 7.71284 20.2551C7.4923 20.0385 7.30253 19.8005 7.10905 19.5598C6.98035 19.4033 6.84678 19.2541 6.70942 19.1052C6.47269 18.8451 6.26189 18.5716 6.05368 18.2883C5.93989 18.1345 5.82363 17.9831 5.70565 17.8325C5.37384 17.408 5.06707 16.9684 4.7659 16.5217C4.69297 16.4137 4.61946 16.3061 4.5458 16.1986C-0.189719 9.24545 -0.189719 9.24545 0.445012 5.7676C0.701639 4.48461 1.43917 3.38367 2.49067 2.60375C3.79924 1.74176 5.58295 0.925008 7.05732 1.87957Z" fill="white"/>
<path d="M19.1607 0.234368C19.2104 0.245027 19.2601 0.255686 19.3113 0.266669C22.1928 0.907323 24.9274 2.69926 26.7193 5.03905C26.7891 5.12595 26.7891 5.12595 26.8603 5.21461C28.7077 7.52794 29.5675 10.3122 29.649 13.2422C29.6504 13.2876 29.6517 13.3331 29.6531 13.3799C29.683 14.4788 29.683 14.4788 29.3743 14.8755C29.1063 15.1532 28.8325 15.2432 28.4515 15.2563C28.0581 15.2434 27.7827 15.176 27.492 14.9048C27.2015 14.5082 27.1613 14.0326 27.1331 13.5571C26.9354 10.9265 26.1442 8.11272 24.3756 6.09374C24.3358 6.04684 24.2959 5.99993 24.2549 5.95161C22.3909 3.78961 19.3361 2.83329 16.6009 2.47466C16.5457 2.46736 16.4906 2.46005 16.4338 2.45252C16.3292 2.43907 16.2245 2.42646 16.1197 2.41487C15.7168 2.36455 15.3771 2.25879 15.0921 1.95922C14.8725 1.61665 14.8991 1.19236 14.9649 0.801537C15.0671 0.467131 15.2991 0.248909 15.5865 0.0585863C16.6093 -0.279931 18.1451 0.0145553 19.1607 0.234368Z" fill="white"/>
<path d="M20.8013 4.86329C21.3868 5.17797 21.9424 5.5368 22.4419 5.97657C22.4897 6.01796 22.5374 6.05935 22.5866 6.10199C23.9 7.26135 24.8793 8.64169 25.3936 10.3272C25.4076 10.3728 25.4216 10.4184 25.436 10.4654C25.6341 11.1531 25.6852 11.835 25.6831 12.5462C25.6829 12.6793 25.6843 12.8123 25.6858 12.9453C25.6859 13.0313 25.6859 13.1173 25.6859 13.2033C25.6861 13.2797 25.6862 13.3562 25.6864 13.435C25.6549 13.7488 25.5574 14.0391 25.3167 14.2566C25.0112 14.498 24.6198 14.5516 24.2384 14.5198C23.9452 14.4579 23.6614 14.3396 23.4912 14.0833C23.3307 13.7741 23.2735 13.4948 23.2366 13.1506C23.0162 11.4073 22.6097 9.50331 21.2701 8.26172C21.2364 8.22773 21.2027 8.19374 21.168 8.15873C20.02 7.0541 18.2362 6.61028 16.7107 6.35376C16.2477 6.2707 15.817 6.16148 15.5206 5.77149C15.3286 5.41213 15.365 4.99505 15.4366 4.60534C15.5312 4.29521 15.7266 4.09881 15.9966 3.92579C17.2869 3.30304 19.6169 4.27162 20.8013 4.86329Z" fill="white"/>
<path d="M20.3908 9.08203C21.2622 9.93133 21.9061 11.0455 21.9346 12.2802C21.9354 12.3576 21.9354 12.3576 21.9363 12.4365C21.9371 12.4857 21.9379 12.5349 21.9387 12.5856C21.9352 13.0551 21.8171 13.4498 21.4918 13.8C21.2159 14.0282 20.9058 14.0794 20.5556 14.0588C20.1814 14.0044 19.9244 13.8223 19.6928 13.5228C19.5198 13.2379 19.4668 12.9032 19.403 12.5803C19.2274 11.7042 18.9537 11.1429 18.1922 10.6306C17.8522 10.4344 17.5231 10.337 17.1425 10.2576C16.61 10.138 16.206 10.0163 15.8791 9.55078C15.7449 9.14819 15.8084 8.78009 15.9766 8.39653C16.1294 8.13346 16.3418 7.97826 16.6042 7.83325C18.0304 7.45972 19.3587 8.13745 20.3908 9.08203Z" fill="white"/>
</g>
<defs>
<clipPath id="clip0_316_113">
<rect width="30" height="30" fill="white"/>
</clipPath>
</defs>
</svg>
