<svg width="40" height="40" viewBox="0 0 40 40" fill="none" xmlns="http://www.w3.org/2000/svg">
<g clip-path="url(#clip0_298_370)">
<path d="M10.5454 16.0626C10.7029 16.0624 10.8603 16.0622 11.0177 16.0619C11.3461 16.0616 11.6745 16.0621 12.0029 16.0632C12.4215 16.0645 12.84 16.0637 13.2586 16.0623C13.5832 16.0615 13.9078 16.0618 14.2325 16.0624C14.3867 16.0625 14.541 16.0623 14.6952 16.0618C15.7504 16.0588 16.699 16.1101 17.652 16.6113C17.7046 16.6384 17.7571 16.6655 17.8113 16.6935C18.5746 17.097 19.2395 17.5855 19.8638 18.1836C20.4812 18.7627 21.2828 19.4617 22.1462 19.4642C22.224 19.4646 22.224 19.4646 22.3033 19.465C22.4162 19.4656 22.5291 19.466 22.6419 19.4663C22.8214 19.4668 23.0008 19.4681 23.1803 19.4695C23.6907 19.4736 24.201 19.4773 24.7114 19.4786C25.0236 19.4794 25.3358 19.4817 25.6481 19.4849C25.7663 19.4859 25.8846 19.4863 26.0029 19.4861C27.0732 19.4849 27.9368 19.6965 28.8288 20.3125C28.8767 20.345 28.9247 20.3775 28.9741 20.411C29.7121 20.9747 30.2384 21.9289 30.4694 22.8125C30.4789 23.0764 30.4789 23.0764 30.4694 23.2812C30.6195 23.2889 30.7695 23.2965 30.9195 23.3041C31.1915 23.39 31.3072 23.5287 31.485 23.75C31.543 23.9738 31.5435 24.1907 31.5424 24.4211C31.5435 24.5174 31.5435 24.5174 31.5447 24.6157C31.5456 24.7512 31.5456 24.8866 31.5445 25.0221C31.5436 25.2287 31.5477 25.4348 31.5522 25.6413C31.5525 25.7733 31.5525 25.9053 31.5522 26.0373C31.5538 26.0986 31.5554 26.1599 31.557 26.223C31.5515 26.4877 31.5384 26.6537 31.367 26.8624C31.0192 27.1704 30.7555 27.2758 30.2878 27.2732C30.2075 27.273 30.1272 27.2727 30.0445 27.2725C29.9607 27.2718 29.877 27.2712 29.7907 27.2705C29.7061 27.2701 29.6214 27.2698 29.5342 27.2694C29.3251 27.2685 29.116 27.2672 28.9069 27.2656C28.9094 27.3594 28.912 27.4531 28.9145 27.5497C28.9141 27.8352 28.876 28.0721 28.7848 28.3447C28.7622 28.4161 28.7395 28.4875 28.7162 28.5611C28.5336 28.9615 28.2897 29.3208 28.0475 29.6875C28.1244 29.6886 28.2013 29.6898 28.2805 29.6909C28.5657 29.6955 28.8509 29.7015 29.1362 29.708C29.2596 29.7106 29.383 29.7128 29.5065 29.7145C29.684 29.7172 29.8614 29.7212 30.0388 29.7256C30.094 29.7261 30.1492 29.7266 30.206 29.7271C30.4348 29.734 30.5892 29.7392 30.7776 29.8758C30.8806 30.031 30.8914 30.1271 30.8893 30.3125C30.8899 30.3656 30.8905 30.4188 30.8912 30.4736C30.8494 30.6769 30.7918 30.7347 30.6257 30.8593C30.406 30.8887 30.406 30.8887 30.1326 30.8888C30.0822 30.8892 30.0317 30.8895 29.9797 30.8899C29.8095 30.8907 29.6393 30.8899 29.469 30.8891C29.3462 30.8894 29.2234 30.8898 29.1006 30.8902C28.7622 30.8912 28.4238 30.8907 28.0854 30.89C27.7208 30.8895 27.3563 30.8903 26.9917 30.8909C26.2771 30.892 25.5625 30.8917 24.8479 30.8911C24.2673 30.8905 23.6868 30.8905 23.1062 30.8907C22.9824 30.8908 22.9824 30.8908 22.8562 30.8908C22.6886 30.8909 22.521 30.891 22.3534 30.891C20.7804 30.8917 19.2074 30.8909 17.6345 30.8897C16.2837 30.8886 14.9329 30.8888 13.5821 30.8899C12.0149 30.8912 10.4477 30.8917 8.8805 30.8909C8.7135 30.8909 8.5465 30.8908 8.37951 30.8907C8.29733 30.8907 8.21516 30.8906 8.1305 30.8906C7.55037 30.8904 6.97025 30.8907 6.39013 30.8913C5.68352 30.8919 4.97691 30.8918 4.2703 30.8905C3.90951 30.8899 3.54874 30.8897 3.18795 30.8904C2.85805 30.8911 2.52816 30.8908 2.19826 30.8895C2.07855 30.8892 1.95884 30.8894 1.83914 30.8899C1.67709 30.8907 1.51512 30.8899 1.35309 30.8888C1.26288 30.8888 1.17268 30.8888 1.07974 30.8887C0.860041 30.8593 0.860041 30.8593 0.713983 30.7498C0.60391 30.5942 0.594217 30.5019 0.596369 30.3125C0.595765 30.2593 0.595161 30.2061 0.594538 30.1513C0.635277 29.9532 0.703644 29.8917 0.860041 29.7656C1.01576 29.7344 1.01576 29.7344 1.19503 29.7318C1.26227 29.7303 1.32951 29.7287 1.39878 29.7271C1.50719 29.7264 1.50719 29.7264 1.61779 29.7256C1.69203 29.7242 1.76626 29.7228 1.84274 29.7214C2.07995 29.7171 2.31715 29.7145 2.55438 29.7119C2.71516 29.7093 2.87593 29.7066 3.03671 29.7038C3.43093 29.6972 3.82516 29.6919 4.21942 29.6875C4.18209 29.6415 4.14477 29.5956 4.10631 29.5483C3.61786 28.9361 3.61786 28.9361 3.48699 28.5693C3.45225 28.4755 3.45225 28.4755 3.4168 28.3798C3.39807 28.3215 3.37934 28.2632 3.36004 28.2031C3.33678 28.1338 3.33678 28.1338 3.31304 28.063C3.26512 27.7976 3.28018 27.5352 3.28192 27.2656C3.20668 27.2672 3.13145 27.2689 3.05393 27.2706C2.77279 27.2762 2.49165 27.2798 2.21046 27.2828C2.08915 27.2843 1.96784 27.2865 1.84654 27.2892C1.6714 27.293 1.49634 27.2947 1.32116 27.2961C1.26759 27.2977 1.21402 27.2993 1.15883 27.301C0.732419 27.3012 0.499068 27.1895 0.156916 26.9531C-0.106261 26.5583 -0.0262791 26.088 -0.023748 25.625C-0.0236056 25.5721 -0.0234632 25.5192 -0.0233165 25.4647C-0.0152454 23.6887 0.224718 21.7328 1.49206 20.3735C2.00971 19.8908 2.64164 19.5209 3.36492 19.5166C3.47852 19.5238 3.47852 19.5238 3.59442 19.5312C3.61133 19.4769 3.62825 19.4227 3.64569 19.3667C3.77808 19.0816 3.96671 18.8734 4.18035 18.6474C4.2436 18.5802 4.2436 18.5802 4.30813 18.5116C5.29703 17.4773 6.51835 16.7325 7.89129 16.3281C7.95628 16.3083 8.02127 16.2885 8.08822 16.2681C8.90496 16.0488 9.7052 16.0596 10.5454 16.0626ZM4.9616 19.5849C4.77027 19.8033 4.65074 20.0006 4.53192 20.2636C4.4428 20.4187 4.4428 20.4187 4.29754 20.5468C4.03834 20.6165 3.78833 20.6601 3.52335 20.6978C2.96186 20.7815 2.57853 20.9694 2.20922 21.412C2.08527 21.5874 1.97871 21.7648 1.87567 21.9531C1.84696 22.0033 1.81826 22.0534 1.78869 22.1051C1.27465 23.1173 1.15579 24.3943 1.16766 25.5127C1.16927 25.7302 1.17088 25.9477 1.17254 26.1718C1.89442 26.1718 2.61629 26.1718 3.36004 26.1718C3.45189 25.9785 3.54373 25.7851 3.63836 25.5859C4.04607 24.7605 4.4784 24.2467 5.31317 23.8281C5.3746 23.7957 5.43603 23.7632 5.49932 23.7298C6.31675 23.3634 7.40902 23.3837 8.2575 23.6426C8.66897 23.8077 9.02899 24.0213 9.37567 24.2968C9.44772 24.3529 9.44772 24.3529 9.52124 24.4101C10.0273 24.8555 10.3366 25.539 10.5475 26.1718C14.2085 26.1718 17.8694 26.1718 21.6413 26.1718C21.8475 25.7593 22.0538 25.3468 22.2663 24.9218C22.6411 24.4083 23.0281 24.1121 23.5944 23.8281C23.6558 23.7957 23.7173 23.7632 23.7806 23.7298C24.5729 23.3747 25.6745 23.3644 26.4948 23.6426C26.6236 23.7004 26.7507 23.7622 26.8757 23.8281C26.9761 23.8778 26.9761 23.8778 27.0786 23.9285C27.9803 24.4168 28.5082 25.2102 28.8288 26.1718C29.3444 26.1718 29.86 26.1718 30.3913 26.1718C30.3913 25.5789 30.3913 24.9859 30.3913 24.375C30.1335 24.3234 29.8757 24.2718 29.61 24.2187C29.3931 24.0018 29.3955 23.768 29.3513 23.4765C29.1883 22.5324 28.8001 21.7646 28.0091 21.1856C27.1385 20.6391 26.2636 20.6145 25.2632 20.6118C25.0976 20.6112 24.932 20.61 24.7664 20.6086C24.2959 20.6045 23.8255 20.6007 23.355 20.5995C23.066 20.5987 22.7771 20.5964 22.4881 20.5932C22.3787 20.5922 22.2694 20.5918 22.16 20.592C21.3365 20.593 20.8248 20.4909 20.1813 19.956C20.1155 19.9018 20.0496 19.8477 19.9817 19.7918C19.8293 19.6627 19.6776 19.533 19.5264 19.4024C18.764 18.7449 17.9856 18.1577 17.0856 17.7002C17.0352 17.6744 16.9848 17.6486 16.9328 17.622C16.0001 17.1657 15.0062 17.1749 13.9872 17.1743C13.8738 17.1741 13.7605 17.1738 13.6471 17.1736C13.4101 17.1731 13.1732 17.1729 12.9362 17.173C12.6362 17.173 12.3362 17.1719 12.0362 17.1706C11.8021 17.1697 11.5679 17.1696 11.3338 17.1696C11.2234 17.1695 11.113 17.1692 11.0026 17.1686C8.61138 17.1565 6.60459 17.8037 4.9616 19.5849ZM5.07879 25.3906C4.54325 26.1277 4.35894 26.8255 4.45379 27.7343C4.64352 28.458 5.15109 28.9997 5.78253 29.3744C6.41154 29.6926 7.12986 29.7114 7.815 29.5556C8.4999 29.3028 8.97676 28.8567 9.29754 28.2031C9.55211 27.5636 9.5673 26.7938 9.3366 26.1426C9.01574 25.4659 8.5013 24.9772 7.81317 24.6875C6.85332 24.3736 5.74393 24.6295 5.07879 25.3906ZM23.2224 25.6265C22.7058 26.2807 22.6687 26.9165 22.735 27.7343C22.8789 28.4063 23.2952 28.9591 23.8584 29.3466C24.535 29.7356 25.3077 29.82 26.0712 29.6368C26.8174 29.3316 27.311 28.7615 27.6569 28.0468C27.8746 27.4164 27.8136 26.5554 27.5309 25.9591C27.1511 25.3354 26.6515 24.87 25.9501 24.6402C24.7945 24.4283 23.9765 24.7621 23.2224 25.6265ZM10.6257 27.2656C10.5483 27.6781 10.471 28.0906 10.3913 28.5156C10.2413 28.8249 10.1051 29.0912 9.92254 29.375C9.80653 29.5683 9.80653 29.5683 9.68817 29.7656C13.9163 29.7656 18.1444 29.7656 22.5007 29.7656C22.346 29.4949 22.346 29.4949 22.1882 29.2187C21.8348 28.5627 21.6569 28.0153 21.5632 27.2656C17.9538 27.2656 14.3444 27.2656 10.6257 27.2656Z" fill="#FFB120"/>
<path d="M34.0609 4.1884C34.1794 4.18729 34.1794 4.18729 34.3003 4.18616C34.4281 4.18687 34.4281 4.18687 34.5585 4.18759C34.646 4.18737 34.7336 4.18715 34.8238 4.18692C35.009 4.18676 35.1942 4.18719 35.3794 4.18817C35.6633 4.18942 35.9472 4.18818 36.2312 4.18668C36.4109 4.18683 36.5906 4.18713 36.7704 4.18759C36.8556 4.18712 36.9408 4.18665 37.0286 4.18616C37.1076 4.1869 37.1866 4.18763 37.268 4.1884C37.3723 4.18868 37.3723 4.18868 37.4788 4.18896C37.7009 4.22613 37.7561 4.27451 37.891 4.4531C37.9201 4.65102 37.9201 4.65102 37.9198 4.89311C37.9203 4.98529 37.9208 5.07747 37.9213 5.17244C37.9206 5.2742 37.9199 5.37596 37.9192 5.4808C37.9193 5.5896 37.9195 5.6984 37.9198 5.8072C37.9203 6.10686 37.9194 6.4065 37.9182 6.70616C37.9172 7.02904 37.9175 7.35193 37.9177 7.67481C37.9178 8.23446 37.9171 8.7941 37.9158 9.35374C37.9139 10.1629 37.9133 10.972 37.913 11.7812C37.9125 13.0939 37.9109 14.4066 37.9087 15.7194C37.9065 16.9947 37.9049 18.2701 37.9039 19.5455C37.9038 19.6634 37.9038 19.6634 37.9037 19.7836C37.9034 20.1778 37.9031 20.572 37.9028 20.9662C37.9004 24.2379 37.8962 27.5096 37.891 30.7812C37.9466 30.78 38.0021 30.7788 38.0594 30.7775C38.3109 30.7726 38.5623 30.7696 38.8139 30.7666C38.9451 30.7636 38.9451 30.7636 39.0789 30.7606C39.1627 30.7599 39.2466 30.7591 39.333 30.7583C39.4103 30.7571 39.4876 30.7559 39.5673 30.7546C39.766 30.7812 39.766 30.7812 39.9084 30.8874C40.0437 31.076 40.0302 31.2241 40.0307 31.4544C40.0314 31.5444 40.0322 31.6343 40.0329 31.727C40.0322 31.8728 40.0322 31.8728 40.0315 32.0215C40.0318 32.171 40.0318 32.171 40.0322 32.3235C40.0323 32.5345 40.032 32.7454 40.0309 32.9564C40.0296 33.2267 40.0304 33.497 40.0318 33.7673C40.0328 34.0252 40.0321 34.2831 40.0315 34.541C40.032 34.6382 40.0325 34.7353 40.0329 34.8354C40.0318 34.9704 40.0318 34.9704 40.0307 35.108C40.0305 35.1873 40.0303 35.2665 40.0301 35.3482C39.9949 35.5836 39.9505 35.637 39.766 35.7812C39.6097 35.8107 39.6097 35.8107 39.428 35.811C39.359 35.8116 39.29 35.8123 39.2189 35.813C39.1434 35.8125 39.0679 35.812 38.9901 35.8116C38.9104 35.812 38.8308 35.8124 38.7487 35.8128C38.4847 35.8138 38.2209 35.8131 37.9569 35.8124C37.7739 35.8125 37.5909 35.8127 37.4079 35.813C37.024 35.8134 36.6403 35.8129 36.2564 35.8118C35.7638 35.8104 35.2713 35.8112 34.7786 35.8126C34.4007 35.8135 34.0227 35.8132 33.6447 35.8126C33.463 35.8124 33.2813 35.8126 33.0997 35.8132C32.846 35.8138 32.5924 35.8129 32.3388 35.8116C32.2633 35.812 32.1878 35.8125 32.11 35.813C32.041 35.8123 31.972 35.8117 31.9009 35.811C31.8109 35.8109 31.8109 35.8109 31.7192 35.8107C31.52 35.7731 31.4505 35.7061 31.3285 35.5468C31.2987 35.3482 31.2987 35.3482 31.2982 35.108C31.2974 35.0181 31.2967 34.9281 31.2959 34.8354C31.2964 34.7383 31.2969 34.6411 31.2974 34.541C31.2971 34.4413 31.2969 34.3416 31.2967 34.2389C31.2965 34.0279 31.2969 33.817 31.2979 33.6061C31.2993 33.3357 31.2985 33.0655 31.2971 32.7951C31.2961 32.5372 31.2968 32.2793 31.2974 32.0215C31.2969 31.9243 31.2964 31.8271 31.2959 31.727C31.297 31.5921 31.297 31.5921 31.2982 31.4544C31.2984 31.3752 31.2985 31.2959 31.2987 31.2142C31.3285 31.0156 31.3285 31.0156 31.5629 30.7812C32.1816 30.7812 32.8004 30.7812 33.4379 30.7812C33.4379 25.1867 33.4379 19.5922 33.4379 13.8281C33.0254 13.8281 32.6129 13.8281 32.1879 13.8281C32.1915 13.9355 32.1951 14.0428 32.1989 14.1534C32.2018 14.2956 32.2046 14.4378 32.2074 14.5801C32.21 14.6506 32.2126 14.7212 32.2153 14.794C32.2219 15.2421 32.1893 15.5132 31.8754 15.8593C31.4532 16.2229 31.0958 16.2166 30.5648 16.2123C30.439 16.2131 30.439 16.2131 30.3106 16.2139C30.0338 16.2153 29.7571 16.2144 29.4804 16.2134C29.2877 16.2136 29.0951 16.2139 28.9025 16.2143C28.499 16.2147 28.0955 16.214 27.692 16.2126C27.175 16.2108 26.658 16.2118 26.141 16.2137C25.7433 16.2148 25.3456 16.2145 24.9479 16.2137C24.7572 16.2135 24.5666 16.2137 24.376 16.2144C24.1095 16.2152 23.8431 16.214 23.5766 16.2123C23.4979 16.2129 23.4192 16.2135 23.3382 16.2142C22.8908 16.2088 22.611 16.173 22.266 15.8593C21.869 15.4363 21.9092 14.9969 21.9131 14.4484C21.9125 14.3538 21.912 14.2592 21.9114 14.1618C21.9103 13.9034 21.9105 13.645 21.9115 13.3865C21.9123 13.1156 21.9116 12.8446 21.9111 12.5736C21.9105 12.1186 21.9113 11.6636 21.9128 11.2087C21.9145 10.6833 21.9139 10.158 21.9122 9.63262C21.9108 9.18084 21.9106 8.72907 21.9114 8.27729C21.9119 8.00777 21.9119 7.73827 21.9109 7.46876C21.9098 7.16823 21.9113 6.86773 21.9131 6.5672C21.9124 6.47831 21.9118 6.38941 21.9111 6.29783C21.9162 5.8289 21.9301 5.51413 22.266 5.15622C22.6754 4.78358 23.0566 4.79824 23.5825 4.80081C23.667 4.80001 23.7516 4.79921 23.8387 4.79839C24.1176 4.79622 24.3964 4.79637 24.6754 4.79673C24.8696 4.79612 25.0638 4.79544 25.258 4.7947C25.6648 4.79353 26.0716 4.79358 26.4785 4.7944C26.9995 4.79545 27.5205 4.79266 28.0415 4.78903C28.4425 4.78673 28.8435 4.78659 29.2445 4.78708C29.4366 4.787 29.6287 4.78618 29.8208 4.78461C30.0895 4.78268 30.3581 4.78374 30.6269 4.78555C30.706 4.78435 30.7851 4.78316 30.8666 4.78193C31.3291 4.78881 31.5891 4.85882 31.9269 5.18146C32.14 5.44805 32.2075 5.65821 32.2031 5.99729C32.2024 6.10152 32.2024 6.10152 32.2016 6.20786C32.1996 6.31572 32.1996 6.31572 32.1976 6.42575C32.1969 6.49887 32.1962 6.57198 32.1955 6.64731C32.1937 6.82737 32.1909 7.00743 32.1879 7.18747C32.6004 7.18747 33.0129 7.18747 33.4379 7.18747C33.4352 6.9928 33.4324 6.79814 33.4296 6.59757C33.4278 6.40908 33.4264 6.22059 33.425 6.0321C33.4238 5.90107 33.4222 5.77005 33.4202 5.63903C33.4174 5.45072 33.416 5.26246 33.415 5.07413C33.4138 5.01553 33.4126 4.95693 33.4113 4.89655C33.4112 4.49053 33.4112 4.49053 33.5324 4.32045C33.7174 4.18586 33.8331 4.18901 34.0609 4.1884ZM34.5316 5.31247C34.5316 13.7172 34.5316 22.1218 34.5316 30.7812C35.2793 30.7812 36.0269 30.7812 36.7973 30.7812C36.7973 22.3765 36.7973 13.9718 36.7973 5.31247C36.0496 5.31247 35.3019 5.31247 34.5316 5.31247ZM23.0473 6.09372C23.0235 6.25652 23.0235 6.25652 23.0274 6.44661C23.027 6.52088 23.0265 6.59515 23.0261 6.67167C23.0264 6.75341 23.0267 6.83516 23.027 6.91938C23.0268 7.00525 23.0265 7.09113 23.0262 7.17961C23.0255 7.46463 23.026 7.74963 23.0265 8.03464C23.0264 8.23197 23.0262 8.4293 23.026 8.62663C23.0258 9.04066 23.0261 9.45468 23.0269 9.86871C23.0277 10.3477 23.0275 10.8267 23.0266 11.3058C23.0258 11.7661 23.0259 12.2265 23.0263 12.6868C23.0264 12.8829 23.0263 13.0791 23.026 13.2752C23.0256 13.5489 23.0262 13.8225 23.027 14.0962C23.0267 14.1779 23.0264 14.2597 23.0261 14.3439C23.0265 14.4182 23.027 14.4924 23.0274 14.569C23.0275 14.6337 23.0275 14.6985 23.0276 14.7652C23.0332 14.9398 23.0332 14.9398 23.2035 15.0781C23.3497 15.1013 23.3497 15.1013 23.5189 15.0969C23.5848 15.0971 23.6508 15.0973 23.7187 15.0975C23.8275 15.0967 23.8275 15.0967 23.9384 15.0958C24.0146 15.0959 24.0908 15.0959 24.1694 15.0959C24.4222 15.0958 24.675 15.0946 24.9277 15.0934C25.1027 15.0931 25.2776 15.0928 25.4525 15.0927C25.9136 15.0921 26.3747 15.0906 26.8358 15.0888C27.306 15.0872 27.7763 15.0865 28.2465 15.0857C29.1697 15.0841 30.0928 15.0814 31.016 15.0781C31.1093 14.8915 31.104 14.7773 31.104 14.569C31.1043 14.4947 31.1045 14.4204 31.1047 14.3439C31.1046 14.2622 31.1044 14.1804 31.1042 14.0962C31.1044 14.0103 31.1045 13.9244 31.1047 13.836C31.105 13.5509 31.1048 13.2659 31.1045 12.9809C31.1046 12.7836 31.1046 12.5863 31.1047 12.3889C31.1048 11.9749 31.1047 11.5609 31.1043 11.1469C31.1039 10.6678 31.104 10.1888 31.1045 9.70982C31.1049 9.24946 31.1048 8.78911 31.1046 8.32876C31.1045 8.13264 31.1046 7.93652 31.1048 7.7404C31.105 7.46672 31.1047 7.19305 31.1042 6.91938C31.1045 6.79676 31.1045 6.79676 31.1047 6.67167C31.1044 6.56027 31.1044 6.56027 31.104 6.44661C31.104 6.38186 31.104 6.3171 31.104 6.25038C31.104 6.08806 31.104 6.08806 31.016 5.93747C30.0001 5.93386 28.9842 5.93108 27.9682 5.92938C27.4965 5.92856 27.0248 5.92745 26.5531 5.92569C26.0983 5.92399 25.6434 5.92305 25.1885 5.92265C25.0146 5.92236 24.8407 5.92179 24.6669 5.92095C24.424 5.91982 24.1812 5.91966 23.9384 5.91973C23.8659 5.91917 23.7934 5.91861 23.7187 5.91803C23.6528 5.91825 23.5868 5.91846 23.5189 5.91868C23.4614 5.91854 23.4039 5.9184 23.3447 5.91825C23.1838 5.92564 23.1838 5.92564 23.0473 6.09372ZM32.1879 8.28122C32.1879 9.75075 32.1879 11.2203 32.1879 12.7343C32.6004 12.7343 33.0129 12.7343 33.4379 12.7343C33.4379 11.2648 33.4379 9.79529 33.4379 8.28122C33.0254 8.28122 32.6129 8.28122 32.1879 8.28122ZM32.4223 31.875C32.4223 32.8031 32.4223 33.7312 32.4223 34.6875C34.5621 34.6875 36.7019 34.6875 38.9066 34.6875C38.9066 33.7593 38.9066 32.8312 38.9066 31.875C36.7668 31.875 34.6269 31.875 32.4223 31.875Z" fill="#FFB120"/>
<path d="M8.98151 17.9876C9.06057 17.986 9.13963 17.9845 9.22108 17.9829C9.483 17.9784 9.74483 17.9768 10.0068 17.9757C10.1894 17.9741 10.372 17.9724 10.5546 17.9707C10.938 17.9676 11.3214 17.9663 11.7048 17.9659C12.1939 17.965 12.6826 17.9581 13.1716 17.9496C13.5492 17.944 13.9268 17.9428 14.3045 17.9427C14.4846 17.9419 14.6646 17.9397 14.8447 17.9358C16.4703 17.9036 16.4703 17.9036 17.1304 18.5048C17.2865 18.6598 17.4316 18.8198 17.5782 18.9843C17.6838 19.0789 17.7907 19.1723 17.9002 19.2623C17.9865 19.3373 18.0729 19.4123 18.1592 19.4873C18.2571 19.5722 18.355 19.6571 18.4528 19.7421C18.5016 19.7844 18.5504 19.8268 18.6006 19.8704C18.7526 20.0022 18.9048 20.1337 19.0571 20.2652C19.4987 20.6466 19.9397 21.0285 20.376 21.416C20.4362 21.4693 20.4963 21.5227 20.5582 21.5777C20.7032 21.7187 20.7032 21.7187 20.8594 21.9531C20.8448 22.2314 20.8448 22.2314 20.7813 22.5C20.4918 22.693 20.271 22.6785 19.936 22.6771C19.8417 22.6776 19.8417 22.6776 19.7455 22.6782C19.5341 22.6792 19.3227 22.679 19.1112 22.6789C18.96 22.6794 18.8087 22.6799 18.6574 22.6805C18.246 22.6819 17.8345 22.6822 17.4231 22.6823C17.08 22.6825 16.7369 22.6831 16.3938 22.6836C15.5847 22.6849 14.7757 22.6853 13.9666 22.6852C13.1309 22.6851 12.2952 22.6867 11.4595 22.6892C10.7428 22.6912 10.0261 22.6921 9.30942 22.692C8.88102 22.6919 8.45262 22.6924 8.02422 22.694C7.62151 22.6955 7.21883 22.6955 6.81613 22.6944C6.66807 22.6942 6.52001 22.6946 6.37196 22.6956C6.17035 22.6968 5.96883 22.696 5.76721 22.6948C5.70817 22.6956 5.64913 22.6964 5.5883 22.6973C5.3321 22.6939 5.19365 22.6916 5.00345 22.5114C4.88793 22.2737 4.8794 22.1371 4.92194 21.875C5.0514 21.6886 5.17399 21.5362 5.32722 21.372C5.4139 21.2752 5.50057 21.1784 5.58723 21.0815C5.63229 21.0319 5.67736 20.9824 5.72379 20.9313C5.94078 20.6912 6.15119 20.4454 6.36237 20.2001C6.44676 20.1028 6.53119 20.0054 6.61567 19.9081C6.65794 19.8594 6.70021 19.8107 6.74377 19.7605C6.88044 19.6031 7.01722 19.4459 7.154 19.2886C7.22252 19.2097 7.22252 19.2097 7.29242 19.1293C7.37947 19.0291 7.46658 18.9289 7.55376 18.8289C7.59335 18.7833 7.63293 18.7377 7.67371 18.6907C7.70816 18.6512 7.74261 18.6116 7.7781 18.5708C7.90101 18.4333 7.90101 18.4333 8.00534 18.2375C8.30402 17.9497 8.58046 17.988 8.98151 17.9876ZM8.17216 19.7802C8.11018 19.889 8.11018 19.889 8.04694 20C7.92249 20.1485 7.92249 20.1485 7.80677 20.267C7.70571 20.3741 7.70571 20.3741 7.60261 20.4834C7.50064 20.5914 7.50064 20.5914 7.39661 20.7016C7.15438 20.9749 6.93796 21.2703 6.71882 21.5625C8.47194 21.5625 10.2251 21.5625 12.0313 21.5625C12.0313 20.7632 12.0313 19.964 12.0313 19.1406C11.5764 19.1207 11.123 19.1037 10.668 19.0934C10.5136 19.0891 10.3593 19.0832 10.205 19.0757C9.00591 18.9978 9.00591 18.9978 8.17216 19.7802ZM13.1251 19.1406C13.1251 19.9398 13.1251 20.739 13.1251 21.5625C14.9298 21.5625 16.7344 21.5625 18.5938 21.5625C18.0153 20.8875 17.3851 20.3361 16.6907 19.7842C16.4844 19.6093 16.4844 19.6093 16.3856 19.4913C16.2284 19.3068 16.1012 19.1636 15.8624 19.0994C15.6857 19.0865 15.5146 19.0878 15.3376 19.0948C15.2423 19.0958 15.2423 19.0958 15.1452 19.0968C14.9437 19.0994 14.7425 19.1053 14.5411 19.1113C14.404 19.1136 14.2668 19.1158 14.1297 19.1177C13.7947 19.1224 13.4601 19.1316 13.1251 19.1406Z" fill="#FFB120"/>
<path d="M26.5325 6.44954C26.6934 6.4502 26.854 6.44797 27.0149 6.44548C27.7159 6.44582 28.1804 6.4987 28.7088 6.96748C28.7581 7.02559 28.8075 7.0837 28.8583 7.14357C28.9341 7.23043 28.9341 7.23043 29.0115 7.31904C29.469 7.95587 29.3697 8.85926 29.2978 9.60939C29.1602 10.137 28.8889 10.4839 28.4384 10.7813C27.9847 11.0199 27.6229 11.0453 27.1151 11.0303C27.0126 11.0287 27.0126 11.0287 26.9081 11.0271C26.7411 11.0243 26.5741 11.0201 26.4071 11.0156C26.409 11.1629 26.409 11.1629 26.4108 11.3131C26.4151 11.677 26.4178 12.0408 26.42 12.4047C26.4212 12.5622 26.4228 12.7198 26.4248 12.8773C26.4277 13.1036 26.429 13.3299 26.43 13.5562C26.4312 13.6268 26.4324 13.6974 26.4337 13.7701C26.4337 13.8686 26.4337 13.8686 26.4337 13.9691C26.4343 14.0268 26.4348 14.0846 26.4353 14.1441C26.3991 14.3403 26.3274 14.4092 26.1728 14.5313C26.0214 14.5624 26.0214 14.5624 25.8603 14.5606C25.7805 14.5615 25.7805 14.5615 25.6991 14.5624C25.5016 14.5218 25.4396 14.4523 25.3134 14.2969C25.2839 14.1504 25.2839 14.1504 25.2836 13.9826C25.283 13.9188 25.2823 13.8551 25.2816 13.7894C25.2821 13.7198 25.2826 13.6501 25.2831 13.5784C25.2826 13.5048 25.2822 13.4312 25.2818 13.3554C25.2808 13.1118 25.2815 12.8682 25.2823 12.6245C25.2821 12.4555 25.2819 12.2865 25.2816 12.1175C25.2812 11.7631 25.2817 11.4087 25.2828 11.0544C25.2842 10.5996 25.2834 10.1448 25.282 9.69006C25.2811 9.34102 25.2814 8.99198 25.282 8.64294C25.2822 8.47523 25.282 8.30752 25.2814 8.13982C25.2808 7.90562 25.2817 7.67149 25.2831 7.4373C25.2826 7.36765 25.2821 7.298 25.2816 7.22624C25.2823 7.16249 25.2829 7.09874 25.2836 7.03306C25.2837 6.9777 25.2838 6.92234 25.2839 6.8653C25.3986 6.29542 26.0903 6.44677 26.5325 6.44954ZM26.4071 7.57814C26.4071 8.35157 26.4071 9.12501 26.4071 9.92189C27.2282 9.96163 27.2282 9.96163 27.8915 9.68751C28.1573 9.41286 28.1954 9.17592 28.2235 8.80372C28.1959 8.39574 28.0768 8.1001 27.8183 7.78322C27.4041 7.45689 26.929 7.57814 26.4071 7.57814Z" fill="#FFB120"/>
<path d="M7.85602 25.3662C8.32253 25.6517 8.6769 26.0319 8.8277 26.5625C8.88868 27.1255 8.93091 27.7267 8.62476 28.2257C8.2494 28.6837 7.8474 29.0268 7.24415 29.0887C6.59856 29.0959 6.13199 29.0746 5.64747 28.6267C5.13097 28.0687 5.0313 27.576 5.05115 26.8262C5.11264 26.2156 5.39536 25.8933 5.85132 25.5035C6.40844 25.1197 7.24381 25.0776 7.85602 25.3662ZM6.24958 26.875C6.19617 27.2132 6.20833 27.3586 6.39606 27.6465C6.60796 27.8584 6.67633 27.8859 6.97712 27.9199C7.2705 27.9126 7.2705 27.9126 7.4947 27.7393C7.68284 27.4599 7.71405 27.2965 7.69306 26.9656C7.62917 26.676 7.51039 26.5646 7.2652 26.4063C6.76882 26.2762 6.50877 26.4295 6.24958 26.875Z" fill="#FFB120"/>
<path d="M26.1273 25.3516C26.5825 25.6266 26.9509 26.0538 27.1087 26.5625C27.1748 27.1986 27.1782 27.8232 26.7962 28.3594C26.4286 28.7585 26.0769 29.032 25.5252 29.0887C24.8598 29.0961 24.3997 29.0717 23.9084 28.6038C23.3982 28.0519 23.3138 27.5939 23.3349 26.849C23.387 26.2217 23.6649 25.9032 24.1324 25.5035C24.6843 25.1233 25.5145 25.08 26.1273 25.3516ZM24.6917 26.5576C24.5036 26.837 24.4726 27.0004 24.4931 27.3312C24.5567 27.6174 24.681 27.7322 24.9212 27.8906C25.2574 27.9446 25.4064 27.9309 25.6927 27.7441C25.9056 27.5312 25.9327 27.466 25.9613 27.1631C25.9331 26.83 25.8572 26.7172 25.6244 26.4844C25.2868 26.3156 24.9996 26.3546 24.6917 26.5576Z" fill="#FFB120"/>
</g>
<defs>
<clipPath id="clip0_298_370">
<rect width="40" height="40" fill="white"/>
</clipPath>
</defs>
</svg>
