<svg width="30" height="30" viewBox="0 0 30 30" fill="none" xmlns="http://www.w3.org/2000/svg">
<g clip-path="url(#clip0_373_477)">
<path d="M27.8537 12.044C28.5189 11.8934 30 11.1563 30 9.35152C30 7.82879 28.7691 6.58982 27.2374 6.58982C26.1473 6.58982 25.1447 6.96828 24.3516 7.59939V7.46873C24.3516 4.38424 21.8562 1.88281 18.7656 1.88281H11.2344C8.14939 1.88281 5.64844 4.37814 5.64844 7.46873V7.59957C4.8552 6.96834 3.85219 6.58982 2.7617 6.58982C1.23621 6.58982 0 7.82369 0 9.35152C0 11.1558 1.48037 11.8931 2.14635 12.044C0.769043 13.2943 0 15.0268 0 16.8828V24.414C0 26.4559 1.66125 28.1171 3.70312 28.1171C5.745 28.1171 7.40625 26.4559 7.40625 24.414V23.4101H22.5938V24.414C22.5938 26.4559 24.255 28.1171 26.2969 28.1171C28.3387 28.1171 30 26.4559 30 24.414V16.8828C30 15.0298 29.2334 13.2965 27.8537 12.044ZM27.2382 8.34764C27.7941 8.34764 28.2422 8.7974 28.2422 9.35152C28.2422 9.89844 27.8 10.3554 27.2382 10.3554H24.4881C24.8604 9.19221 25.9523 8.34764 27.2382 8.34764ZM7.40625 7.46873C7.40625 5.3549 9.11637 3.64062 11.2344 3.64062H18.7656C20.8798 3.64062 22.5937 5.35074 22.5937 7.46873V10.3555H21.5273V10.2929C21.5273 8.50725 20.0828 7.06051 18.2949 7.06051C16.5093 7.06051 15.0625 8.50496 15.0625 10.2929V10.3555H7.40625V7.46873ZM19.7695 10.2929V10.3555H16.8203V10.2929C16.8203 9.48096 17.4803 8.81832 18.2949 8.81832C19.1119 8.81832 19.7695 9.48318 19.7695 10.2929ZM1.75781 9.35152C1.75781 8.79975 2.20318 8.34764 2.76264 8.34764C4.04783 8.34764 5.13949 9.19227 5.51186 10.3555H2.7617C2.21455 10.3554 1.75781 9.91297 1.75781 9.35152ZM5.64844 24.414C5.64844 25.4867 4.7758 26.3594 3.70312 26.3594C2.63045 26.3594 1.75781 25.4867 1.75781 24.414V23.4102H5.64844V24.414ZM28.2422 24.414C28.2422 25.4867 27.3695 26.3594 26.2969 26.3594C25.2243 26.3594 24.3516 25.4867 24.3516 24.414V23.4102H28.2422V24.414ZM28.2422 21.6523H1.75781V16.8828C1.75781 14.2491 3.88863 12.1132 6.52734 12.1132H23.4727C26.1063 12.1132 28.2422 14.244 28.2422 16.8828V21.6523Z" fill="white"/>
<path d="M6.52732 14.121C5.00453 14.121 3.76562 15.3599 3.76562 16.8827C3.76562 18.4055 5.00453 19.6444 6.52732 19.6444C8.05012 19.6444 9.28902 18.4055 9.28902 16.8827C9.28902 15.3599 8.05012 14.121 6.52732 14.121ZM6.52732 17.8866C5.97379 17.8866 5.52344 17.4363 5.52344 16.8827C5.52344 16.3292 5.97379 15.8788 6.52732 15.8788C7.08086 15.8788 7.53121 16.3291 7.53121 16.8827C7.53121 17.4362 7.08086 17.8866 6.52732 17.8866Z" fill="white"/>
<path d="M23.4726 14.121C21.9498 14.121 20.7109 15.3599 20.7109 16.8827C20.7109 18.4055 21.9498 19.6444 23.4726 19.6444C24.9954 19.6444 26.2344 18.4055 26.2344 16.8827C26.2344 15.3599 24.9954 14.121 23.4726 14.121ZM23.4726 17.8866C22.9191 17.8866 22.4688 17.4363 22.4688 16.8827C22.4688 16.3292 22.919 15.8788 23.4726 15.8788C24.0262 15.8788 24.4766 16.3291 24.4766 16.8827C24.4766 17.4362 24.0262 17.8866 23.4726 17.8866Z" fill="white"/>
<path d="M17.8242 14.1211H12.1758C11.6904 14.1211 11.2969 14.5146 11.2969 15C11.2969 15.4854 11.6904 15.8789 12.1758 15.8789H17.8242C18.3096 15.8789 18.7031 15.4854 18.7031 15C18.7031 14.5146 18.3096 14.1211 17.8242 14.1211Z" fill="white"/>
<path d="M17.8242 17.8867H12.1758C11.6904 17.8867 11.2969 18.2802 11.2969 18.7656C11.2969 19.251 11.6904 19.6445 12.1758 19.6445H17.8242C18.3096 19.6445 18.7031 19.251 18.7031 18.7656C18.7031 18.2802 18.3096 17.8867 17.8242 17.8867Z" fill="white"/>
</g>
<defs>
<clipPath id="clip0_373_477">
<rect width="30" height="30" fill="white"/>
</clipPath>
</defs>
</svg>
