<svg width="21" height="21" viewBox="0 0 21 21" fill="none" xmlns="http://www.w3.org/2000/svg">
<path d="M12.9663 10.8354L9.42474 14.377L7.6001 12.5524C7.35596 12.3082 6.96045 12.3082 6.71631 12.5524C6.47217 12.7965 6.47217 13.192 6.71631 13.4362L8.98285 15.7027C9.10492 15.8248 9.26483 15.8858 9.42474 15.8858C9.58466 15.8858 9.74457 15.8248 9.86664 15.7027L13.8501 11.7192C14.0942 11.4751 14.0942 11.0796 13.8501 10.8354C13.606 10.5913 13.2104 10.5913 12.9663 10.8354Z" fill="#FFB120"/>
<path d="M15.9082 3.2533H14.9707V2.65332C14.9707 2.30817 14.6909 2.02832 14.3457 2.02832C14.0005 2.02832 13.7207 2.30817 13.7207 2.65332V3.2533H6.8457V2.65332C6.8457 2.30817 6.56586 2.02832 6.2207 2.02832C5.87555 2.02832 5.5957 2.30817 5.5957 2.65332V3.2533H4.6582C2.93518 3.2533 1.5332 4.65527 1.5332 6.3783V16.4033C1.5332 18.1263 2.93518 19.5283 4.6582 19.5283H15.9082C17.6312 19.5283 19.0332 18.1263 19.0332 16.4033V6.3783C19.0332 4.65527 17.6312 3.2533 15.9082 3.2533ZM2.7832 6.3783C2.7832 5.34436 3.62427 4.5033 4.6582 4.5033H5.5957V5.10297C5.5957 5.44812 5.87555 5.72797 6.2207 5.72797C6.56586 5.72797 6.8457 5.44812 6.8457 5.10297V4.5033H13.7207V5.10297C13.7207 5.44812 14.0005 5.72797 14.3457 5.72797C14.6909 5.72797 14.9707 5.44812 14.9707 5.10297V4.5033H15.9082C16.9421 4.5033 17.7832 5.34436 17.7832 6.3783V7.0094H2.7832V6.3783ZM15.9082 18.2783H4.6582C3.62427 18.2783 2.7832 17.4373 2.7832 16.4033V8.2594H17.7832V16.4033C17.7832 17.4373 16.9421 18.2783 15.9082 18.2783Z" fill="#FFB120"/>
</svg>
