<svg width="21" height="21" viewBox="0 0 21 21" fill="none" xmlns="http://www.w3.org/2000/svg">
<g clip-path="url(#clip0_195_599)">
<path d="M20.2551 11.9104C20.2551 11.9103 20.2551 11.9102 20.255 11.9101L16.479 2.42872C16.3988 2.22727 16.1705 2.12892 15.969 2.20906C15.9689 2.20911 15.9687 2.20916 15.9686 2.20926L0.649504 8.30916C0.587031 8.33616 0.532851 8.37924 0.492462 8.43401C0.365061 8.50022 0.284577 8.63125 0.283203 8.77479V18.9825C0.283203 19.1993 0.458992 19.3751 0.675808 19.3751H17.1652C17.382 19.3751 17.5578 19.1993 17.5578 18.9825V13.4075L20.036 12.4205C20.2374 12.3402 20.3355 12.1118 20.2551 11.9104ZM16.7726 18.5899H1.06841V9.1674H16.7726V18.5899ZM6.83382 8.38415L13.4076 5.76469C13.9943 6.38137 14.8072 6.73187 15.6584 6.73521L16.3141 8.38415H6.83382ZM17.5578 12.5642V8.77479C17.5578 8.55798 17.382 8.38219 17.1652 8.38219H17.159L16.327 6.29274C16.3178 6.27532 16.307 6.25873 16.2948 6.24328C16.2527 6.05419 16.0776 5.92517 15.8846 5.94097C15.0926 6.01316 14.3178 5.67954 13.8261 5.05447C13.7038 4.90346 13.4887 4.86592 13.3224 4.96652C13.3038 4.96873 13.2853 4.97217 13.2671 4.97673L5.24142 8.17254C5.14429 8.21062 5.06661 8.28615 5.02588 8.38219H2.58858L15.8948 3.08398L19.3807 11.8371L17.5578 12.5642Z" fill="#FFB120"/>
<path d="M2.13384 15.9395C2.89608 16.1648 3.49254 16.7605 3.71878 17.5225C3.7684 17.6888 3.92137 17.8027 4.0949 17.8028C4.11527 17.8015 4.13548 17.7985 4.15536 17.7937C4.17298 17.7988 4.19099 17.8024 4.20915 17.8047H13.6317C13.6479 17.8026 13.6639 17.7993 13.6796 17.7949C13.8757 17.8426 14.0734 17.7223 14.1212 17.5262C14.1213 17.5255 14.1215 17.5248 14.1216 17.524C14.3473 16.7613 14.9439 16.1647 15.7066 15.9391C15.8916 15.8825 16.0065 15.6982 15.9759 15.5072C15.9812 15.4882 15.985 15.4687 15.9873 15.4491V12.3083C15.985 12.2886 15.9811 12.2692 15.9755 12.2502C16.0063 12.0591 15.8913 11.8747 15.7062 11.8183C14.9435 11.5927 14.347 10.9959 14.122 10.233C14.0652 10.0467 13.8791 9.93149 13.687 9.96363C13.6689 9.95857 13.6504 9.95489 13.6317 9.95264H4.20915C4.18937 9.95499 4.16979 9.95892 4.15065 9.96441C3.9597 9.93399 3.77547 10.0489 3.71878 10.2337C3.49299 10.9963 2.89647 11.5927 2.13384 11.8183C1.94887 11.8748 1.83393 12.0592 1.86451 12.2502C1.8594 12.2693 1.85572 12.2886 1.85352 12.3083V15.4491C1.85577 15.4676 1.85945 15.4858 1.86451 15.5037C1.83231 15.6959 1.9475 15.8823 2.13384 15.9395ZM2.63873 12.4677C3.42708 12.151 4.05191 11.5262 4.36855 10.7378H13.4719C13.7887 11.5262 14.4136 12.151 15.2021 12.4677V15.2897C14.414 15.6067 13.7893 16.2314 13.4723 17.0195H4.36855C4.05157 16.2314 3.42683 15.6067 2.63873 15.2897V12.4677Z" fill="#FFB120"/>
<path d="M8.92008 16.2342C10.2211 16.2342 11.2757 15.1796 11.2757 13.8786C11.2757 12.5776 10.2211 11.5229 8.92008 11.5229C7.61909 11.5229 6.56445 12.5776 6.56445 13.8786C6.56573 15.179 7.61963 16.2329 8.92008 16.2342ZM8.92008 12.3082C9.7874 12.3082 10.4905 13.0113 10.4905 13.8786C10.4905 14.7459 9.7874 15.449 8.92008 15.449C8.05277 15.449 7.34966 14.7459 7.34966 13.8786C7.34966 13.0113 8.05277 12.3082 8.92008 12.3082Z" fill="#FFB120"/>
<path d="M4.6016 14.4679C4.92683 14.4679 5.19051 14.2042 5.19051 13.8789C5.19051 13.5537 4.92683 13.29 4.6016 13.29C4.27638 13.29 4.0127 13.5537 4.0127 13.8789C4.0127 14.2042 4.27638 14.4679 4.6016 14.4679ZM4.6016 13.6826C4.71001 13.6826 4.79791 13.7705 4.79791 13.8789C4.79791 13.9874 4.71001 14.0752 4.6016 14.0752C4.4932 14.0752 4.4053 13.9874 4.4053 13.8789C4.4053 13.7705 4.4932 13.6826 4.6016 13.6826Z" fill="#FFB120"/>
<path d="M13.2393 14.4674C13.5645 14.4674 13.8282 14.2037 13.8282 13.8785C13.8282 13.5532 13.5645 13.2896 13.2393 13.2896C12.9141 13.2896 12.6504 13.5532 12.6504 13.8785C12.6504 14.2037 12.9141 14.4674 13.2393 14.4674ZM13.2393 13.6822C13.3477 13.6822 13.4356 13.7701 13.4356 13.8785C13.4356 13.9869 13.3477 14.0748 13.2393 14.0748C13.1309 14.0748 13.043 13.9869 13.043 13.8785C13.043 13.7701 13.1309 13.6822 13.2393 13.6822Z" fill="#FFB120"/>
</g>
<defs>
<clipPath id="clip0_195_599">
<rect width="20" height="20" fill="white" transform="translate(0.283203 0.77832)"/>
</clipPath>
</defs>
</svg>
