<svg width="40" height="40" viewBox="0 0 40 40" fill="none" xmlns="http://www.w3.org/2000/svg">
<g clip-path="url(#clip0_178_165)">
<path d="M25.1012 17.1395C27.6462 15.4714 29.3307 12.5943 29.3307 9.3307C29.3307 4.18578 25.1449 0 20 0C14.8551 0 10.6693 4.18578 10.6693 9.3307C10.6693 12.5943 12.3539 15.4714 14.8988 17.1395C8.43859 19.2832 3.76562 25.3818 3.76562 32.5521V35.0625C3.76562 37.7851 5.98055 40 8.70313 40H31.2969C34.0195 40 36.2344 37.785 36.2344 35.0625V32.5521C36.2344 25.3818 31.5614 19.2832 25.1012 17.1395ZM13.013 9.3307C13.013 5.47813 16.1474 2.34375 20 2.34375C23.8526 2.34375 26.987 5.47813 26.987 9.3307C26.987 13.1834 23.8526 16.3177 20 16.3177C16.1474 16.3177 13.013 13.1834 13.013 9.3307ZM20 18.6615C26.051 18.6615 31.2098 22.5511 33.1098 27.9609C32.5481 27.7384 31.9369 27.6146 31.2969 27.6146C30.9032 27.6146 30.5195 27.677 30.1556 27.795C28.3767 23.9902 24.4981 21.3385 20 21.3385C15.5106 21.3385 11.627 23.9823 9.84438 27.795C9.48055 27.6769 9.09672 27.6146 8.70313 27.6146C8.06313 27.6146 7.45188 27.7384 6.89016 27.9609C8.79023 22.551 13.949 18.6615 20 18.6615ZM10.0416 36.3177C10.0416 37.0558 9.44117 37.6562 8.70313 37.6562C7.27297 37.6562 6.10938 36.4927 6.10938 35.0625V32.5521C6.10938 31.122 7.27297 29.9584 8.70313 29.9584C9.44438 29.9584 10.0416 30.558 10.0416 31.2969V36.3177ZM18.8281 37.6562H12.1325C12.2952 37.241 12.3855 36.7898 12.3855 36.3177V33.724H16.5101C16.8768 34.813 17.7391 35.6754 18.8282 36.0421V37.6562H18.8281ZM20 33.8906C19.262 33.8906 18.6615 33.2902 18.6615 32.5521C18.6615 31.8141 19.262 31.2136 20 31.2136C20.738 31.2136 21.3385 31.8141 21.3385 32.5521C21.3385 33.2902 20.738 33.8906 20 33.8906ZM21.1719 37.6562V36.042C22.2609 35.6753 23.1233 34.813 23.49 33.7239H27.6146V36.3177C27.6146 36.7898 27.7049 37.241 27.8676 37.6562H21.1719V37.6562ZM27.6146 31.2969V31.3802H23.49C22.9993 29.9227 21.6208 28.8698 20 28.8698C18.3792 28.8698 17.0007 29.9227 16.51 31.3802H12.3854V31.2969C12.3854 30.558 12.1692 29.8524 11.7668 29.2522C12.8935 26.4591 15.7947 23.6823 20 23.6823C24.2 23.6823 27.1042 26.4534 28.2332 29.2522C27.8308 29.8524 27.6146 30.558 27.6146 31.2969ZM33.8906 35.0625C33.8906 36.4927 32.727 37.6562 31.2969 37.6562C30.5588 37.6562 29.9584 37.0558 29.9584 36.3177V31.2969C29.9584 30.5587 30.5551 29.9584 31.2969 29.9584C32.727 29.9584 33.8906 31.122 33.8906 32.5521V35.0625Z" fill="#FFB120"/>
<path d="M19.9995 12.3833C21.1033 12.3833 22.2071 11.9631 23.0473 11.1228C23.505 10.6652 23.505 9.92321 23.0473 9.46556C22.5898 9.0079 21.8477 9.0079 21.3901 9.46556C20.6234 10.2323 19.3757 10.2323 18.6089 9.46556C18.1513 9.0079 17.4093 9.0079 16.9516 9.46556C16.494 9.92321 16.494 10.6652 16.9516 11.1228C17.792 11.9631 18.8958 12.3833 19.9995 12.3833Z" fill="#FFB120"/>
</g>
<defs>
<clipPath id="clip0_178_165">
<rect width="40" height="40" fill="white"/>
</clipPath>
</defs>
</svg>
