<svg width="50" height="51" viewBox="0 0 50 51" fill="none" xmlns="http://www.w3.org/2000/svg">
<g clip-path="url(#clip0_444_320)">
<path d="M25.0003 6.76733C14.6759 6.76733 6.27637 15.1668 6.27637 25.4913C6.27637 35.8157 14.6759 44.2152 25.0003 44.2152C35.3247 44.2152 43.7242 35.8157 43.7242 25.4913C43.7242 15.1668 35.3247 6.76733 25.0003 6.76733ZM25.0003 9.69702C33.2153 9.69702 39.9845 16.0017 40.7261 24.0264H30.9951C30.3356 21.3283 27.8988 19.3194 25.0003 19.3194C22.1018 19.3194 19.6649 21.3283 19.0055 24.0264H9.27451C10.0161 16.0017 16.7853 9.69702 25.0003 9.69702ZM23.5354 41.2169C15.9933 40.5201 9.97148 34.4983 9.27451 26.9561H19.0055C19.5501 29.1844 21.3071 30.9415 23.5354 31.4861V41.2169ZM21.7581 25.4913C21.7581 23.7035 23.2126 22.2491 25.0003 22.2491C26.788 22.2491 28.2425 23.7036 28.2425 25.4913C28.2425 27.279 26.788 28.7334 25.0003 28.7334C23.2126 28.7334 21.7581 27.2791 21.7581 25.4913ZM26.4651 41.2169V31.486C28.6935 30.9414 30.4505 29.1844 30.9951 26.956H40.7261C40.0291 34.4983 34.0073 40.5201 26.4651 41.2169Z" fill="#FFB120"/>
<path d="M25 0.491211C11.2149 0.491211 0 11.7062 0 25.4912C0 39.2763 11.2149 50.4912 25 50.4912C38.7851 50.4912 50 39.2763 50 25.4912C50 11.7062 38.7851 0.491211 25 0.491211ZM25 47.5615C12.8304 47.5615 2.92969 37.6608 2.92969 25.4912C2.92969 13.3216 12.8304 3.4209 25 3.4209C37.1696 3.4209 47.0703 13.3216 47.0703 25.4912C47.0703 37.6608 37.1696 47.5615 25 47.5615Z" fill="#FFB120"/>
</g>
<defs>
<clipPath id="clip0_444_320">
<rect width="50" height="50" fill="white" transform="translate(0 0.491211)"/>
</clipPath>
</defs>
</svg>
