<svg width="60" height="60" viewBox="0 0 60 60" fill="none" xmlns="http://www.w3.org/2000/svg">
<path d="M35.6484 49.8947H24.3516C23.3808 49.8947 22.5938 50.6817 22.5938 51.6525C22.5938 52.6232 23.3808 53.4103 24.3516 53.4103H35.6484C36.6192 53.4103 37.4063 52.6232 37.4063 51.6525C37.4063 50.6817 36.6192 49.8947 35.6484 49.8947Z" fill="#100F11"/>
<path d="M34.9436 39.0475C35.3128 38.3068 35.5215 37.4722 35.5215 36.5885C35.5215 33.5389 33.0493 31.0667 29.9997 31.0667C29.1158 31.0667 28.281 31.2756 27.5403 31.6448L19.2605 23.3647C18.5742 22.6782 17.4611 22.6782 16.7746 23.3647C16.0881 24.0511 16.0881 25.164 16.7746 25.8506L25.055 34.1313C24.6864 34.8715 24.4781 35.7055 24.4781 36.5885C24.4781 39.6381 26.9503 42.1103 29.9998 42.1103C30.8831 42.1103 31.7172 41.9018 32.4575 41.5331L34.4053 43.4811C35.0917 44.1676 36.2046 44.1678 36.8912 43.4814C37.5776 42.795 37.5778 41.6821 36.8913 40.9955L34.9436 39.0475ZM29.9997 38.5946C28.8936 38.5946 27.9936 37.6948 27.9936 36.5886C27.9936 35.4825 28.8935 34.5825 29.9997 34.5825C31.106 34.5825 32.0058 35.4825 32.0058 36.5886C32.0058 37.6948 31.1058 38.5946 29.9997 38.5946Z" fill="#100F11"/>
<path d="M30 6.58984C13.4579 6.58984 0 20.0478 0 36.5898C0 41.8621 1.39008 47.0496 4.02012 51.5918C4.50598 52.4309 5.57965 52.7179 6.41941 52.2336C6.41977 52.2333 11.3121 49.4091 11.3121 49.4091C12.1528 48.9237 12.4409 47.8488 11.9555 47.0079C11.4701 46.1672 10.3952 45.8788 9.5543 46.3646L6.23414 48.2814C4.70906 45.1852 3.80613 41.805 3.57633 38.3478H7.40625C8.37703 38.3478 9.16406 37.5607 9.16406 36.59C9.16406 35.6192 8.37703 34.8321 7.40625 34.8321H3.57539C3.80883 31.2877 4.74223 27.9318 6.23918 24.9013L9.55441 26.8154C10.3954 27.3011 11.4704 27.0127 11.9556 26.172C12.441 25.3312 12.1529 24.2561 11.3122 23.7708L8.00109 21.859C9.92824 18.9905 12.4008 16.518 15.2693 14.5908L17.1809 17.9016C17.6663 18.7424 18.7413 19.0307 19.582 18.545C20.4227 18.0595 20.7108 16.9845 20.2254 16.1438L18.3115 12.8289C21.342 11.3321 24.698 10.3993 28.2422 10.1655V13.9962C28.2422 14.967 29.0292 15.754 30 15.754C30.9708 15.754 31.7578 14.967 31.7578 13.9962V10.1655C35.302 10.3993 38.658 11.3322 41.6885 12.8289L39.7746 16.1438C39.2892 16.9845 39.5773 18.0596 40.418 18.545C41.2587 19.0307 42.3338 18.7424 42.8191 17.9016L44.7307 14.5908C47.5992 16.5179 50.0719 18.9904 51.9989 21.859L48.6879 23.7706C47.8472 24.256 47.5591 25.3309 48.0445 26.1718C48.5298 27.0125 49.6048 27.3009 50.4457 26.8151L53.7609 24.9011C55.2578 27.9316 56.1913 31.2875 56.4247 34.8319H52.5938C51.623 34.8319 50.8359 35.6189 50.8359 36.5897C50.8359 37.5605 51.623 38.3475 52.5938 38.3475H56.4237C56.1939 41.8048 55.2909 45.185 53.7659 48.2812L50.4457 46.3643C49.6048 45.8786 48.5299 46.167 48.0445 47.0077C47.5591 47.8485 47.8472 48.9236 48.6879 49.4089C48.6879 49.4089 53.5802 52.2331 53.5806 52.2333C54.4205 52.7177 55.494 52.4308 55.9799 51.5916C58.6099 47.0496 60 41.8622 60 36.5898C60 20.0478 46.5421 6.58984 30 6.58984Z" fill="#100F11"/>
</svg>
