<svg width="50" height="51" viewBox="0 0 50 51" fill="none" xmlns="http://www.w3.org/2000/svg">
<g clip-path="url(#clip0_444_307)">
<path d="M46.4228 21.0422C47.5315 20.7911 50 19.5627 50 16.5547C50 14.0168 47.9484 11.9518 45.3956 11.9518C43.5789 11.9518 41.9078 12.5826 40.5859 13.6344V13.4167C40.5859 8.27586 36.4271 4.10681 31.2761 4.10681H18.7239C13.5823 4.10681 9.41406 8.2657 9.41406 13.4167V13.6347C8.09199 12.5827 6.42031 11.9518 4.60283 11.9518C2.06035 11.9518 0 14.0083 0 16.5547C0 19.5618 2.46729 20.7907 3.57725 21.0422C1.28174 23.126 0 26.0135 0 29.1067V41.6588C0 45.062 2.76875 47.8306 6.17188 47.8306C9.575 47.8306 12.3438 45.0619 12.3438 41.6588V39.9856H37.6562V41.6588C37.6562 45.062 40.425 47.8306 43.8281 47.8306C47.2312 47.8306 50 45.0619 50 41.6588V29.1067C50 26.0185 48.7223 23.1297 46.4228 21.0422ZM45.3971 14.8815C46.3235 14.8815 47.0703 15.6311 47.0703 16.5547C47.0703 17.4662 46.3334 18.2278 45.3971 18.2278H40.8135C41.4341 16.2891 43.2538 14.8815 45.3971 14.8815ZM12.3438 13.4167C12.3438 9.89363 15.1939 7.0365 18.7239 7.0365H31.276C34.7997 7.0365 37.6562 9.8867 37.6562 13.4167V18.2279H35.8789V18.1237C35.8789 15.1475 33.4714 12.7363 30.4915 12.7363C27.5154 12.7363 25.1041 15.1437 25.1041 18.1237V18.2279H12.3438V13.4167ZM32.9492 18.1237V18.2279H28.0338V18.1237C28.0338 16.7704 29.1338 15.666 30.4915 15.666C31.8532 15.666 32.9492 16.7741 32.9492 18.1237ZM2.92969 16.5547C2.92969 15.635 3.67197 14.8815 4.60439 14.8815C6.74639 14.8815 8.56582 16.2892 9.18643 18.2279H4.60283C3.69092 18.2278 2.92969 17.4904 2.92969 16.5547ZM9.41406 41.6589C9.41406 43.4467 7.95967 44.9011 6.17188 44.9011C4.38408 44.9011 2.92969 43.4466 2.92969 41.6589V39.9857H9.41406V41.6589ZM47.0703 41.6589C47.0703 43.4467 45.6158 44.9011 43.8281 44.9011C42.0404 44.9011 40.5859 43.4466 40.5859 41.6589V39.9857H47.0703V41.6589ZM47.0703 37.0559H2.92969V29.1067C2.92969 24.7173 6.48105 21.1575 10.8789 21.1575H39.1211C43.5104 21.1575 47.0703 24.7089 47.0703 29.1067V37.0559Z" fill="#FFB120"/>
<path d="M10.8792 24.5038C8.34121 24.5038 6.27637 26.5686 6.27637 29.1066C6.27637 31.6446 8.34121 33.7094 10.8792 33.7094C13.4172 33.7094 15.482 31.6446 15.482 29.1066C15.482 26.5686 13.4172 24.5038 10.8792 24.5038ZM10.8792 30.7799C9.95664 30.7799 9.20605 30.0293 9.20605 29.1067C9.20605 28.1842 9.95664 27.4335 10.8792 27.4335C11.8018 27.4335 12.5523 28.1841 12.5523 29.1066C12.5523 30.0292 11.8018 30.7799 10.8792 30.7799Z" fill="#FFB120"/>
<path d="M39.1214 24.5038C36.5834 24.5038 34.5186 26.5686 34.5186 29.1066C34.5186 31.6446 36.5834 33.7094 39.1214 33.7094C41.6594 33.7094 43.7243 31.6446 43.7243 29.1066C43.7243 26.5686 41.6594 24.5038 39.1214 24.5038ZM39.1214 30.7799C38.1988 30.7799 37.4482 30.0293 37.4482 29.1067C37.4482 28.1842 38.1987 27.4335 39.1214 27.4335C40.044 27.4335 40.7946 28.1841 40.7946 29.1066C40.7946 30.0292 40.0439 30.7799 39.1214 30.7799Z" fill="#FFB120"/>
<path d="M29.707 24.5039H20.293C19.484 24.5039 18.8281 25.1598 18.8281 25.9688C18.8281 26.7777 19.484 27.4336 20.293 27.4336H29.707C30.516 27.4336 31.1719 26.7777 31.1719 25.9688C31.1719 25.1598 30.516 24.5039 29.707 24.5039Z" fill="#FFB120"/>
<path d="M29.707 30.78H20.293C19.484 30.78 18.8281 31.4358 18.8281 32.2448C18.8281 33.0538 19.484 33.7097 20.293 33.7097H29.707C30.516 33.7097 31.1719 33.0538 31.1719 32.2448C31.1719 31.4358 30.516 30.78 29.707 30.78Z" fill="#FFB120"/>
</g>
<defs>
<clipPath id="clip0_444_307">
<rect width="50" height="50" fill="white" transform="translate(0 0.96875)"/>
</clipPath>
</defs>
</svg>
