<svg width="60" height="60" viewBox="0 0 60 60" fill="none" xmlns="http://www.w3.org/2000/svg">
<g clip-path="url(#clip0_325_104)">
<path d="M55.7073 24.0882C57.0378 23.7869 60 22.3128 60 18.7032C60 15.6577 57.5381 13.1798 54.4747 13.1798C52.2947 13.1798 50.2894 13.9367 48.7031 15.1989V14.9376C48.7031 8.7686 43.7125 3.76575 37.5313 3.76575H22.4687C16.2988 3.76575 11.2969 8.75641 11.2969 14.9376V15.1993C9.71039 13.9368 7.70437 13.1798 5.5234 13.1798C2.47242 13.1798 0 15.6475 0 18.7032C0 22.3117 2.96074 23.7864 4.2927 24.0882C1.53809 26.5887 0 30.0537 0 33.7656V48.8281C0 52.912 3.3225 56.2343 7.40625 56.2343C11.49 56.2343 14.8125 52.9118 14.8125 48.8281V46.8203H45.1875V48.8281C45.1875 52.912 48.51 56.2343 52.5938 56.2343C56.6775 56.2343 60 52.9118 60 48.8281V33.7656C60 30.0598 58.4667 26.5932 55.7073 24.0882ZM54.4765 16.6954C55.5882 16.6954 56.4844 17.5949 56.4844 18.7032C56.4844 19.797 55.6001 20.7109 54.4765 20.7109H48.9762C49.7209 18.3845 51.9046 16.6954 54.4765 16.6954ZM14.8125 14.9376C14.8125 10.7099 18.2327 7.28137 22.4687 7.28137H37.5312C41.7596 7.28137 45.1874 10.7016 45.1874 14.9376V20.7111H43.0547V20.586C43.0547 17.0146 40.1657 14.1211 36.5898 14.1211C33.0185 14.1211 30.1249 17.01 30.1249 20.586V20.7111H14.8125V14.9376ZM39.5391 20.586V20.7111H33.6405V20.586C33.6405 18.962 34.9605 17.6368 36.5898 17.6368C38.2239 17.6368 39.5391 18.9665 39.5391 20.586ZM3.51562 18.7032C3.51562 17.5996 4.40637 16.6954 5.52527 16.6954C8.09566 16.6954 10.279 18.3847 11.0237 20.7111H5.5234C4.4291 20.7109 3.51562 19.8261 3.51562 18.7032ZM11.2969 48.8282C11.2969 50.9736 9.5516 52.7188 7.40625 52.7188C5.2609 52.7188 3.51562 50.9734 3.51562 48.8282V46.8204H11.2969V48.8282ZM56.4844 48.8282C56.4844 50.9736 54.739 52.7188 52.5938 52.7188C50.4485 52.7188 48.7031 50.9734 48.7031 48.8282V46.8204H56.4844V48.8282ZM56.4844 43.3047H3.51562V33.7656C3.51562 28.4983 7.77727 24.2266 13.0547 24.2266H46.9453C52.2125 24.2266 56.4844 28.4882 56.4844 33.7656V43.3047Z" fill="#100F11"/>
<path d="M13.0566 28.2421C10.011 28.2421 7.5332 30.7199 7.5332 33.7655C7.5332 36.811 10.011 39.2889 13.0566 39.2889C16.1022 39.2889 18.58 36.811 18.58 33.7655C18.58 30.7199 16.1022 28.2421 13.0566 28.2421ZM13.0566 35.7734C11.9495 35.7734 11.0488 34.8727 11.0488 33.7656C11.0488 32.6585 11.9495 31.7577 13.0566 31.7577C14.1637 31.7577 15.0644 32.6584 15.0644 33.7655C15.0644 34.8725 14.1637 35.7734 13.0566 35.7734Z" fill="#100F11"/>
<path d="M46.9472 28.2421C43.9016 28.2421 41.4238 30.7199 41.4238 33.7655C41.4238 36.811 43.9016 39.2889 46.9472 39.2889C49.9928 39.2889 52.4707 36.811 52.4707 33.7655C52.4707 30.7199 49.9928 28.2421 46.9472 28.2421ZM46.9472 35.7734C45.8402 35.7734 44.9395 34.8727 44.9395 33.7656C44.9395 32.6585 45.84 31.7577 46.9472 31.7577C48.0544 31.7577 48.9551 32.6584 48.9551 33.7655C48.9551 34.8725 48.0543 35.7734 46.9472 35.7734Z" fill="#100F11"/>
<path d="M35.6484 28.2422H24.3516C23.3808 28.2422 22.5938 29.0292 22.5938 30C22.5938 30.9708 23.3808 31.7578 24.3516 31.7578H35.6484C36.6192 31.7578 37.4063 30.9708 37.4063 30C37.4063 29.0292 36.6192 28.2422 35.6484 28.2422Z" fill="#100F11"/>
<path d="M35.6484 35.7736H24.3516C23.3808 35.7736 22.5938 36.5606 22.5938 37.5314C22.5938 38.5022 23.3808 39.2892 24.3516 39.2892H35.6484C36.6192 39.2892 37.4063 38.5022 37.4063 37.5314C37.4063 36.5606 36.6192 35.7736 35.6484 35.7736Z" fill="#100F11"/>
</g>
<defs>
<clipPath id="clip0_325_104">
<rect width="60" height="60" fill="white"/>
</clipPath>
</defs>
</svg>
