<svg width="41" height="41" viewBox="0 0 41 41" fill="none" xmlns="http://www.w3.org/2000/svg">
<g clip-path="url(#clip0_169_211)">
<path d="M38.1265 16.0844C39.0135 15.8836 40.9883 14.9008 40.9883 12.4944C40.9883 10.4641 39.347 8.81215 37.3048 8.81215C35.8514 8.81215 34.5145 9.31676 33.457 10.1582V9.98402C33.457 5.87137 30.1299 2.53613 26.0091 2.53613H15.9674C11.8541 2.53613 8.51953 5.86324 8.51953 9.98402V10.1585C7.46187 9.31684 6.12453 8.81215 4.67055 8.81215C2.63656 8.81215 0.988281 10.4573 0.988281 12.4944C0.988281 14.9001 2.96211 15.8832 3.85008 16.0844C2.01367 17.7514 0.988281 20.0614 0.988281 22.5361V32.5777C0.988281 35.3003 3.20328 37.5152 5.92578 37.5152C8.64828 37.5152 10.8633 35.3002 10.8633 32.5777V31.2392H31.1133V32.5777C31.1133 35.3003 33.3283 37.5152 36.0508 37.5152C38.7733 37.5152 40.9883 35.3002 40.9883 32.5777V22.5361C40.9883 20.0655 39.9661 17.7544 38.1265 16.0844ZM37.3059 11.1559C38.0471 11.1559 38.6445 11.7556 38.6445 12.4944C38.6445 13.2236 38.055 13.8329 37.3059 13.8329H33.6391C34.1355 12.282 35.5913 11.1559 37.3059 11.1559ZM10.8633 9.98402C10.8633 7.16559 13.1434 4.87988 15.9674 4.87988H26.0091C28.828 4.87988 31.1132 7.16004 31.1132 9.98402V13.833H29.6914V13.7496C29.6914 11.3687 27.7654 9.43973 25.3815 9.43973C23.0006 9.43973 21.0716 11.3657 21.0716 13.7496V13.833H10.8633V9.98402ZM27.3477 13.7496V13.833H23.4153V13.7496C23.4153 12.667 24.2953 11.7835 25.3815 11.7835C26.4709 11.7835 27.3477 12.67 27.3477 13.7496ZM3.33203 12.4944C3.33203 11.7587 3.92586 11.1559 4.6718 11.1559C6.38539 11.1559 7.84094 12.2821 8.33742 13.833H4.67055C3.94102 13.8329 3.33203 13.243 3.33203 12.4944ZM8.51953 32.5778C8.51953 34.008 7.35602 35.1715 5.92578 35.1715C4.49555 35.1715 3.33203 34.0079 3.33203 32.5778V31.2393H8.51953V32.5778ZM38.6445 32.5778C38.6445 34.008 37.4809 35.1715 36.0508 35.1715C34.6206 35.1715 33.457 34.0079 33.457 32.5778V31.2393H38.6445V32.5778ZM38.6445 28.8954H3.33203V22.5361C3.33203 19.0245 6.17313 16.1767 9.69141 16.1767H32.2852C35.7966 16.1767 38.6445 19.0178 38.6445 22.5361V28.8954Z" fill="#FFB120"/>
<path d="M9.69105 18.8538C7.66066 18.8538 6.00879 20.5056 6.00879 22.536C6.00879 24.5664 7.66066 26.2183 9.69105 26.2183C11.7214 26.2183 13.3733 24.5664 13.3733 22.536C13.3733 20.5056 11.7214 18.8538 9.69105 18.8538ZM9.69105 23.8746C8.95301 23.8746 8.35254 23.2742 8.35254 22.5361C8.35254 21.7981 8.95301 21.1975 9.69105 21.1975C10.4291 21.1975 11.0296 21.798 11.0296 22.536C11.0296 23.2741 10.4291 23.8746 9.69105 23.8746Z" fill="#FFB120"/>
<path d="M32.2848 18.8538C30.2544 18.8538 28.6025 20.5056 28.6025 22.536C28.6025 24.5664 30.2544 26.2183 32.2848 26.2183C34.3152 26.2183 35.9671 24.5664 35.9671 22.536C35.9671 20.5056 34.3152 18.8538 32.2848 18.8538ZM32.2848 23.8746C31.5468 23.8746 30.9463 23.2742 30.9463 22.5361C30.9463 21.7981 31.5467 21.1975 32.2848 21.1975C33.0229 21.1975 33.6234 21.798 33.6234 22.536C33.6234 23.2741 33.0229 23.8746 32.2848 23.8746Z" fill="#FFB120"/>
<path d="M24.7539 18.8538H17.2227C16.5755 18.8538 16.0508 19.3784 16.0508 20.0256C16.0508 20.6728 16.5755 21.1975 17.2227 21.1975H24.7539C25.4011 21.1975 25.9258 20.6728 25.9258 20.0256C25.9258 19.3784 25.4011 18.8538 24.7539 18.8538Z" fill="#FFB120"/>
<path d="M24.7539 23.8748H17.2227C16.5755 23.8748 16.0508 24.3994 16.0508 25.0466C16.0508 25.6938 16.5755 26.2185 17.2227 26.2185H24.7539C25.4011 26.2185 25.9258 25.6938 25.9258 25.0466C25.9258 24.3994 25.4011 23.8748 24.7539 23.8748Z" fill="#FFB120"/>
</g>
<defs>
<clipPath id="clip0_169_211">
<rect width="40" height="40" fill="white" transform="translate(0.988281 0.0256348)"/>
</clipPath>
</defs>
</svg>
