<svg width="40" height="40" viewBox="0 0 40 40" fill="none" xmlns="http://www.w3.org/2000/svg">
<g clip-path="url(#clip0_178_145)">
<path d="M11.2135 0C10.5663 0 10.0416 0.524687 10.0416 1.17187V10.0416H1.17187C0.524687 10.0416 0 10.5663 0 11.2135C0 11.8607 0.524687 12.3854 1.17187 12.3854H11.2135C11.8607 12.3854 12.3854 11.8607 12.3854 11.2135V1.17187C12.3854 0.524687 11.8607 0 11.2135 0Z" fill="#FFB120"/>
<path d="M11.2135 27.6145H1.17187C0.524687 27.6145 0 28.1392 0 28.7864C0 29.4336 0.524687 29.9583 1.17187 29.9583H10.0416V38.828C10.0416 39.4752 10.5663 39.9999 11.2135 39.9999C11.8607 39.9999 12.3854 39.4752 12.3854 38.828V28.7864C12.3854 28.1392 11.8607 27.6145 11.2135 27.6145Z" fill="#FFB120"/>
<path d="M28.7861 12.3854H38.8278C39.475 12.3854 39.9996 11.8607 39.9996 11.2135C39.9996 10.5663 39.475 10.0416 38.8278 10.0416H29.958V1.17187C29.958 0.524687 29.4333 0 28.7861 0C28.1389 0 27.6143 0.524687 27.6143 1.17187V11.2135C27.6143 11.8607 28.1389 12.3854 28.7861 12.3854Z" fill="#FFB120"/>
<path d="M38.8278 27.6145H28.7861C28.1389 27.6145 27.6143 28.1392 27.6143 28.7864V38.828C27.6143 39.4752 28.1389 39.9999 28.7861 39.9999C29.4333 39.9999 29.958 39.4752 29.958 38.828V29.9583H38.8278C39.475 29.9583 39.9996 29.4336 39.9996 28.7864C39.9996 28.1392 39.475 27.6145 38.8278 27.6145Z" fill="#FFB120"/>
<path d="M20 7.53125C19.3528 7.53125 18.8281 8.05594 18.8281 8.70312V11.2135C18.8281 11.8607 19.3528 12.3854 20 12.3854C20.6472 12.3854 21.1719 11.8607 21.1719 11.2135V8.70312C21.1719 8.05594 20.6472 7.53125 20 7.53125Z" fill="#FFB120"/>
<path d="M20 35.1458C19.3528 35.1458 18.8281 35.6704 18.8281 36.3176V38.828C18.8281 39.4752 19.3528 39.9999 20 39.9999C20.6472 39.9999 21.1719 39.4752 21.1719 38.828V36.3176C21.1719 35.6704 20.6472 35.1458 20 35.1458Z" fill="#FFB120"/>
<path d="M20 0C19.3528 0 18.8281 0.524687 18.8281 1.17188V3.68227C18.8281 4.32945 19.3528 4.85414 20 4.85414C20.6472 4.85414 21.1719 4.32945 21.1719 3.68227V1.17188C21.1719 0.524687 20.6472 0 20 0Z" fill="#FFB120"/>
<path d="M20 27.6145C19.3528 27.6145 18.8281 28.1392 18.8281 28.7864V31.2968C18.8281 31.944 19.3528 32.4686 20 32.4686C20.6472 32.4686 21.1719 31.944 21.1719 31.2968V28.7864C21.1719 28.1392 20.6472 27.6145 20 27.6145Z" fill="#FFB120"/>
<path d="M28.7861 21.1719H31.2965C31.9437 21.1719 32.4684 20.6472 32.4684 20C32.4684 19.3528 31.9437 18.8281 31.2965 18.8281H28.7861C28.1389 18.8281 27.6143 19.3528 27.6143 20C27.6143 20.6472 28.1389 21.1719 28.7861 21.1719Z" fill="#FFB120"/>
<path d="M1.17188 21.1719H3.68227C4.32945 21.1719 4.85414 20.6472 4.85414 20C4.85414 19.3528 4.32945 18.8281 3.68227 18.8281H1.17188C0.524687 18.8281 0 19.3528 0 20C0 20.6472 0.524687 21.1719 1.17188 21.1719Z" fill="#FFB120"/>
<path d="M38.8278 18.8281H36.3174C35.6702 18.8281 35.1455 19.3528 35.1455 20C35.1455 20.6472 35.6702 21.1719 36.3174 21.1719H38.8278C39.475 21.1719 39.9996 20.6472 39.9996 20C39.9996 19.3528 39.475 18.8281 38.8278 18.8281Z" fill="#FFB120"/>
<path d="M11.2135 18.8281H8.70312C8.05594 18.8281 7.53125 19.3528 7.53125 20C7.53125 20.6472 8.05594 21.1719 8.70312 21.1719H11.2135C11.8607 21.1719 12.3854 20.6472 12.3854 20C12.3854 19.3528 11.8607 18.8281 11.2135 18.8281Z" fill="#FFB120"/>
</g>
<defs>
<clipPath id="clip0_178_145">
<rect width="40" height="40" fill="white"/>
</clipPath>
</defs>
</svg>
