<svg width="50" height="50" viewBox="0 0 50 50" fill="none" xmlns="http://www.w3.org/2000/svg">
<path d="M29.707 41.5789H20.293C19.484 41.5789 18.8281 42.2347 18.8281 43.0437C18.8281 43.8527 19.484 44.5085 20.293 44.5085H29.707C30.516 44.5085 31.1719 43.8527 31.1719 43.0437C31.1719 42.2347 30.516 41.5789 29.707 41.5789Z" fill="#FFB120"/>
<path d="M29.1197 32.5395C29.4273 31.9223 29.6012 31.2268 29.6012 30.4904C29.6012 27.9491 27.5411 25.8889 24.9998 25.8889C24.2631 25.8889 23.5675 26.0629 22.9502 26.3707L16.0504 19.4706C15.4785 18.8985 14.5509 18.8985 13.9789 19.4706C13.4068 20.0425 13.4068 20.97 13.9789 21.5421L20.8792 28.4427C20.572 29.0595 20.3984 29.7545 20.3984 30.4904C20.3984 33.0317 22.4585 35.0918 24.9999 35.0918C25.7359 35.0918 26.431 34.9181 27.0479 34.6109L28.671 36.2342C29.2431 36.8063 30.1705 36.8065 30.7426 36.2344C31.3147 35.6625 31.3148 34.735 30.7427 34.1628L29.1197 32.5395ZM24.9998 32.1622C24.078 32.1622 23.328 31.4123 23.328 30.4905C23.328 29.5687 24.0779 28.8187 24.9998 28.8187C25.9216 28.8187 26.6715 29.5687 26.6715 30.4905C26.6715 31.4123 25.9215 32.1622 24.9998 32.1622Z" fill="#FFB120"/>
<path d="M25 5.49146C11.2149 5.49146 0 16.7064 0 30.4915C0 34.885 1.1584 39.208 3.3501 42.9931C3.75498 43.6923 4.64971 43.9315 5.34951 43.5279C5.3498 43.5277 9.42676 41.1742 9.42676 41.1742C10.1273 40.7697 10.3674 39.8739 9.96289 39.1732C9.5584 38.4726 8.66269 38.2323 7.96191 38.6371L5.19512 40.2344C3.92422 37.6542 3.17178 34.8375 2.98027 31.9564H6.17188C6.98086 31.9564 7.63672 31.3005 7.63672 30.4916C7.63672 29.6826 6.98086 29.0267 6.17188 29.0267H2.97949C3.17402 26.073 3.95186 23.2764 5.19932 20.751L7.96201 22.346C8.66279 22.7508 9.55869 22.5105 9.96299 21.8099C10.3675 21.1092 10.1274 20.2133 9.42686 19.8089L6.66758 18.2158C8.27353 15.8253 10.334 13.7649 12.7244 12.1589L14.3174 14.9179C14.7219 15.6186 15.6178 15.8588 16.3184 15.4541C17.0189 15.0495 17.259 14.1537 16.8545 13.4531L15.2596 10.6907C17.785 9.44331 20.5816 8.66597 23.5352 8.47114V11.6634C23.5352 12.4724 24.191 13.1283 25 13.1283C25.809 13.1283 26.4648 12.4724 26.4648 11.6634V8.47114C29.4184 8.66597 32.215 9.44341 34.7404 10.6907L33.1455 13.4531C32.741 14.1537 32.9811 15.0496 33.6816 15.4541C34.3822 15.8588 35.2781 15.6186 35.6826 14.9179L37.2756 12.1589C39.666 13.7648 41.7266 15.8252 43.3324 18.2158L40.5732 19.8087C39.8727 20.2132 39.6326 21.109 40.0371 21.8097C40.4415 22.5103 41.3373 22.7506 42.0381 22.3458L44.8008 20.7508C46.0481 23.2762 46.8261 26.0728 47.0206 29.0265H43.8281C43.0191 29.0265 42.3633 29.6824 42.3633 30.4914C42.3633 31.3003 43.0191 31.9562 43.8281 31.9562H47.0197C46.8282 34.8373 46.0758 37.6541 44.8049 40.2342L42.0381 38.6369C41.3373 38.2321 40.4416 38.4724 40.0371 39.173C39.6326 39.8737 39.8727 40.7696 40.5732 41.174C40.5732 41.174 44.6502 43.5275 44.6505 43.5277C45.3504 43.9313 46.245 43.6922 46.6499 42.9929C48.8416 39.208 50 34.8851 50 30.4915C50 16.7064 38.7851 5.49146 25 5.49146Z" fill="#FFB120"/>
</svg>
