<svg width="50" height="51" viewBox="0 0 50 51" fill="none" xmlns="http://www.w3.org/2000/svg">
<g clip-path="url(#clip0_444_342)">
<path d="M14.0169 0.174805C13.2079 0.174805 12.5521 0.830664 12.5521 1.63965V12.7269H1.46484C0.655859 12.7269 0 13.3827 0 14.1917C0 15.0007 0.655859 15.6565 1.46484 15.6565H14.0169C14.8259 15.6565 15.4817 15.0007 15.4817 14.1917V1.63965C15.4817 0.830664 14.8259 0.174805 14.0169 0.174805Z" fill="#FFB120"/>
<path d="M14.0169 34.6931H1.46484C0.655859 34.6931 0 35.349 0 36.158C0 36.9669 0.655859 37.6228 1.46484 37.6228H12.5521V48.71C12.5521 49.519 13.2079 50.1749 14.0169 50.1749C14.8259 50.1749 15.4817 49.519 15.4817 48.71V36.158C15.4817 35.349 14.8259 34.6931 14.0169 34.6931Z" fill="#FFB120"/>
<path d="M35.9834 15.6565H48.5354C49.3444 15.6565 50.0003 15.0007 50.0003 14.1917C50.0003 13.3827 49.3444 12.7269 48.5354 12.7269H37.4482V1.63965C37.4482 0.830664 36.7924 0.174805 35.9834 0.174805C35.1744 0.174805 34.5186 0.830664 34.5186 1.63965V14.1917C34.5186 15.0007 35.1744 15.6565 35.9834 15.6565Z" fill="#FFB120"/>
<path d="M48.5354 34.6931H35.9834C35.1744 34.6931 34.5186 35.349 34.5186 36.158V48.71C34.5186 49.519 35.1744 50.1749 35.9834 50.1749C36.7924 50.1749 37.4482 49.519 37.4482 48.71V37.6228H48.5354C49.3444 37.6228 50.0003 36.9669 50.0003 36.158C50.0003 35.349 49.3444 34.6931 48.5354 34.6931Z" fill="#FFB120"/>
<path d="M25 9.58887C24.191 9.58887 23.5352 10.2447 23.5352 11.0537V14.1917C23.5352 15.0007 24.191 15.6565 25 15.6565C25.809 15.6565 26.4648 15.0007 26.4648 14.1917V11.0537C26.4648 10.2447 25.809 9.58887 25 9.58887Z" fill="#FFB120"/>
<path d="M25 44.1072C24.191 44.1072 23.5352 44.763 23.5352 45.572V48.71C23.5352 49.519 24.191 50.1749 25 50.1749C25.809 50.1749 26.4648 49.519 26.4648 48.71V45.572C26.4648 44.763 25.809 44.1072 25 44.1072Z" fill="#FFB120"/>
<path d="M25 0.174805C24.191 0.174805 23.5352 0.830664 23.5352 1.63965V4.77764C23.5352 5.58662 24.191 6.24248 25 6.24248C25.809 6.24248 26.4648 5.58662 26.4648 4.77764V1.63965C26.4648 0.830664 25.809 0.174805 25 0.174805Z" fill="#FFB120"/>
<path d="M25 34.6931C24.191 34.6931 23.5352 35.349 23.5352 36.158V39.2959C23.5352 40.1049 24.191 40.7608 25 40.7608C25.809 40.7608 26.4648 40.1049 26.4648 39.2959V36.158C26.4648 35.349 25.809 34.6931 25 34.6931Z" fill="#FFB120"/>
<path d="M35.9834 26.6396H39.1214C39.9304 26.6396 40.5862 25.9838 40.5862 25.1748C40.5862 24.3658 39.9304 23.71 39.1214 23.71H35.9834C35.1744 23.71 34.5186 24.3658 34.5186 25.1748C34.5186 25.9838 35.1744 26.6396 35.9834 26.6396Z" fill="#FFB120"/>
<path d="M1.46484 26.6396H4.60283C5.41182 26.6396 6.06768 25.9838 6.06768 25.1748C6.06768 24.3658 5.41182 23.71 4.60283 23.71H1.46484C0.655859 23.71 0 24.3658 0 25.1748C0 25.9838 0.655859 26.6396 1.46484 26.6396Z" fill="#FFB120"/>
<path d="M48.5354 23.71H45.3975C44.5885 23.71 43.9326 24.3658 43.9326 25.1748C43.9326 25.9838 44.5885 26.6396 45.3975 26.6396H48.5354C49.3444 26.6396 50.0003 25.9838 50.0003 25.1748C50.0003 24.3658 49.3444 23.71 48.5354 23.71Z" fill="#FFB120"/>
<path d="M14.0169 23.71H10.8789C10.0699 23.71 9.41406 24.3658 9.41406 25.1748C9.41406 25.9838 10.0699 26.6396 10.8789 26.6396H14.0169C14.8259 26.6396 15.4817 25.9838 15.4817 25.1748C15.4817 24.3658 14.8259 23.71 14.0169 23.71Z" fill="#FFB120"/>
</g>
<defs>
<clipPath id="clip0_444_342">
<rect width="50" height="50" fill="white" transform="translate(0 0.174805)"/>
</clipPath>
</defs>
</svg>
