<svg width="51" height="51" viewBox="0 0 51 51" fill="none" xmlns="http://www.w3.org/2000/svg">
<g clip-path="url(#clip0_187_144)">
<path d="M47.411 20.0992C48.5198 19.8481 50.9883 18.6197 50.9883 15.6117C50.9883 13.0738 48.9367 11.0088 46.3839 11.0088C44.5672 11.0088 42.8961 11.6396 41.5742 12.6915V12.4737C41.5742 7.33286 37.4153 3.16382 32.2644 3.16382H19.7122C14.5706 3.16382 10.4023 7.32271 10.4023 12.4737V12.6917C9.08027 11.6397 7.40859 11.0088 5.59111 11.0088C3.04863 11.0088 0.988281 13.0653 0.988281 15.6117C0.988281 18.6188 3.45557 19.8477 4.56553 20.0992C2.27002 22.183 0.988281 25.0705 0.988281 28.1637V40.7158C0.988281 44.119 3.75703 46.8876 7.16016 46.8876C10.5633 46.8876 13.332 44.1189 13.332 40.7158V39.0426H38.6445V40.7158C38.6445 44.119 41.4133 46.8876 44.8164 46.8876C48.2195 46.8876 50.9883 44.1189 50.9883 40.7158V28.1637C50.9883 25.0755 49.7105 22.1867 47.411 20.0992ZM46.3854 13.9385C47.3118 13.9385 48.0586 14.6881 48.0586 15.6117C48.0586 16.5232 47.3217 17.2848 46.3854 17.2848H41.8018C42.4224 15.3461 44.2421 13.9385 46.3854 13.9385ZM13.332 12.4737C13.332 8.95064 16.1822 6.09351 19.7122 6.09351H32.2643C35.788 6.09351 38.6444 8.9437 38.6444 12.4737V17.2849H36.8672V17.1807C36.8672 14.2045 34.4597 11.7933 31.4798 11.7933C28.5037 11.7933 26.0924 14.2007 26.0924 17.1807V17.2849H13.332V12.4737ZM33.9375 17.1807V17.2849H29.0221V17.1807C29.0221 15.8274 30.1221 14.723 31.4798 14.723C32.8415 14.723 33.9375 15.8311 33.9375 17.1807ZM3.91797 15.6117C3.91797 14.692 4.66025 13.9385 5.59268 13.9385C7.73467 13.9385 9.5541 15.3462 10.1747 17.2849H5.59111C4.6792 17.2848 3.91797 16.5474 3.91797 15.6117ZM10.4023 40.7159C10.4023 42.5037 8.94795 43.9581 7.16016 43.9581C5.37236 43.9581 3.91797 42.5036 3.91797 40.7159V39.0427H10.4023V40.7159ZM48.0586 40.7159C48.0586 42.5037 46.6041 43.9581 44.8164 43.9581C43.0287 43.9581 41.5742 42.5036 41.5742 40.7159V39.0427H48.0586V40.7159ZM48.0586 36.1129H3.91797V28.1637C3.91797 23.7743 7.46934 20.2145 11.8672 20.2145H40.1094C44.4987 20.2145 48.0586 23.7659 48.0586 28.1637V36.1129Z" fill="#FFB120"/>
<path d="M11.8675 23.5608C9.32949 23.5608 7.26465 25.6256 7.26465 28.1636C7.26465 30.7016 9.32949 32.7665 11.8675 32.7665C14.4055 32.7665 16.4703 30.7016 16.4703 28.1636C16.4703 25.6256 14.4055 23.5608 11.8675 23.5608ZM11.8675 29.8369C10.9449 29.8369 10.1943 29.0863 10.1943 28.1637C10.1943 27.2412 10.9449 26.4905 11.8675 26.4905C12.79 26.4905 13.5406 27.2411 13.5406 28.1636C13.5406 29.0862 12.79 29.8369 11.8675 29.8369Z" fill="#FFB120"/>
<path d="M40.1097 23.5608C37.5717 23.5608 35.5068 25.6256 35.5068 28.1636C35.5068 30.7016 37.5717 32.7665 40.1097 32.7665C42.6477 32.7665 44.7126 30.7016 44.7126 28.1636C44.7126 25.6256 42.6477 23.5608 40.1097 23.5608ZM40.1097 29.8369C39.1871 29.8369 38.4365 29.0863 38.4365 28.1637C38.4365 27.2412 39.187 26.4905 40.1097 26.4905C41.0323 26.4905 41.7829 27.2411 41.7829 28.1636C41.7829 29.0862 41.0322 29.8369 40.1097 29.8369Z" fill="#FFB120"/>
<path d="M30.6953 23.5608H21.2812C20.4723 23.5608 19.8164 24.2167 19.8164 25.0256C19.8164 25.8346 20.4723 26.4905 21.2812 26.4905H30.6953C31.5043 26.4905 32.1602 25.8346 32.1602 25.0256C32.1602 24.2167 31.5043 23.5608 30.6953 23.5608Z" fill="#FFB120"/>
<path d="M30.6953 29.8369H21.2812C20.4723 29.8369 19.8164 30.4928 19.8164 31.3018C19.8164 32.1107 20.4723 32.7666 21.2812 32.7666H30.6953C31.5043 32.7666 32.1602 32.1107 32.1602 31.3018C32.1602 30.4928 31.5043 29.8369 30.6953 29.8369Z" fill="#FFB120"/>
</g>
<defs>
<clipPath id="clip0_187_144">
<rect width="50" height="50" fill="white" transform="translate(0.988281 0.0256348)"/>
</clipPath>
</defs>
</svg>
