<svg width="21" height="21" viewBox="0 0 21 21" fill="none" xmlns="http://www.w3.org/2000/svg">
<g clip-path="url(#clip0_195_610)">
<path d="M10.2832 20.7783C15.7965 20.7783 20.2832 16.2916 20.2832 10.7783C20.2832 5.265 15.7966 0.77832 10.2832 0.77832C4.76982 0.77832 0.283203 5.265 0.283203 10.7783C0.283203 16.2916 4.76988 20.7783 10.2832 20.7783ZM10.2832 2.11163C15.0632 2.11163 18.9499 5.99828 18.9499 10.7783C18.9499 15.5584 15.0632 19.445 10.2832 19.445C5.50317 19.445 1.61651 15.5584 1.61651 10.7783C1.61651 5.99828 5.50322 2.11163 10.2832 2.11163Z" fill="#FFB120"/>
<path d="M13.1995 13.965C13.3229 14.065 13.4695 14.1117 13.6162 14.1117C13.8129 14.1117 14.0062 14.025 14.1362 13.8617C14.3662 13.575 14.3195 13.155 14.0329 12.925L10.9495 10.4583V5.44498C10.9495 5.0783 10.6495 4.77832 10.2829 4.77832C9.91619 4.77832 9.61621 5.0783 9.61621 5.44498V10.7783C9.61621 10.9817 9.70956 11.1717 9.86621 11.2983L13.1995 13.965Z" fill="#FFB120"/>
</g>
<defs>
<clipPath id="clip0_195_610">
<rect width="20" height="20" fill="white" transform="translate(0.283203 0.77832)"/>
</clipPath>
</defs>
</svg>
