<svg width="50" height="51" viewBox="0 0 50 51" fill="none" xmlns="http://www.w3.org/2000/svg">
<g clip-path="url(#clip0_310_567)">
<path d="M14.0169 0.14502C13.2079 0.14502 12.5521 0.800879 12.5521 1.60986V12.6971H1.46484C0.655859 12.6971 0 13.3529 0 14.1619C0 14.9709 0.655859 15.6268 1.46484 15.6268H14.0169C14.8259 15.6268 15.4817 14.9709 15.4817 14.1619V1.60986C15.4817 0.800879 14.8259 0.14502 14.0169 0.14502Z" fill="white"/>
<path d="M14.0169 34.6631H1.46484C0.655859 34.6631 0 35.3189 0 36.1279C0 36.9369 0.655859 37.5928 1.46484 37.5928H12.5521V48.68C12.5521 49.489 13.2079 50.1448 14.0169 50.1448C14.8259 50.1448 15.4817 49.489 15.4817 48.68V36.1279C15.4817 35.3189 14.8259 34.6631 14.0169 34.6631Z" fill="white"/>
<path d="M35.9834 15.6268H48.5354C49.3444 15.6268 50.0003 14.9709 50.0003 14.1619C50.0003 13.3529 49.3444 12.6971 48.5354 12.6971H37.4482V1.60986C37.4482 0.800879 36.7924 0.14502 35.9834 0.14502C35.1744 0.14502 34.5186 0.800879 34.5186 1.60986V14.1619C34.5186 14.9709 35.1744 15.6268 35.9834 15.6268Z" fill="white"/>
<path d="M48.5354 34.6631H35.9834C35.1744 34.6631 34.5186 35.3189 34.5186 36.1279V48.68C34.5186 49.489 35.1744 50.1448 35.9834 50.1448C36.7924 50.1448 37.4482 49.489 37.4482 48.68V37.5928H48.5354C49.3444 37.5928 50.0003 36.9369 50.0003 36.1279C50.0003 35.3189 49.3444 34.6631 48.5354 34.6631Z" fill="white"/>
<path d="M25 9.55908C24.191 9.55908 23.5352 10.2149 23.5352 11.0239V14.1619C23.5352 14.9709 24.191 15.6268 25 15.6268C25.809 15.6268 26.4648 14.9709 26.4648 14.1619V11.0239C26.4648 10.2149 25.809 9.55908 25 9.55908Z" fill="white"/>
<path d="M25 44.0771C24.191 44.0771 23.5352 44.733 23.5352 45.542V48.68C23.5352 49.489 24.191 50.1448 25 50.1448C25.809 50.1448 26.4648 49.489 26.4648 48.68V45.542C26.4648 44.733 25.809 44.0771 25 44.0771Z" fill="white"/>
<path d="M25 0.14502C24.191 0.14502 23.5352 0.800879 23.5352 1.60986V4.74785C23.5352 5.55684 24.191 6.2127 25 6.2127C25.809 6.2127 26.4648 5.55684 26.4648 4.74785V1.60986C26.4648 0.800879 25.809 0.14502 25 0.14502Z" fill="white"/>
<path d="M25 34.6631C24.191 34.6631 23.5352 35.3189 23.5352 36.1279V39.2659C23.5352 40.0749 24.191 40.7308 25 40.7308C25.809 40.7308 26.4648 40.0749 26.4648 39.2659V36.1279C26.4648 35.3189 25.809 34.6631 25 34.6631Z" fill="white"/>
<path d="M35.9834 26.6099H39.1214C39.9304 26.6099 40.5862 25.954 40.5862 25.145C40.5862 24.336 39.9304 23.6802 39.1214 23.6802H35.9834C35.1744 23.6802 34.5186 24.336 34.5186 25.145C34.5186 25.954 35.1744 26.6099 35.9834 26.6099Z" fill="white"/>
<path d="M1.46484 26.6099H4.60283C5.41182 26.6099 6.06768 25.954 6.06768 25.145C6.06768 24.336 5.41182 23.6802 4.60283 23.6802H1.46484C0.655859 23.6802 0 24.336 0 25.145C0 25.954 0.655859 26.6099 1.46484 26.6099Z" fill="white"/>
<path d="M48.5354 23.6802H45.3975C44.5885 23.6802 43.9326 24.336 43.9326 25.145C43.9326 25.954 44.5885 26.6099 45.3975 26.6099H48.5354C49.3444 26.6099 50.0003 25.954 50.0003 25.145C50.0003 24.336 49.3444 23.6802 48.5354 23.6802Z" fill="white"/>
<path d="M14.0169 23.6802H10.8789C10.0699 23.6802 9.41406 24.336 9.41406 25.145C9.41406 25.954 10.0699 26.6099 10.8789 26.6099H14.0169C14.8259 26.6099 15.4817 25.954 15.4817 25.145C15.4817 24.336 14.8259 23.6802 14.0169 23.6802Z" fill="white"/>
</g>
<defs>
<clipPath id="clip0_310_567">
<rect width="50" height="50" fill="white" transform="translate(0 0.14502)"/>
</clipPath>
</defs>
</svg>
