<svg width="50" height="51" viewBox="0 0 50 51" fill="none" xmlns="http://www.w3.org/2000/svg">
<g clip-path="url(#clip0_447_626)">
<path d="M46.4228 20.3973C47.5315 20.1462 50 18.9178 50 15.9098C50 13.3719 47.9484 11.3069 45.3956 11.3069C43.5789 11.3069 41.9078 11.9377 40.5859 12.9896V12.7718C40.5859 7.63096 36.4271 3.46191 31.2761 3.46191H18.7239C13.5823 3.46191 9.41406 7.6208 9.41406 12.7718V12.9898C8.09199 11.9378 6.42031 11.3069 4.60283 11.3069C2.06035 11.3069 0 13.3634 0 15.9098C0 18.9169 2.46729 20.1458 3.57725 20.3973C1.28174 22.4811 0 25.3686 0 28.4618V41.0139C0 44.4171 2.76875 47.1857 6.17188 47.1857C9.575 47.1857 12.3438 44.417 12.3438 41.0139V39.3407H37.6562V41.0139C37.6562 44.4171 40.425 47.1857 43.8281 47.1857C47.2312 47.1857 50 44.417 50 41.0139V28.4618C50 25.3736 48.7223 22.4848 46.4228 20.3973ZM45.3971 14.2366C46.3235 14.2366 47.0703 14.9862 47.0703 15.9098C47.0703 16.8213 46.3334 17.5829 45.3971 17.5829H40.8135C41.4341 15.6442 43.2538 14.2366 45.3971 14.2366ZM12.3438 12.7718C12.3438 9.24873 15.1939 6.3916 18.7239 6.3916H31.276C34.7997 6.3916 37.6562 9.2418 37.6562 12.7718V17.583H35.8789V17.4788C35.8789 14.5026 33.4714 12.0914 30.4915 12.0914C27.5154 12.0914 25.1041 14.4988 25.1041 17.4788V17.583H12.3438V12.7718ZM32.9492 17.4788V17.583H28.0338V17.4788C28.0338 16.1255 29.1338 15.0211 30.4915 15.0211C31.8532 15.0211 32.9492 16.1292 32.9492 17.4788ZM2.92969 15.9098C2.92969 14.9901 3.67197 14.2366 4.60439 14.2366C6.74639 14.2366 8.56582 15.6443 9.18643 17.583H4.60283C3.69092 17.5829 2.92969 16.8455 2.92969 15.9098ZM9.41406 41.014C9.41406 42.8018 7.95967 44.2562 6.17188 44.2562C4.38408 44.2562 2.92969 42.8017 2.92969 41.014V39.3408H9.41406V41.014ZM47.0703 41.014C47.0703 42.8018 45.6158 44.2562 43.8281 44.2562C42.0404 44.2562 40.5859 42.8017 40.5859 41.014V39.3408H47.0703V41.014ZM47.0703 36.411H2.92969V28.4618C2.92969 24.0724 6.48105 20.5126 10.8789 20.5126H39.1211C43.5104 20.5126 47.0703 24.064 47.0703 28.4618V36.411Z" fill="#FFB120"/>
<path d="M10.8792 23.8589C8.34121 23.8589 6.27637 25.9237 6.27637 28.4617C6.27637 30.9997 8.34121 33.0646 10.8792 33.0646C13.4172 33.0646 15.482 30.9997 15.482 28.4617C15.482 25.9237 13.4172 23.8589 10.8792 23.8589ZM10.8792 30.135C9.95664 30.135 9.20605 29.3844 9.20605 28.4618C9.20605 27.5393 9.95664 26.7886 10.8792 26.7886C11.8018 26.7886 12.5523 27.5392 12.5523 28.4617C12.5523 29.3843 11.8018 30.135 10.8792 30.135Z" fill="#FFB120"/>
<path d="M39.1214 23.8589C36.5834 23.8589 34.5186 25.9237 34.5186 28.4617C34.5186 30.9997 36.5834 33.0646 39.1214 33.0646C41.6594 33.0646 43.7243 30.9997 43.7243 28.4617C43.7243 25.9237 41.6594 23.8589 39.1214 23.8589ZM39.1214 30.135C38.1988 30.135 37.4482 29.3844 37.4482 28.4618C37.4482 27.5393 38.1987 26.7886 39.1214 26.7886C40.044 26.7886 40.7946 27.5392 40.7946 28.4617C40.7946 29.3843 40.0439 30.135 39.1214 30.135Z" fill="#FFB120"/>
<path d="M29.707 23.8589H20.293C19.484 23.8589 18.8281 24.5147 18.8281 25.3237C18.8281 26.1327 19.484 26.7886 20.293 26.7886H29.707C30.516 26.7886 31.1719 26.1327 31.1719 25.3237C31.1719 24.5147 30.516 23.8589 29.707 23.8589Z" fill="#FFB120"/>
<path d="M29.707 30.1353H20.293C19.484 30.1353 18.8281 30.7911 18.8281 31.6001C18.8281 32.4091 19.484 33.0649 20.293 33.0649H29.707C30.516 33.0649 31.1719 32.4091 31.1719 31.6001C31.1719 30.7911 30.516 30.1353 29.707 30.1353Z" fill="#FFB120"/>
</g>
<defs>
<clipPath id="clip0_447_626">
<rect width="50" height="50" fill="white" transform="translate(0 0.32373)"/>
</clipPath>
</defs>
</svg>
