<svg width="51" height="51" viewBox="0 0 51 51" fill="none" xmlns="http://www.w3.org/2000/svg">
<g clip-path="url(#clip0_310_559)">
<path d="M47.411 20.2442C48.5198 19.9931 50.9883 18.7647 50.9883 15.7567C50.9883 13.2188 48.9367 11.1539 46.3839 11.1539C44.5672 11.1539 42.8961 11.7846 41.5742 12.8365V12.6187C41.5742 7.47788 37.4153 3.30884 32.2644 3.30884H19.7122C14.5706 3.30884 10.4023 7.46773 10.4023 12.6187V12.8368C9.08027 11.7847 7.40859 11.1539 5.59111 11.1539C3.04863 11.1539 0.988281 13.2103 0.988281 15.7567C0.988281 18.7638 3.45557 19.9927 4.56553 20.2442C2.27002 22.328 0.988281 25.2155 0.988281 28.3087V40.8608C0.988281 44.264 3.75703 47.0327 7.16016 47.0327C10.5633 47.0327 13.332 44.2639 13.332 40.8608V39.1876H38.6445V40.8608C38.6445 44.264 41.4133 47.0327 44.8164 47.0327C48.2195 47.0327 50.9883 44.2639 50.9883 40.8608V28.3087C50.9883 25.2206 49.7105 22.3317 47.411 20.2442ZM46.3854 14.0835C47.3118 14.0835 48.0586 14.8332 48.0586 15.7567C48.0586 16.6682 47.3217 17.4298 46.3854 17.4298H41.8018C42.4224 15.4912 44.2421 14.0835 46.3854 14.0835ZM13.332 12.6187C13.332 9.09565 16.1822 6.23853 19.7122 6.23853H32.2643C35.788 6.23853 38.6444 9.08872 38.6444 12.6187V17.4299H36.8672V17.3257C36.8672 14.3496 34.4597 11.9383 31.4798 11.9383C28.5037 11.9383 26.0924 14.3458 26.0924 17.3257V17.4299H13.332V12.6187ZM33.9375 17.3257V17.4299H29.0221V17.3257C29.0221 15.9724 30.1221 14.868 31.4798 14.868C32.8415 14.868 33.9375 15.9761 33.9375 17.3257ZM3.91797 15.7567C3.91797 14.8371 4.66025 14.0835 5.59268 14.0835C7.73467 14.0835 9.5541 15.4913 10.1747 17.4299H5.59111C4.6792 17.4298 3.91797 16.6924 3.91797 15.7567ZM10.4023 40.8609C10.4023 42.6487 8.94795 44.1031 7.16016 44.1031C5.37236 44.1031 3.91797 42.6486 3.91797 40.8609V39.1877H10.4023V40.8609ZM48.0586 40.8609C48.0586 42.6487 46.6041 44.1031 44.8164 44.1031C43.0287 44.1031 41.5742 42.6486 41.5742 40.8609V39.1877H48.0586V40.8609ZM48.0586 36.258H3.91797V28.3087C3.91797 23.9193 7.46934 20.3595 11.8672 20.3595H40.1094C44.4987 20.3595 48.0586 23.9109 48.0586 28.3087V36.258Z" fill="white"/>
<path d="M11.8675 23.7058C9.32949 23.7058 7.26465 25.7707 7.26465 28.3086C7.26465 30.8466 9.32949 32.9115 11.8675 32.9115C14.4055 32.9115 16.4703 30.8466 16.4703 28.3086C16.4703 25.7707 14.4055 23.7058 11.8675 23.7058ZM11.8675 29.9819C10.9449 29.9819 10.1943 29.2313 10.1943 28.3087C10.1943 27.3862 10.9449 26.6355 11.8675 26.6355C12.79 26.6355 13.5406 27.3861 13.5406 28.3086C13.5406 29.2312 12.79 29.9819 11.8675 29.9819Z" fill="white"/>
<path d="M40.1097 23.7058C37.5717 23.7058 35.5068 25.7707 35.5068 28.3086C35.5068 30.8466 37.5717 32.9115 40.1097 32.9115C42.6477 32.9115 44.7126 30.8466 44.7126 28.3086C44.7126 25.7707 42.6477 23.7058 40.1097 23.7058ZM40.1097 29.9819C39.1871 29.9819 38.4365 29.2313 38.4365 28.3087C38.4365 27.3862 39.187 26.6355 40.1097 26.6355C41.0323 26.6355 41.7829 27.3861 41.7829 28.3086C41.7829 29.2312 41.0322 29.9819 40.1097 29.9819Z" fill="white"/>
<path d="M30.6953 23.7058H21.2812C20.4723 23.7058 19.8164 24.3617 19.8164 25.1707C19.8164 25.9796 20.4723 26.6355 21.2812 26.6355H30.6953C31.5043 26.6355 32.1602 25.9796 32.1602 25.1707C32.1602 24.3617 31.5043 23.7058 30.6953 23.7058Z" fill="white"/>
<path d="M30.6953 29.9819H21.2812C20.4723 29.9819 19.8164 30.6378 19.8164 31.4468C19.8164 32.2558 20.4723 32.9116 21.2812 32.9116H30.6953C31.5043 32.9116 32.1602 32.2558 32.1602 31.4468C32.1602 30.6378 31.5043 29.9819 30.6953 29.9819Z" fill="white"/>
</g>
<defs>
<clipPath id="clip0_310_559">
<rect width="50" height="50" fill="white" transform="translate(0.988281 0.170654)"/>
</clipPath>
</defs>
</svg>
