<svg width="26" height="26" viewBox="0 0 26 26" fill="none" xmlns="http://www.w3.org/2000/svg">
<g clip-path="url(#clip0_156_2187)">
<path d="M24.6146 18.7508L21.1258 15.262C19.8798 14.016 17.7616 14.5144 17.2632 16.1342C16.8894 17.2556 15.6433 17.8786 14.5219 17.6294C12.0299 17.0064 8.66569 13.7668 8.04269 11.1501C7.66889 10.0287 8.41649 8.78268 9.5379 8.40893C11.1577 7.91052 11.6561 5.79231 10.4101 4.5463L6.92128 1.05747C5.92447 0.185269 4.42926 0.185269 3.55706 1.05747L1.18964 3.42489C-1.17778 5.91691 1.43884 12.5208 7.29508 18.377C13.1513 24.2332 19.7552 26.9745 22.2472 24.4824L24.6146 22.115C25.4869 21.1182 25.4869 19.623 24.6146 18.7508Z" fill="#100F11"/>
</g>
<defs>
<clipPath id="clip0_156_2187">
<rect width="25" height="25" fill="white" transform="translate(0.294922 0.40332)"/>
</clipPath>
</defs>
</svg>
