<svg width="50" height="50" viewBox="0 0 50 50" fill="none" xmlns="http://www.w3.org/2000/svg">
<g clip-path="url(#clip0_187_152)">
<path d="M14.0169 0C13.2079 0 12.5521 0.655859 12.5521 1.46484V12.5521H1.46484C0.655859 12.5521 0 13.2079 0 14.0169C0 14.8259 0.655859 15.4817 1.46484 15.4817H14.0169C14.8259 15.4817 15.4817 14.8259 15.4817 14.0169V1.46484C15.4817 0.655859 14.8259 0 14.0169 0Z" fill="#FFB120"/>
<path d="M14.0169 34.5183H1.46484C0.655859 34.5183 0 35.1742 0 35.9832C0 36.7921 0.655859 37.448 1.46484 37.448H12.5521V48.5352C12.5521 49.3442 13.2079 50 14.0169 50C14.8259 50 15.4817 49.3442 15.4817 48.5352V35.9832C15.4817 35.1742 14.8259 34.5183 14.0169 34.5183Z" fill="#FFB120"/>
<path d="M35.9834 15.4817H48.5354C49.3444 15.4817 50.0003 14.8259 50.0003 14.0169C50.0003 13.2079 49.3444 12.5521 48.5354 12.5521H37.4482V1.46484C37.4482 0.655859 36.7924 0 35.9834 0C35.1744 0 34.5186 0.655859 34.5186 1.46484V14.0169C34.5186 14.8259 35.1744 15.4817 35.9834 15.4817Z" fill="#FFB120"/>
<path d="M48.5354 34.5183H35.9834C35.1744 34.5183 34.5186 35.1742 34.5186 35.9832V48.5352C34.5186 49.3442 35.1744 50 35.9834 50C36.7924 50 37.4482 49.3442 37.4482 48.5352V37.448H48.5354C49.3444 37.448 50.0003 36.7921 50.0003 35.9832C50.0003 35.1742 49.3444 34.5183 48.5354 34.5183Z" fill="#FFB120"/>
<path d="M25 9.41406C24.191 9.41406 23.5352 10.0699 23.5352 10.8789V14.0169C23.5352 14.8259 24.191 15.4817 25 15.4817C25.809 15.4817 26.4648 14.8259 26.4648 14.0169V10.8789C26.4648 10.0699 25.809 9.41406 25 9.41406Z" fill="#FFB120"/>
<path d="M25 43.9324C24.191 43.9324 23.5352 44.5882 23.5352 45.3972V48.5352C23.5352 49.3442 24.191 50 25 50C25.809 50 26.4648 49.3442 26.4648 48.5352V45.3972C26.4648 44.5882 25.809 43.9324 25 43.9324Z" fill="#FFB120"/>
<path d="M25 0C24.191 0 23.5352 0.655859 23.5352 1.46484V4.60283C23.5352 5.41182 24.191 6.06768 25 6.06768C25.809 6.06768 26.4648 5.41182 26.4648 4.60283V1.46484C26.4648 0.655859 25.809 0 25 0Z" fill="#FFB120"/>
<path d="M25 34.5183C24.191 34.5183 23.5352 35.1742 23.5352 35.9832V39.1211C23.5352 39.9301 24.191 40.586 25 40.586C25.809 40.586 26.4648 39.9301 26.4648 39.1211V35.9832C26.4648 35.1742 25.809 34.5183 25 34.5183Z" fill="#FFB120"/>
<path d="M35.9834 26.4648H39.1214C39.9304 26.4648 40.5862 25.809 40.5862 25C40.5862 24.191 39.9304 23.5352 39.1214 23.5352H35.9834C35.1744 23.5352 34.5186 24.191 34.5186 25C34.5186 25.809 35.1744 26.4648 35.9834 26.4648Z" fill="#FFB120"/>
<path d="M1.46484 26.4648H4.60283C5.41182 26.4648 6.06768 25.809 6.06768 25C6.06768 24.191 5.41182 23.5352 4.60283 23.5352H1.46484C0.655859 23.5352 0 24.191 0 25C0 25.809 0.655859 26.4648 1.46484 26.4648Z" fill="#FFB120"/>
<path d="M48.5354 23.5352H45.3975C44.5885 23.5352 43.9326 24.191 43.9326 25C43.9326 25.809 44.5885 26.4648 45.3975 26.4648H48.5354C49.3444 26.4648 50.0003 25.809 50.0003 25C50.0003 24.191 49.3444 23.5352 48.5354 23.5352Z" fill="#FFB120"/>
<path d="M14.0169 23.5352H10.8789C10.0699 23.5352 9.41406 24.191 9.41406 25C9.41406 25.809 10.0699 26.4648 10.8789 26.4648H14.0169C14.8259 26.4648 15.4817 25.809 15.4817 25C15.4817 24.191 14.8259 23.5352 14.0169 23.5352Z" fill="#FFB120"/>
</g>
<defs>
<clipPath id="clip0_187_152">
<rect width="50" height="50" fill="white"/>
</clipPath>
</defs>
</svg>
