<svg width="50" height="51" viewBox="0 0 50 51" fill="none" xmlns="http://www.w3.org/2000/svg">
<path d="M29.707 41.7535H20.293C19.484 41.7535 18.8281 42.4094 18.8281 43.2184C18.8281 44.0274 19.484 44.6832 20.293 44.6832H29.707C30.516 44.6832 31.1719 44.0274 31.1719 43.2184C31.1719 42.4094 30.516 41.7535 29.707 41.7535Z" fill="#FFB120"/>
<path d="M29.1197 32.7143C29.4273 32.0971 29.6012 31.4016 29.6012 30.6652C29.6012 28.1239 27.5411 26.0637 24.9998 26.0637C24.2631 26.0637 23.5675 26.2377 22.9502 26.5455L16.0504 19.6454C15.4785 19.0733 14.5509 19.0733 13.9789 19.6454C13.4068 20.2173 13.4068 21.1448 13.9789 21.7169L20.8792 28.6175C20.572 29.2343 20.3984 29.9293 20.3984 30.6652C20.3984 33.2065 22.4585 35.2667 24.9999 35.2667C25.7359 35.2667 26.431 35.0929 27.0479 34.7857L28.671 36.409C29.2431 36.9811 30.1705 36.9813 30.7426 36.4092C31.3147 35.8373 31.3148 34.9098 30.7427 34.3376L29.1197 32.7143ZM24.9998 32.337C24.078 32.337 23.328 31.5871 23.328 30.6653C23.328 29.7435 24.0779 28.9935 24.9998 28.9935C25.9216 28.9935 26.6715 29.7435 26.6715 30.6653C26.6715 31.5871 25.9215 32.337 24.9998 32.337Z" fill="#FFB120"/>
<path d="M25 5.66626C11.2149 5.66626 0 16.8812 0 30.6663C0 35.0598 1.1584 39.3828 3.3501 43.1679C3.75498 43.8671 4.64971 44.1063 5.34951 43.7027C5.3498 43.7025 9.42676 41.349 9.42676 41.349C10.1273 40.9445 10.3674 40.0487 9.96289 39.348C9.5584 38.6474 8.66269 38.4071 7.96191 38.8119L5.19512 40.4092C3.92422 37.8291 3.17178 35.0123 2.98027 32.1312H6.17188C6.98086 32.1312 7.63672 31.4753 7.63672 30.6664C7.63672 29.8574 6.98086 29.2015 6.17188 29.2015H2.97949C3.17402 26.2478 3.95186 23.4512 5.19932 20.9258L7.96201 22.5208C8.66279 22.9256 9.55869 22.6853 9.96299 21.9847C10.3675 21.284 10.1274 20.3881 9.42686 19.9837L6.66758 18.3906C8.27353 16.0001 10.334 13.9397 12.7244 12.3337L14.3174 15.0927C14.7219 15.7934 15.6178 16.0336 16.3184 15.6289C17.0189 15.2243 17.259 14.3285 16.8545 13.6279L15.2596 10.8655C17.785 9.61811 20.5816 8.84077 23.5352 8.64595V11.8382C23.5352 12.6472 24.191 13.3031 25 13.3031C25.809 13.3031 26.4648 12.6472 26.4648 11.8382V8.64595C29.4184 8.84077 32.215 9.61821 34.7404 10.8655L33.1455 13.6279C32.741 14.3285 32.9811 15.2244 33.6816 15.6289C34.3822 16.0336 35.2781 15.7934 35.6826 15.0927L37.2756 12.3337C39.666 13.9396 41.7266 16 43.3324 18.3906L40.5732 19.9835C39.8727 20.388 39.6326 21.2838 40.0371 21.9845C40.4415 22.6851 41.3373 22.9254 42.0381 22.5207L44.8008 20.9256C46.0481 23.451 46.8261 26.2476 47.0206 29.2013H43.8281C43.0191 29.2013 42.3633 29.8572 42.3633 30.6662C42.3633 31.4751 43.0191 32.131 43.8281 32.131H47.0197C46.8282 35.0121 46.0758 37.8289 44.8049 40.409L42.0381 38.8117C41.3373 38.4069 40.4416 38.6472 40.0371 39.3478C39.6326 40.0485 39.8727 40.9444 40.5732 41.3488C40.5732 41.3488 44.6502 43.7023 44.6505 43.7025C45.3504 44.1061 46.245 43.867 46.6499 43.1677C48.8416 39.3828 50 35.0599 50 30.6663C50 16.8812 38.7851 5.66626 25 5.66626Z" fill="#FFB120"/>
</svg>
