<svg width="30" height="30" viewBox="0 0 30 30" fill="none" xmlns="http://www.w3.org/2000/svg">
<g clip-path="url(#clip0_316_151)">
<path d="M14.4007 -0.013964C14.4434 -0.0145352 14.4862 -0.0151064 14.5303 -0.0156949C15.8436 -0.0296183 17.0353 0.0865167 18.2804 0.527342C18.3754 0.559631 18.3754 0.559631 18.4722 0.592573C20.782 1.42238 22.6306 3.22641 23.7297 5.39062C23.759 5.44757 23.7883 5.50452 23.8185 5.5632C24.7109 7.41018 24.981 9.78074 24.4914 11.7773C24.4739 11.8503 24.4739 11.8503 24.4561 11.9248C24.1214 13.286 23.5039 14.4824 22.7205 15.6363C22.5313 15.9162 22.3505 16.2014 22.1696 16.4868C22.1353 16.5409 22.101 16.5949 22.0657 16.6507C21.9938 16.764 21.922 16.8773 21.8501 16.9906C21.6533 17.3004 21.4556 17.6096 21.2577 17.9187C21.218 17.9808 21.1782 18.043 21.1372 18.107C20.8909 18.4917 20.6432 18.8755 20.3946 19.2586C20.1762 19.5957 19.9606 19.9344 19.7453 20.2734C19.5051 20.6516 19.2641 21.0292 19.0202 21.405C18.5946 22.0609 18.1742 22.7201 17.7531 23.3789C16.645 25.1123 16.645 25.1123 16.2401 25.7334C16.1722 25.8381 16.105 25.9433 16.0379 26.0486C15.9769 26.1428 15.9769 26.1428 15.9147 26.239C15.8804 26.2926 15.8461 26.3461 15.8108 26.4013C15.6482 26.6136 15.4879 26.7511 15.2336 26.8359C14.9059 26.8574 14.6904 26.8547 14.4132 26.6602C14.0728 26.3053 13.8292 25.8634 13.5728 25.4466C13.4219 25.2018 13.2664 24.9602 13.1095 24.7192C12.8645 24.3422 12.6219 23.9636 12.3808 23.584C11.7938 22.6603 11.2052 21.7375 10.6094 20.8195C10.3552 20.4271 10.1048 20.0324 9.85412 19.6378C9.64679 19.3116 9.43819 18.9863 9.2277 18.6621C8.94543 18.2274 8.66719 17.7902 8.38931 17.3527C8.18196 17.0265 7.97329 16.7012 7.76286 16.3769C7.7112 16.2971 7.65955 16.2172 7.6079 16.1373C7.51913 16 7.43012 15.8629 7.34071 15.726C6.90119 15.0525 6.4858 14.3844 6.15153 13.6523C6.11988 13.5854 6.08823 13.5185 6.05563 13.4496C5.8093 12.9073 5.64551 12.3549 5.507 11.7773C5.49724 11.7391 5.48747 11.7009 5.47742 11.6615C5.14189 10.3062 5.21817 8.66713 5.56559 7.32422C5.57656 7.27985 5.58753 7.23549 5.59884 7.18978C5.75676 6.56179 5.98693 5.97291 6.26872 5.39062C6.28677 5.35331 6.30482 5.316 6.32342 5.27756C6.69425 4.52359 7.15527 3.851 7.72898 3.23616C7.8408 3.11614 7.94662 2.99295 8.05216 2.86743C9.55289 1.16206 12.1347 0.0112159 14.4007 -0.013964ZM11.8351 6.67969C11.8004 6.71345 11.7656 6.74721 11.7298 6.782C10.9253 7.60685 10.6461 8.69845 10.6491 9.81711C10.6638 10.9366 11.1008 11.8732 11.8571 12.6892C11.9079 12.7363 11.9586 12.7835 12.0109 12.832C12.0447 12.8668 12.0784 12.9015 12.1132 12.9373C12.9381 13.7419 14.0297 14.021 15.1483 14.0181C16.2678 14.0034 17.2044 13.5664 18.0204 12.8101C18.0676 12.7593 18.1147 12.7085 18.1632 12.6562C18.198 12.6225 18.2327 12.5887 18.2685 12.5539C19.0731 11.7291 19.3522 10.6375 19.3493 9.51882C19.3346 8.39938 18.8976 7.46273 18.1413 6.64673C18.0905 6.5996 18.0398 6.55246 17.9875 6.5039C17.9537 6.46916 17.9199 6.43442 17.8852 6.39862C17.0603 5.59403 15.9687 5.31491 14.85 5.31784C13.6794 5.33325 12.6336 5.81974 11.8351 6.67969Z" fill="white"/>
<path d="M8.20382 20.2148C8.29496 20.3327 8.29496 20.3327 8.39311 20.4895C8.43 20.5478 8.4669 20.6062 8.50491 20.6663C8.56434 20.7619 8.56434 20.7619 8.62496 20.8594C8.66683 20.9259 8.70876 20.9924 8.75073 21.0588C8.83798 21.1971 8.925 21.3354 9.01186 21.4739C9.20913 21.788 9.40976 22.1 9.61007 22.4121C9.68783 22.5336 9.76557 22.655 9.8433 22.7765C9.88192 22.8368 9.92055 22.8972 9.96034 22.9594C10.0814 23.1486 10.2025 23.3379 10.3235 23.5272C10.688 24.0973 11.0526 24.6672 11.4214 25.2345C11.6078 25.5218 11.791 25.8111 11.9738 26.1008C12.8948 27.5705 12.8948 27.5705 14.412 28.3276C15.1864 28.4656 15.8917 28.3046 16.5713 27.9222C16.9387 27.6646 17.1957 27.39 17.436 27.0117C17.4657 26.966 17.4955 26.9203 17.5261 26.8733C17.6226 26.7246 17.718 26.5753 17.8132 26.4258C17.8452 26.3758 17.8772 26.3259 17.9101 26.2745C18.0798 26.0095 18.2487 25.744 18.417 25.4782C18.6419 25.1232 18.8683 24.7692 19.0949 24.4153C19.134 24.3542 19.1731 24.2931 19.2134 24.2302C19.2929 24.1061 19.3724 23.9819 19.4519 23.8578C19.609 23.6126 19.766 23.3673 19.923 23.122C20.0005 23.0007 20.0781 22.8795 20.1558 22.7583C20.3367 22.4757 20.5176 22.193 20.6978 21.9099C20.761 21.8105 20.8243 21.7112 20.8876 21.6119C20.9666 21.488 21.0455 21.3641 21.1243 21.24C21.3591 20.872 21.6027 20.5117 21.8562 20.1562C23.9864 20.5748 26.5166 21.4133 27.7984 23.2846C28.209 23.9602 28.2854 24.6826 28.1484 25.4569C27.7861 26.6712 26.6551 27.4369 25.5973 28.0091C24.9593 28.3465 24.3007 28.6079 23.614 28.8281C23.5378 28.8526 23.5378 28.8526 23.46 28.8776C21.983 29.3446 20.4626 29.6352 18.9265 29.8242C18.8577 29.8331 18.789 29.8419 18.7182 29.851C16.2321 30.1579 13.5582 30.1487 11.0749 29.8242C10.9945 29.8141 10.9141 29.8039 10.8338 29.7937C7.90047 29.4174 4.27783 28.7623 2.2934 26.3512C1.82529 25.7044 1.73241 24.9757 1.8171 24.1992C2.02408 23.1925 2.81725 22.438 3.6374 21.885C4.7595 21.1571 6.00774 20.7251 7.28463 20.354C7.35593 20.3332 7.42722 20.3124 7.50068 20.2909C7.60005 20.263 7.60005 20.263 7.70142 20.2345C7.76029 20.2179 7.81915 20.2014 7.87979 20.1843C8.02804 20.1562 8.02804 20.1562 8.20382 20.2148Z" fill="white"/>
</g>
<defs>
<clipPath id="clip0_316_151">
<rect width="30" height="30" fill="white"/>
</clipPath>
</defs>
</svg>
