<svg width="30" height="30" viewBox="0 0 30 30" fill="none" xmlns="http://www.w3.org/2000/svg">
<g clip-path="url(#clip0_316_145)">
<path d="M3.15465 4.43081C3.26108 4.43061 3.36751 4.43033 3.47394 4.42998C3.76544 4.42925 4.05692 4.42961 4.34842 4.43015C4.66316 4.43055 4.9779 4.42994 5.29264 4.42945C5.90883 4.42867 6.52503 4.42884 7.14122 4.42935C7.64205 4.42975 8.14289 4.4298 8.64372 4.42961C8.71502 4.42958 8.78633 4.42956 8.85979 4.42953C9.00465 4.42947 9.1495 4.42942 9.29436 4.42936C10.6524 4.42886 12.0105 4.42943 13.3685 4.43038C14.5336 4.43116 15.6986 4.43103 16.8637 4.43022C18.2169 4.42928 19.5701 4.42891 20.9233 4.42945C21.0676 4.4295 21.212 4.42956 21.3563 4.42961C21.4273 4.42964 21.4983 4.42967 21.5715 4.42969C22.0716 4.42984 22.5718 4.42959 23.072 4.42918C23.6816 4.42868 24.2912 4.42882 24.9009 4.42975C25.2119 4.43021 25.5228 4.4304 25.8338 4.42981C26.1186 4.42929 26.4034 4.42958 26.6882 4.43051C26.7911 4.43071 26.894 4.43061 26.9969 4.43018C27.5116 4.42821 27.992 4.42929 28.4766 4.62891C28.3897 4.81094 28.3024 4.93365 28.1573 5.07478C28.0972 5.13392 28.0972 5.13392 28.0359 5.19425C27.973 5.25521 27.973 5.25521 27.9089 5.31739C27.8268 5.3975 27.7448 5.47776 27.6629 5.55817C27.6083 5.61117 27.6083 5.61117 27.5526 5.66523C27.4434 5.77847 27.3411 5.89377 27.2387 6.01305C27.0126 6.27195 26.774 6.51597 26.531 6.75889C26.4842 6.80586 26.4375 6.85284 26.3893 6.90124C26.2336 7.05755 26.0778 7.21365 25.9219 7.36975C25.8098 7.48217 25.6978 7.59463 25.5857 7.70709C25.2505 8.0434 24.9151 8.37944 24.5796 8.71544C24.4214 8.87389 24.2633 9.03236 24.1051 9.19083C23.5792 9.71773 23.0532 10.2446 22.527 10.7712C22.3908 10.9075 22.2547 11.0438 22.1185 11.1801C22.0677 11.2309 22.0677 11.2309 22.0159 11.2827C21.4666 11.8326 20.9177 12.3829 20.3691 12.9335C19.8052 13.4992 19.241 14.0646 18.6762 14.6294C18.3594 14.9464 18.0427 15.2636 17.7266 15.5812C17.4576 15.8515 17.1883 16.1213 16.9184 16.3906C16.7808 16.5279 16.6434 16.6656 16.5064 16.8036C16.3579 16.9531 16.2086 17.102 16.0592 17.2506C16.0161 17.2944 15.9729 17.3382 15.9285 17.3833C15.6045 17.7033 15.3604 17.821 14.8959 17.8338C14.4383 17.759 14.1756 17.49 13.8618 17.1716C13.8136 17.1237 13.7655 17.0758 13.7159 17.0264C13.5829 16.8939 13.4504 16.7608 13.3182 16.6275C13.1752 16.4836 13.0316 16.3405 12.888 16.1972C12.6071 15.9166 12.3267 15.6354 12.0466 15.354C11.7201 15.026 11.393 14.6987 11.0658 14.3715C10.4818 13.7872 9.89836 13.2025 9.31523 12.6174C8.74996 12.0502 8.18436 11.4834 7.61836 10.9169C7.58352 10.882 7.54868 10.8472 7.51279 10.8113C7.37273 10.6711 7.23267 10.5309 7.09261 10.3907C6.55256 9.85025 6.01276 9.30953 5.473 8.76875C5.31014 8.60559 5.14728 8.44244 4.98439 8.27931C4.64188 7.93628 4.29946 7.59316 3.95729 7.24977C3.81586 7.10784 3.67438 6.96594 3.53277 6.82417C3.37898 6.67014 3.22537 6.51594 3.0718 6.36168C3.00528 6.29517 3.00528 6.29517 2.93741 6.22732C2.70158 5.99001 2.47546 5.74766 2.25801 5.49335C2.09353 5.30571 1.91274 5.13507 1.73252 4.96262C1.66073 4.89253 1.5918 4.81954 1.52344 4.7461C1.52344 4.70743 1.52344 4.66876 1.52344 4.62891C2.05477 4.41001 2.59132 4.42847 3.15465 4.43081Z" fill="white"/>
<path d="M10.4883 16.2305C10.6848 16.3236 10.8123 16.4241 10.9649 16.5804C11.0121 16.6283 11.0593 16.6762 11.1079 16.7256C11.1838 16.8035 11.1838 16.8035 11.2612 16.883C11.3419 16.9648 11.4225 17.0465 11.5032 17.1282C11.7015 17.3292 11.8991 17.5307 12.0964 17.7327C12.2071 17.8459 12.3181 17.9588 12.4295 18.0714C12.534 18.1771 12.638 18.2832 12.7414 18.3899C13.3807 19.0345 14.0587 19.4403 14.978 19.4678C16.2099 19.4525 16.9382 18.6981 17.758 17.8727C17.8053 17.8253 17.8526 17.7779 17.9013 17.7291C18.0501 17.5801 18.1986 17.4308 18.3472 17.2815C18.4489 17.1794 18.5507 17.0774 18.6525 16.9754C18.9 16.7272 19.1473 16.4789 19.3945 16.2305C19.6242 16.3237 19.7789 16.4814 19.9502 16.6544C19.9819 16.686 20.0137 16.7176 20.0463 16.7502C20.1526 16.8561 20.2585 16.9625 20.3644 17.0689C20.4405 17.145 20.5166 17.221 20.5928 17.297C20.7997 17.5036 21.0063 17.7106 21.2128 17.9177C21.4291 18.1346 21.6457 18.3511 21.8623 18.5676C22.2263 18.9316 22.59 19.2959 22.9536 19.6603C23.3733 20.0809 23.7933 20.5012 24.2135 20.9214C24.6613 21.3691 25.1089 21.8171 25.5564 22.2652C25.6851 22.394 25.8137 22.5227 25.9424 22.6514C26.1453 22.8543 26.348 23.0574 26.5506 23.2606C26.6247 23.3349 26.6989 23.4091 26.7732 23.4833C27.4532 24.1632 27.4532 24.1632 27.7513 24.516C27.9115 24.7013 28.0906 24.8681 28.2675 25.0374C28.3393 25.1075 28.4082 25.1805 28.4766 25.2539C28.4766 25.2926 28.4766 25.3313 28.4766 25.3711C27.9452 25.59 27.4087 25.5715 26.8454 25.5692C26.7389 25.5694 26.6325 25.5697 26.5261 25.57C26.2346 25.5708 25.9431 25.5704 25.6516 25.5699C25.3368 25.5695 25.0221 25.5701 24.7074 25.5706C24.0912 25.5713 23.475 25.5712 22.8588 25.5707C22.3579 25.5703 21.8571 25.5702 21.3563 25.5704C21.285 25.5704 21.2137 25.5705 21.1402 25.5705C20.9954 25.5705 20.8505 25.5706 20.7056 25.5707C19.3476 25.5712 17.9895 25.5706 16.6315 25.5696C15.4664 25.5688 14.3014 25.569 13.1363 25.5698C11.7831 25.5707 10.4299 25.5711 9.07668 25.5706C8.93236 25.5705 8.78804 25.5705 8.64372 25.5704C8.57271 25.5704 8.50171 25.5703 8.42855 25.5703C7.92836 25.5702 7.42818 25.5704 6.928 25.5708C6.31838 25.5713 5.70876 25.5712 5.09913 25.5703C4.78814 25.5698 4.47716 25.5696 4.16617 25.5702C3.88137 25.5707 3.59658 25.5704 3.31177 25.5695C3.20887 25.5693 3.10596 25.5694 3.00306 25.5698C2.48844 25.5718 2.00796 25.5707 1.52344 25.3711C1.60486 25.2016 1.68166 25.082 1.81709 24.9509C1.85187 24.9167 1.88666 24.8826 1.92249 24.8474C1.95879 24.8124 1.99508 24.7773 2.03247 24.7412C2.2408 24.5389 2.44555 24.3376 2.63286 24.1155C2.94343 23.7587 3.28209 23.429 3.61689 23.0952C3.69201 23.0201 3.76711 22.945 3.84221 22.8699C4.04495 22.6671 4.24786 22.4645 4.45081 22.262C4.66331 22.0499 4.87564 21.8376 5.08799 21.6253C5.48961 21.2239 5.89137 20.8226 6.2932 20.4213C6.75087 19.9643 7.20837 19.5071 7.66586 19.0499C8.60648 18.1099 9.54731 17.1701 10.4883 16.2305Z" fill="white"/>
<path d="M0.233491 5.91797C0.478684 6.03058 0.646313 6.19762 0.834166 6.38736C0.870735 6.42383 0.907305 6.4603 0.944982 6.49788C1.06761 6.62032 1.18982 6.74317 1.31204 6.86603C1.39979 6.95381 1.48757 7.04158 1.57538 7.12931C1.81387 7.36777 2.052 7.60659 2.29006 7.84547C2.53884 8.09498 2.78795 8.34416 3.03703 8.59338C3.50873 9.06545 3.98014 9.53781 4.45143 10.0103C4.98797 10.5481 5.52483 11.0856 6.06172 11.6231C7.16622 12.7288 8.27031 13.835 9.37412 14.9414C9.27731 15.1906 9.09143 15.3576 8.90551 15.5421C8.86912 15.5787 8.83274 15.6152 8.79525 15.6529C8.67308 15.7755 8.5505 15.8977 8.42792 16.02C8.34032 16.1077 8.25275 16.1955 8.1652 16.2833C7.92723 16.5218 7.6889 16.7599 7.45047 16.998C7.20136 17.2468 6.95254 17.4959 6.70367 17.7449C6.28578 18.1631 5.86764 18.5809 5.44936 18.9986C4.96513 19.4822 4.48133 19.9662 3.99774 20.4505C3.58305 20.8657 3.16813 21.2807 2.75301 21.6955C2.50485 21.9435 2.25677 22.1915 2.00889 22.4398C1.776 22.673 1.54283 22.906 1.30943 23.1387C1.22358 23.2244 1.13784 23.3102 1.0522 23.3961C0.935764 23.5128 0.818981 23.6292 0.702098 23.7455C0.667865 23.78 0.633633 23.8145 0.598363 23.85C0.364055 24.082 0.364055 24.082 0.233491 24.082C0.032925 23.6192 -0.0347901 23.2258 -0.0306461 22.7237C-0.0310118 22.6547 -0.0313774 22.5857 -0.0317541 22.5146C-0.0325221 22.3249 -0.0322527 22.1352 -0.031523 21.9455C-0.0309896 21.7402 -0.0318127 21.5349 -0.0324557 21.3296C-0.0334948 20.9281 -0.0332742 20.5267 -0.0325934 20.1252C-0.0320629 19.7988 -0.0319928 19.4723 -0.0322474 19.1459C-0.0322833 19.0993 -0.0323192 19.0528 -0.0323563 19.0048C-0.0324312 18.9102 -0.0325072 18.8156 -0.0325842 18.721C-0.0332516 17.835 -0.0324855 16.9491 -0.0312248 16.0632C-0.0301777 15.304 -0.0303596 14.5447 -0.0314401 13.7855C-0.0326959 12.9026 -0.0331873 12.0197 -0.0324685 11.1369C-0.0323938 11.0426 -0.0323201 10.9484 -0.0322474 10.8541C-0.0322113 10.8078 -0.0321751 10.7614 -0.0321378 10.7136C-0.031936 10.3878 -0.032276 10.062 -0.0328286 9.73613C-0.0334877 9.33874 -0.0333043 8.94135 -0.0320596 8.54396C-0.0314461 8.34143 -0.0311984 8.13891 -0.0319774 7.93637C-0.03262 7.71633 -0.031812 7.49634 -0.0306461 7.27631C-0.031169 7.21297 -0.0316918 7.14963 -0.0322305 7.08436C-0.0278383 6.65557 0.0631754 6.31099 0.233491 5.91797Z" fill="white"/>
<path d="M29.7656 5.91797C29.9662 6.3808 30.0339 6.77425 30.0298 7.27631C30.0301 7.34532 30.0305 7.41432 30.0309 7.48542C30.0316 7.67513 30.0314 7.86481 30.0306 8.05452C30.0301 8.25983 30.0309 8.46512 30.0316 8.67042C30.0326 9.07189 30.0324 9.47334 30.0317 9.8748C30.0312 10.2012 30.0311 10.5277 30.0314 10.8541C30.0314 10.9007 30.0314 10.9472 30.0315 10.9952C30.0315 11.0898 30.0316 11.1844 30.0317 11.279C30.0324 12.165 30.0316 13.0509 30.0303 13.9368C30.0293 14.696 30.0295 15.4553 30.0306 16.2145C30.0318 17.0974 30.0323 17.9803 30.0316 18.8631C30.0315 18.9574 30.0314 19.0516 30.0314 19.1459C30.0313 19.2154 30.0313 19.2154 30.0313 19.2864C30.0311 19.6122 30.0314 19.938 30.0319 20.2639C30.0326 20.6613 30.0324 21.0586 30.0312 21.456C30.0306 21.6586 30.0303 21.8611 30.0311 22.0636C30.0317 22.2837 30.0309 22.5037 30.0298 22.7237C30.0303 22.787 30.0308 22.8504 30.0313 22.9156C30.027 23.3444 29.9359 23.689 29.7656 24.082C29.5204 23.9694 29.3528 23.8024 29.1649 23.6126C29.1284 23.5762 29.0918 23.5397 29.0541 23.5021C28.9315 23.3797 28.8093 23.2568 28.6871 23.134C28.5993 23.0462 28.5115 22.9584 28.4237 22.8707C28.1852 22.6322 27.9471 22.3934 27.7091 22.1545C27.4603 21.905 27.2112 21.6558 26.9621 21.4066C26.4904 20.9346 26.019 20.4622 25.5477 19.9897C25.0112 19.4519 24.4743 18.9144 23.9374 18.3769C22.8329 17.2712 21.7288 16.165 20.625 15.0586C20.7659 14.7939 20.9465 14.6034 21.157 14.3945C21.1932 14.3581 21.2294 14.3217 21.2667 14.2843C21.3879 14.1626 21.5095 14.0414 21.6311 13.9202C21.7181 13.833 21.8051 13.7458 21.8921 13.6585C22.1282 13.4219 22.3647 13.1856 22.6013 12.9493C22.8487 12.7023 23.0957 12.455 23.3428 12.2077C23.7575 11.7928 24.1726 11.378 24.5877 10.9634C25.0683 10.4834 25.5485 10.003 26.0285 9.52244C26.4402 9.1102 26.8521 8.69819 27.2642 8.28636C27.5106 8.04022 27.7568 7.79399 28.0029 7.54756C28.234 7.31612 28.4654 7.08495 28.697 6.85401C28.7822 6.76898 28.8673 6.68385 28.9522 6.59862C29.0678 6.48277 29.1837 6.36728 29.2996 6.25189C29.3336 6.21766 29.3676 6.18344 29.4026 6.14817C29.6351 5.91797 29.6351 5.91797 29.7656 5.91797Z" fill="white"/>
</g>
<defs>
<clipPath id="clip0_316_145">
<rect width="30" height="30" fill="white"/>
</clipPath>
</defs>
</svg>
