<svg width="50" height="50" viewBox="0 0 50 50" fill="none" xmlns="http://www.w3.org/2000/svg">
<path d="M50 25C50 11.1929 38.8071 0 25 0C11.1929 0 0 11.1929 0 25C0 37.4031 9.03286 47.6947 20.8787 49.6599C20.8788 49.6605 20.8788 49.6613 20.8789 49.6619C20.9424 49.6724 21.0064 49.6815 21.07 49.6916C21.1381 49.7024 21.2063 49.7132 21.2746 49.7234C21.4124 49.744 21.5508 49.7631 21.6894 49.7814C21.743 49.7885 21.7964 49.7963 21.8502 49.803C22.0409 49.827 22.2322 49.849 22.4244 49.8687C22.4646 49.8728 22.5053 49.876 22.5456 49.8799C22.699 49.8948 22.8527 49.9088 23.0069 49.9209C23.0736 49.9262 23.1404 49.9306 23.2072 49.9354C23.338 49.9446 23.469 49.953 23.6004 49.9603C23.6709 49.9642 23.7414 49.9679 23.8121 49.9712C23.9478 49.9775 24.0837 49.9825 24.2198 49.9867C24.2822 49.9886 24.3445 49.991 24.407 49.9925C24.6041 49.9971 24.8016 50 24.9998 50C25.198 50 25.3956 49.9971 25.5928 49.9925C25.6553 49.9911 25.7175 49.9887 25.7799 49.9867C25.9161 49.9825 26.052 49.9775 26.1876 49.9712C26.2583 49.9679 26.3288 49.9641 26.3994 49.9603C26.5307 49.953 26.6618 49.9446 26.7926 49.9354C26.8594 49.9306 26.9263 49.9262 26.9929 49.9209C27.1471 49.9088 27.301 49.8948 27.4545 49.8799C27.4947 49.876 27.5353 49.8728 27.5754 49.8687C27.7675 49.849 27.9589 49.827 28.1497 49.803C28.2033 49.7963 28.2565 49.7886 28.3099 49.7815C28.4488 49.7631 28.5873 49.744 28.7254 49.7234C28.7936 49.7132 28.8615 49.7024 28.9294 49.6917C28.9931 49.6816 29.0572 49.6725 29.1209 49.662C29.121 49.6613 29.1211 49.6606 29.1212 49.6599C40.9671 47.6946 50 37.403 50 25ZM25 4.88268C32.3483 4.88268 38.7755 8.82285 42.2859 14.7055C43.5198 16.7733 41.6911 19.3235 39.3337 18.8323C35.1483 17.9603 30.0745 17.3439 25.0001 17.3439C19.9257 17.3439 14.8519 17.9603 10.6663 18.8323C8.30902 19.3235 6.48027 16.7732 7.7142 14.7055C11.2245 8.82285 17.6517 4.88268 25 4.88268ZM25 29.5962C23.051 29.5962 21.4709 28.0162 21.4709 26.0671C21.4709 24.118 23.0509 22.538 25 22.538C26.949 22.538 28.5291 24.118 28.5291 26.0671C28.5291 28.0162 26.949 29.5962 25 29.5962ZM5.81884 31.0808C5.17581 29.0505 7.00098 27.092 9.07875 27.5595C12.6987 28.374 16.3934 29.0627 17.6282 30.2975C18.5444 31.2137 19.1574 35.1868 19.7442 40.0501C20.011 42.2605 17.6938 43.8803 15.7192 42.8517C11.0383 40.4135 7.4367 36.1885 5.81884 31.0808ZM34.2808 42.8517C32.3062 43.8803 29.989 42.2605 30.2558 40.0501C30.8427 35.1869 31.4556 31.2137 32.3718 30.2975C33.6066 29.0627 37.3013 28.374 40.9213 27.5595C42.9991 27.0919 44.8243 29.0505 44.1812 31.0808C42.5633 36.1885 38.9617 40.4135 34.2808 42.8517Z" fill="white"/>
</svg>
