<svg width="173" height="61" viewBox="0 0 173 61" fill="none" xmlns="http://www.w3.org/2000/svg">
<path d="M77.68 43.4033V17.8033H84C86.2293 17.8033 87.84 18.2673 88.832 19.1953C89.824 20.1233 90.336 21.654 90.368 23.7873C90.4 25.4087 90.4213 26.95 90.432 28.4113C90.4427 29.862 90.4427 31.318 90.432 32.7793C90.4213 34.23 90.4 35.766 90.368 37.3873C90.336 39.5313 89.824 41.0727 88.832 42.0113C87.8507 42.9393 86.256 43.4033 84.048 43.4033H77.68ZM81.92 39.6593H84.048C84.7413 39.6593 85.2587 39.51 85.6 39.2113C85.952 38.9127 86.1333 38.47 86.144 37.8833C86.176 36.614 86.1973 35.3767 86.208 34.1713C86.2293 32.966 86.24 31.7713 86.24 30.5873C86.24 29.4033 86.2293 28.2087 86.208 27.0033C86.1973 25.798 86.176 24.566 86.144 23.3073C86.1333 22.7207 85.952 22.2833 85.6 21.9953C85.248 21.6967 84.7147 21.5473 84 21.5473H81.92V39.6593ZM93.4925 43.4033V17.8033H99.5725C101.759 17.8033 103.343 18.246 104.325 19.1313C105.306 20.0167 105.829 21.478 105.893 23.5153C105.914 24.2193 105.93 24.8433 105.941 25.3873C105.951 25.9313 105.951 26.4647 105.941 26.9873C105.93 27.51 105.914 28.102 105.893 28.7633C105.85 30.054 105.626 31.1047 105.221 31.9153C104.826 32.726 104.207 33.3447 103.365 33.7713L106.277 43.4033H101.797L99.3805 34.4753H97.7325V43.4033H93.4925ZM97.7325 30.7313H99.5725C100.266 30.7313 100.778 30.582 101.109 30.2833C101.45 29.9847 101.631 29.5473 101.653 28.9713C101.685 28.342 101.706 27.7127 101.717 27.0833C101.738 26.454 101.743 25.8247 101.733 25.1953C101.722 24.566 101.695 23.9367 101.653 23.3073C101.621 22.7207 101.439 22.2833 101.109 21.9953C100.778 21.6967 100.266 21.5473 99.5725 21.5473H97.7325V30.7313ZM108.899 43.4033V17.8033H113.139V43.4033H108.899ZM118.893 43.4033L115.389 17.8033H119.773L121.565 30.9873L121.933 39.6593H123.421L123.789 30.9873L125.581 17.8033H129.965L126.461 43.4033H118.893ZM138.078 43.6913C135.795 43.6913 134.147 43.2327 133.134 42.3153C132.12 41.398 131.587 39.8727 131.534 37.7393C131.512 36.4273 131.496 35.19 131.486 34.0273C131.475 32.854 131.47 31.7073 131.47 30.5873C131.47 29.4567 131.475 28.31 131.486 27.1473C131.496 25.974 131.512 24.742 131.534 23.4513C131.587 21.318 132.12 19.798 133.134 18.8913C134.147 17.974 135.795 17.5153 138.078 17.5153C140.339 17.5153 141.971 17.974 142.974 18.8913C143.987 19.798 144.526 21.318 144.59 23.4513C144.643 24.742 144.68 25.974 144.702 27.1473C144.723 28.31 144.734 29.4567 144.734 30.5873C144.734 31.718 144.723 32.87 144.702 34.0433C144.68 35.206 144.643 36.438 144.59 37.7393C144.526 39.8727 143.987 41.398 142.974 42.3153C141.971 43.2327 140.339 43.6913 138.078 43.6913ZM138.078 40.2193C138.899 40.2193 139.48 40.0487 139.822 39.7073C140.174 39.366 140.355 38.7793 140.366 37.9473C140.408 36.6567 140.446 35.4087 140.478 34.2033C140.51 32.9873 140.526 31.7873 140.526 30.6033C140.526 29.4087 140.51 28.2033 140.478 26.9873C140.446 25.7713 140.408 24.518 140.366 23.2273C140.355 22.4167 140.174 21.8407 139.822 21.4993C139.48 21.1473 138.899 20.9713 138.078 20.9713C137.278 20.9713 136.696 21.1473 136.334 21.4993C135.982 21.8407 135.795 22.4167 135.774 23.2273C135.72 24.5073 135.683 25.7553 135.662 26.9713C135.64 28.1767 135.63 29.3767 135.63 30.5713C135.63 31.7553 135.64 32.9553 135.662 34.1713C135.683 35.3873 135.72 36.646 135.774 37.9473C135.795 38.7793 135.982 39.366 136.334 39.7073C136.696 40.0487 137.278 40.2193 138.078 40.2193ZM147.805 43.4033V17.8033H155.037L156.829 25.9473L158.685 39.6593H160.125L159.373 28.2993L159.053 17.8033H163.325V43.4033H155.773L153.933 34.8273L152.493 21.5153H151.005L151.693 33.6433L152.045 43.4033H147.805Z" fill="#100F11"/>
<path d="M165.992 43.4033V39.2913H171.688V43.4033H165.992Z" fill="#FFB120"/>
<circle cx="30" cy="30.9033" r="30" fill="#FFB120"/>
<path d="M48 30.9033C48 20.9622 39.9411 12.9033 30 12.9033C20.0589 12.9033 12 20.9622 12 30.9033C12 39.8336 18.5037 47.2435 27.0326 48.6585C27.0327 48.6589 27.0328 48.6594 27.0328 48.6599C27.0785 48.6675 27.1246 48.674 27.1704 48.6813C27.2195 48.6891 27.2685 48.6968 27.3177 48.7042C27.4169 48.719 27.5166 48.7328 27.6164 48.746C27.655 48.751 27.6934 48.7567 27.7321 48.7615C27.8694 48.7788 28.0072 48.7946 28.1456 48.8088C28.1745 48.8117 28.2038 48.814 28.2328 48.8169C28.3433 48.8276 28.4539 48.8376 28.565 48.8464C28.613 48.8502 28.6611 48.8534 28.7092 48.8568C28.8034 48.8635 28.8977 48.8695 28.9923 48.8747C29.043 48.8775 29.0938 48.8802 29.1447 48.8826C29.2424 48.8871 29.3402 48.8907 29.4383 48.8937C29.4832 48.8951 29.528 48.8968 29.573 48.8979C29.715 48.9013 29.8572 48.9033 29.9999 48.9033C30.1426 48.9033 30.2848 48.9013 30.4268 48.8979C30.4718 48.8969 30.5166 48.8952 30.5615 48.8937C30.6596 48.8907 30.7574 48.8871 30.8551 48.8826C30.906 48.8802 30.9568 48.8775 31.0075 48.8747C31.1021 48.8695 31.1965 48.8635 31.2907 48.8568C31.3388 48.8534 31.3869 48.8502 31.4349 48.8464C31.5459 48.8376 31.6567 48.8276 31.7672 48.8169C31.7962 48.814 31.8254 48.8117 31.8543 48.8088C31.9926 48.7946 32.1304 48.7787 32.2678 48.7615C32.3064 48.7567 32.3447 48.7511 32.3831 48.746C32.4831 48.7328 32.5829 48.719 32.6823 48.7042C32.7314 48.6968 32.7803 48.6891 32.8292 48.6813C32.8751 48.6741 32.9212 48.6675 32.967 48.6599C32.9671 48.6594 32.9672 48.659 32.9672 48.6585C41.4963 47.2435 48 39.8335 48 30.9033ZM30 16.4188C35.2908 16.4188 39.9184 19.2558 42.4458 23.4913C43.3343 24.9801 42.0176 26.8162 40.3203 26.4626C37.3068 25.8347 33.6536 25.3909 30.0001 25.3909C26.3465 25.3909 22.6934 25.8347 19.6798 26.4626C17.9825 26.8162 16.6658 24.98 17.5542 23.4913C20.0816 19.2558 24.7092 16.4188 30 16.4188ZM30 34.2126C28.5967 34.2126 27.459 33.075 27.459 31.6717C27.459 30.2683 28.5966 29.1307 30 29.1307C31.4033 29.1307 32.541 30.2683 32.541 31.6717C32.541 33.075 31.4033 34.2126 30 34.2126ZM16.1896 35.2815C15.7266 33.8197 17.0407 32.4095 18.5367 32.7461C21.143 33.3326 23.8032 33.8284 24.6923 34.7175C25.3519 35.3772 25.7933 38.2378 26.2158 41.7394C26.4079 43.3309 24.7396 44.4971 23.3178 43.7565C19.9476 42.001 17.3544 38.959 16.1896 35.2815ZM36.6822 43.7565C35.2604 44.4971 33.5921 43.3309 33.7842 41.7394C34.2067 38.2379 34.648 35.3772 35.3077 34.7175C36.1968 33.8284 38.857 33.3326 41.4634 32.7461C42.9594 32.4095 44.2735 33.8197 43.8105 35.2815C42.6456 38.959 40.0524 42.001 36.6822 43.7565Z" fill="white"/>
</svg>
