<svg width="81" height="59" viewBox="0 0 81 59" fill="none" xmlns="http://www.w3.org/2000/svg">
<circle cx="3.19771" cy="3.01802" r="2.32954" fill="#100F11"/>
<circle cx="13.8569" cy="3.01802" r="2.32954" fill="#100F11"/>
<circle cx="24.5161" cy="3.01802" r="2.32954" fill="#100F11"/>
<circle cx="35.1752" cy="3.01802" r="2.32954" fill="#100F11"/>
<circle cx="45.8344" cy="3.01802" r="2.32954" fill="#100F11"/>
<circle cx="56.4936" cy="3.01802" r="2.32954" fill="#100F11"/>
<circle cx="67.1528" cy="3.01802" r="2.32954" fill="#100F11"/>
<circle cx="77.812" cy="3.01802" r="2.32954" fill="#100F11"/>
<circle cx="3.19771" cy="13.6772" r="2.32954" fill="#100F11"/>
<circle cx="13.8569" cy="13.6772" r="2.32954" fill="#100F11"/>
<circle cx="24.5161" cy="13.6772" r="2.32954" fill="#100F11"/>
<circle cx="35.1752" cy="13.6772" r="2.32954" fill="#100F11"/>
<circle cx="45.8344" cy="13.6772" r="2.32954" fill="#100F11"/>
<circle cx="56.4936" cy="13.6772" r="2.32954" fill="#100F11"/>
<circle cx="67.1528" cy="13.6772" r="2.32954" fill="#100F11"/>
<circle cx="77.812" cy="13.6772" r="2.32954" fill="#100F11"/>
<circle cx="3.19771" cy="24.3364" r="2.32954" fill="#100F11"/>
<circle cx="13.8569" cy="24.3364" r="2.32954" fill="#100F11"/>
<circle cx="24.5161" cy="24.3364" r="2.32954" fill="#100F11"/>
<circle cx="35.1752" cy="24.3364" r="2.32954" fill="#100F11"/>
<circle cx="45.8344" cy="24.3364" r="2.32954" fill="#100F11"/>
<circle cx="56.4936" cy="24.3364" r="2.32954" fill="#100F11"/>
<circle cx="67.1528" cy="24.3364" r="2.32954" fill="#100F11"/>
<circle cx="77.812" cy="24.3364" r="2.32954" fill="#100F11"/>
<circle cx="3.19771" cy="34.9956" r="2.32954" fill="#100F11"/>
<circle cx="13.8569" cy="34.9956" r="2.32954" fill="#100F11"/>
<circle cx="24.5161" cy="34.9956" r="2.32954" fill="#100F11"/>
<circle cx="35.1752" cy="34.9956" r="2.32954" fill="#100F11"/>
<circle cx="45.8344" cy="34.9956" r="2.32954" fill="#100F11"/>
<circle cx="56.4936" cy="34.9956" r="2.32954" fill="#100F11"/>
<circle cx="67.1528" cy="34.9956" r="2.32954" fill="#100F11"/>
<circle cx="77.812" cy="34.9956" r="2.32954" fill="#100F11"/>
<circle cx="3.19771" cy="45.6547" r="2.32954" fill="#100F11"/>
<circle cx="13.8569" cy="45.6547" r="2.32954" fill="#100F11"/>
<circle cx="24.5161" cy="45.6547" r="2.32954" fill="#100F11"/>
<circle cx="35.1752" cy="45.6547" r="2.32954" fill="#100F11"/>
<circle cx="45.8344" cy="45.6547" r="2.32954" fill="#100F11"/>
<circle cx="56.4936" cy="45.6547" r="2.32954" fill="#100F11"/>
<circle cx="67.1528" cy="45.6547" r="2.32954" fill="#100F11"/>
<circle cx="77.812" cy="45.6547" r="2.32954" fill="#100F11"/>
<circle cx="3.19771" cy="56.3139" r="2.32954" fill="#100F11"/>
<circle cx="13.8569" cy="56.3139" r="2.32954" fill="#100F11"/>
<circle cx="24.5161" cy="56.3139" r="2.32954" fill="#100F11"/>
<circle cx="35.1752" cy="56.3139" r="2.32954" fill="#100F11"/>
<circle cx="45.8344" cy="56.3139" r="2.32954" fill="#100F11"/>
<circle cx="56.4936" cy="56.3139" r="2.32954" fill="#100F11"/>
<circle cx="67.1528" cy="56.3139" r="2.32954" fill="#100F11"/>
<circle cx="77.812" cy="56.3139" r="2.32954" fill="#100F11"/>
</svg>
