<svg width="80" height="58" viewBox="0 0 80 58" fill="none" xmlns="http://www.w3.org/2000/svg">
<circle cx="2.32954" cy="2.32954" r="2.32954" fill="#FFB120"/>
<circle cx="12.9887" cy="2.32954" r="2.32954" fill="#FFB120"/>
<circle cx="23.6479" cy="2.32954" r="2.32954" fill="#FFB120"/>
<circle cx="34.3071" cy="2.32954" r="2.32954" fill="#FFB120"/>
<circle cx="44.9663" cy="2.32954" r="2.32954" fill="#FFB120"/>
<circle cx="55.6254" cy="2.32954" r="2.32954" fill="#FFB120"/>
<circle cx="66.2846" cy="2.32954" r="2.32954" fill="#FFB120"/>
<circle cx="76.9438" cy="2.32954" r="2.32954" fill="#FFB120"/>
<circle cx="2.32954" cy="12.9887" r="2.32954" fill="#FFB120"/>
<circle cx="12.9887" cy="12.9887" r="2.32954" fill="#FFB120"/>
<circle cx="23.6479" cy="12.9887" r="2.32954" fill="#FFB120"/>
<circle cx="34.3071" cy="12.9887" r="2.32954" fill="#FFB120"/>
<circle cx="44.9663" cy="12.9887" r="2.32954" fill="#FFB120"/>
<circle cx="55.6254" cy="12.9887" r="2.32954" fill="#FFB120"/>
<circle cx="66.2846" cy="12.9887" r="2.32954" fill="#FFB120"/>
<circle cx="76.9438" cy="12.9887" r="2.32954" fill="#FFB120"/>
<circle cx="2.32954" cy="23.6479" r="2.32954" fill="#FFB120"/>
<circle cx="12.9887" cy="23.6479" r="2.32954" fill="#FFB120"/>
<circle cx="23.6479" cy="23.6479" r="2.32954" fill="#FFB120"/>
<circle cx="34.3071" cy="23.6479" r="2.32954" fill="#FFB120"/>
<circle cx="44.9663" cy="23.6479" r="2.32954" fill="#FFB120"/>
<circle cx="55.6254" cy="23.6479" r="2.32954" fill="#FFB120"/>
<circle cx="66.2846" cy="23.6479" r="2.32954" fill="#FFB120"/>
<circle cx="76.9438" cy="23.6479" r="2.32954" fill="#FFB120"/>
<circle cx="2.32954" cy="34.3071" r="2.32954" fill="#FFB120"/>
<circle cx="12.9887" cy="34.3071" r="2.32954" fill="#FFB120"/>
<circle cx="23.6479" cy="34.3071" r="2.32954" fill="#FFB120"/>
<circle cx="34.3071" cy="34.3071" r="2.32954" fill="#FFB120"/>
<circle cx="44.9663" cy="34.3071" r="2.32954" fill="#FFB120"/>
<circle cx="55.6254" cy="34.3071" r="2.32954" fill="#FFB120"/>
<circle cx="66.2846" cy="34.3071" r="2.32954" fill="#FFB120"/>
<circle cx="76.9438" cy="34.3071" r="2.32954" fill="#FFB120"/>
<circle cx="2.32954" cy="44.9663" r="2.32954" fill="#FFB120"/>
<circle cx="12.9887" cy="44.9663" r="2.32954" fill="#FFB120"/>
<circle cx="23.6479" cy="44.9663" r="2.32954" fill="#FFB120"/>
<circle cx="34.3071" cy="44.9663" r="2.32954" fill="#FFB120"/>
<circle cx="44.9663" cy="44.9663" r="2.32954" fill="#FFB120"/>
<circle cx="55.6254" cy="44.9663" r="2.32954" fill="#FFB120"/>
<circle cx="66.2846" cy="44.9663" r="2.32954" fill="#FFB120"/>
<circle cx="76.9438" cy="44.9663" r="2.32954" fill="#FFB120"/>
<circle cx="2.32954" cy="55.6254" r="2.32954" fill="#FFB120"/>
<circle cx="12.9887" cy="55.6254" r="2.32954" fill="#FFB120"/>
<circle cx="23.6479" cy="55.6254" r="2.32954" fill="#FFB120"/>
<circle cx="34.3071" cy="55.6254" r="2.32954" fill="#FFB120"/>
<circle cx="44.9663" cy="55.6254" r="2.32954" fill="#FFB120"/>
<circle cx="55.6254" cy="55.6254" r="2.32954" fill="#FFB120"/>
<circle cx="66.2846" cy="55.6254" r="2.32954" fill="#FFB120"/>
<circle cx="76.9438" cy="55.6254" r="2.32954" fill="#FFB120"/>
</svg>
